<svg width="378" height="377" xmlns="http://www.w3.org/2000/svg" xmlns:xlink="http://www.w3.org/1999/xlink" overflow="hidden"><defs><clipPath id="clip0"><rect x="494" y="172" width="378" height="377"/></clipPath></defs><g clip-path="url(#clip0)" transform="translate(-494 -172)"><path d="M495 360C495 256.17 579.17 172 683 172 786.83 172 871 256.17 871 360 871 463.83 786.83 548 683 548 579.17 548 495 463.83 495 360Z" fill="#FFBC42" fill-rule="evenodd"/><path d="M770.235 500.932C768.456 500.932 766.959 501.473 765.745 502.554 764.53 503.636 763.786 505.137 763.512 507.06L777.01 507.06C776.976 505.206 776.309 503.721 775.008 502.606 773.708 501.49 772.117 500.932 770.235 500.932ZM702.825 495.474 710.01 495.474 710.01 524 702.825 524ZM664.148 495.062C666.372 495.062 668.357 495.534 670.102 496.478 671.847 497.422 673.198 498.77 674.156 500.52 675.08 498.873 676.423 497.551 678.185 496.556 679.947 495.56 681.855 495.062 683.908 495.062 687.398 495.062 690.212 496.135 692.35 498.281 694.489 500.426 695.558 503.421 695.558 507.266L695.558 524 688.373 524 688.373 508.244C688.373 506.013 687.808 504.305 686.679 503.121 685.55 501.936 684.01 501.344 682.06 501.344 680.11 501.344 678.562 501.936 677.415 503.121 676.269 504.305 675.696 506.013 675.696 508.244L675.696 524 668.511 524 668.511 508.244C668.511 506.013 667.946 504.305 666.817 503.121 665.688 501.936 664.148 501.344 662.198 501.344 660.214 501.344 658.649 501.936 657.502 503.121 656.356 504.305 655.783 506.013 655.783 508.244L655.783 524 648.598 524 648.598 495.474 655.783 495.474 655.783 498.924C656.707 497.723 657.896 496.779 659.35 496.092 660.804 495.406 662.404 495.062 664.148 495.062ZM609.921 495.062C612.145 495.062 614.13 495.534 615.875 496.478 617.62 497.422 618.971 498.77 619.929 500.52 620.853 498.873 622.196 497.551 623.958 496.556 625.72 495.56 627.627 495.062 629.68 495.062 633.17 495.062 635.984 496.135 638.123 498.281 640.261 500.426 641.33 503.421 641.33 507.266L641.33 524 634.145 524 634.145 508.244C634.145 506.013 633.581 504.305 632.452 503.121 631.323 501.936 629.783 501.344 627.833 501.344 625.883 501.344 624.334 501.936 623.188 503.121 622.042 504.305 621.469 506.013 621.469 508.244L621.469 524 614.284 524 614.284 508.244C614.284 506.013 613.719 504.305 612.59 503.121 611.461 501.936 609.921 501.344 607.971 501.344 605.987 501.344 604.421 501.936 603.275 503.121 602.129 504.305 601.556 506.013 601.556 508.244L601.556 524 600.009 524 595.643 521.89 594.371 521.114 594.371 495.474 601.556 495.474 601.556 498.924C602.48 497.723 603.669 496.779 605.123 496.092 606.577 495.406 608.176 495.062 609.921 495.062ZM802.396 495.011 805.717 495.389 798.219 502.227 798.105 502.312 797.7 502.554 797.652 502.652 788.135 509.792 788.129 509.737C788.129 506.785 788.727 504.193 789.925 501.962 791.122 499.731 792.799 498.014 794.954 496.813 797.11 495.612 799.59 495.011 802.396 495.011ZM770.441 495.011C773.144 495.011 775.564 495.594 777.703 496.762 779.841 497.929 781.501 499.585 782.681 501.73 783.862 503.876 784.452 506.339 784.452 509.119 784.452 510.149 784.383 511.076 784.246 511.9L763.461 511.9C763.632 513.959 764.35 515.573 765.617 516.74 766.882 517.907 768.439 518.491 770.287 518.491 772.956 518.491 774.854 517.341 775.984 515.041L780.431 515.041 769.194 521.89 765.594 523.63 763.076 522.635C760.903 521.417 759.21 519.692 757.995 517.461 756.781 515.229 756.173 512.655 756.173 509.737 756.173 506.785 756.772 504.193 757.969 501.962 759.167 499.731 760.844 498.014 762.999 496.813 765.155 495.612 767.635 495.011 770.441 495.011ZM574.278 495.011C577.015 495.011 579.495 495.62 581.719 496.839 583.943 498.057 585.697 499.782 586.98 502.014 588.263 504.245 588.904 506.819 588.904 509.737 588.904 511.196 588.74 512.569 588.41 513.856L587.219 516.755 580.823 512.857 581.514 509.737C581.514 507.025 580.804 504.94 579.384 503.481 577.964 502.022 576.228 501.293 574.175 501.293 572.122 501.293 570.403 502.022 569.017 503.481L568.795 503.86 566.619 502.227 563.889 499.738 566.836 496.839C569.06 495.62 571.54 495.011 574.278 495.011ZM738.815 488.42 746.051 488.42 746.051 495.474 752.415 495.474 752.415 501.396 746.051 501.396 746.051 515.195C746.051 516.156 746.282 516.851 746.744 517.281 747.206 517.71 747.984 517.924 749.079 517.924L752.415 517.924 752.415 524 747.899 524C741.843 524 738.815 521.048 738.815 515.144L738.815 501.396 735.427 501.396 735.427 495.474 738.815 495.474ZM718.479 488.42 725.716 488.42 725.716 495.474 732.08 495.474 732.08 501.396 725.716 501.396 725.716 515.195C725.716 516.156 725.947 516.851 726.409 517.281 726.871 517.71 727.649 517.924 728.744 517.924L732.08 517.924 732.08 524 727.563 524C721.507 524 718.479 521.048 718.479 515.144L718.479 501.396 715.092 501.396 715.092 495.474 718.479 495.474ZM706.469 483.631C707.735 483.631 708.787 484.035 709.625 484.842 710.464 485.648 710.883 486.652 710.883 487.854 710.883 489.055 710.464 490.059 709.625 490.866 708.787 491.673 707.735 492.076 706.469 492.076 705.203 492.076 704.151 491.673 703.313 490.866 702.474 490.059 702.055 489.055 702.055 487.854 702.055 486.652 702.474 485.648 703.313 484.842 704.151 484.035 705.203 483.631 706.469 483.631ZM574.175 429.179C572.122 429.179 570.403 429.908 569.017 431.367 567.631 432.826 566.938 434.912 566.938 437.623 566.938 440.335 567.614 442.421 568.966 443.879 570.317 445.338 572.019 446.068 574.072 446.068 575.372 446.068 576.596 445.75 577.742 445.115 578.888 444.48 579.803 443.528 580.488 442.258 581.172 440.987 581.514 439.443 581.514 437.623 581.514 434.912 580.804 432.826 579.384 431.367 577.964 429.908 576.228 429.179 574.175 429.179ZM802.191 428.819C800.412 428.819 798.915 429.359 797.7 430.441 796.485 431.522 795.741 433.024 795.468 434.946L808.965 434.946C808.931 433.092 808.264 431.608 806.964 430.492 805.664 429.376 804.073 428.819 802.191 428.819ZM770.235 428.819C768.456 428.819 766.959 429.359 765.745 430.441 764.53 431.522 763.786 433.024 763.512 434.946L777.01 434.946C776.976 433.092 776.309 431.608 775.008 430.492 773.708 429.376 772.117 428.819 770.235 428.819ZM702.825 423.361 710.01 423.361 710.01 451.886 702.825 451.886ZM664.148 422.949C666.372 422.949 668.357 423.421 670.102 424.365 671.847 425.309 673.198 426.656 674.156 428.407 675.08 426.759 676.423 425.437 678.185 424.442 679.947 423.446 681.855 422.949 683.908 422.949 687.398 422.949 690.212 424.021 692.35 426.167 694.489 428.312 695.558 431.307 695.558 435.152L695.558 451.886 688.373 451.886 688.373 436.13C688.373 433.899 687.808 432.191 686.679 431.007 685.55 429.823 684.01 429.23 682.06 429.23 680.11 429.23 678.562 429.823 677.415 431.007 676.269 432.191 675.696 433.899 675.696 436.13L675.696 451.886 668.511 451.886 668.511 436.13C668.511 433.899 667.946 432.191 666.817 431.007 665.688 429.823 664.148 429.23 662.198 429.23 660.214 429.23 658.649 429.823 657.502 431.007 656.356 432.191 655.783 433.899 655.783 436.13L655.783 451.886 648.598 451.886 648.598 423.361 655.783 423.361 655.783 426.81C656.707 425.609 657.896 424.665 659.35 423.978 660.804 423.292 662.404 422.949 664.148 422.949ZM609.921 422.949C612.145 422.949 614.13 423.421 615.875 424.365 617.62 425.309 618.971 426.656 619.929 428.407 620.853 426.759 622.196 425.437 623.958 424.442 625.72 423.446 627.627 422.949 629.68 422.949 633.17 422.949 635.984 424.021 638.123 426.167 640.261 428.312 641.33 431.307 641.33 435.152L641.33 451.886 634.145 451.886 634.145 436.13C634.145 433.899 633.581 432.191 632.452 431.007 631.323 429.823 629.783 429.23 627.833 429.23 625.883 429.23 624.334 429.823 623.188 431.007 622.042 432.191 621.469 433.899 621.469 436.13L621.469 451.886 614.284 451.886 614.284 436.13C614.284 433.899 613.719 432.191 612.59 431.007 611.461 429.823 609.921 429.23 607.971 429.23 605.987 429.23 604.421 429.823 603.275 431.007 602.129 432.191 601.556 433.899 601.556 436.13L601.556 451.886 594.371 451.886 594.371 423.361 601.556 423.361 601.556 426.81C602.48 425.609 603.669 424.665 605.123 423.978 606.577 423.292 608.176 422.949 609.921 422.949ZM832.299 422.897C835.686 422.897 838.389 423.747 840.408 425.446 842.426 427.145 843.538 429.436 843.743 432.32L836.866 432.32C836.764 431.187 836.293 430.286 835.455 429.617 834.617 428.947 833.496 428.613 832.093 428.613 830.793 428.613 829.792 428.853 829.091 429.333 828.389 429.814 828.039 430.483 828.039 431.342 828.039 432.303 828.518 433.032 829.476 433.53 830.434 434.028 831.922 434.534 833.941 435.049 835.994 435.564 837.687 436.096 839.022 436.645 840.356 437.194 841.511 438.044 842.486 439.194 843.461 440.344 843.966 441.863 844 443.751L842.753 447.811 842.538 448.259 838.74 451.243C837.046 451.981 835.07 452.35 832.812 452.35 830.485 452.35 828.398 451.929 826.55 451.088 824.703 450.247 823.24 449.106 822.162 447.664 821.085 446.222 820.495 444.626 820.392 442.875L827.628 442.875C827.765 443.974 828.304 444.884 829.245 445.604 830.186 446.325 831.358 446.686 832.76 446.686 834.129 446.686 835.198 446.411 835.968 445.862 836.738 445.313 837.123 444.609 837.123 443.751 837.123 442.824 836.652 442.129 835.711 441.665 834.771 441.202 833.274 440.696 831.221 440.146 829.099 439.632 827.363 439.099 826.012 438.55 824.66 438.001 823.497 437.16 822.522 436.027 821.547 434.894 821.059 433.367 821.059 431.445 821.059 429.865 821.512 428.424 822.419 427.119 823.326 425.815 824.626 424.785 826.32 424.03 828.013 423.275 830.006 422.897 832.299 422.897ZM802.396 422.897C805.099 422.897 807.52 423.481 809.658 424.648 811.797 425.815 813.456 427.471 814.636 429.617 815.817 431.762 816.407 434.225 816.407 437.006 816.407 438.035 816.339 438.962 816.202 439.786L795.416 439.786C795.587 441.846 796.306 443.459 797.572 444.626 798.838 445.793 800.395 446.377 802.242 446.377 804.911 446.377 806.81 445.227 807.939 442.927L815.689 442.927C814.867 445.673 813.293 447.93 810.967 449.698 808.64 451.466 805.783 452.35 802.396 452.35 799.659 452.35 797.204 451.74 795.031 450.522 792.859 449.303 791.165 447.578 789.95 445.347 788.736 443.116 788.129 440.541 788.129 437.623 788.129 434.671 788.727 432.08 789.925 429.848 791.122 427.617 792.799 425.901 794.954 424.699 797.11 423.498 799.59 422.897 802.396 422.897ZM770.441 422.897C773.144 422.897 775.564 423.481 777.703 424.648 779.841 425.815 781.501 427.471 782.681 429.617 783.862 431.762 784.452 434.225 784.452 437.006 784.452 438.035 784.383 438.962 784.246 439.786L763.461 439.786C763.632 441.846 764.35 443.459 765.617 444.626 766.882 445.793 768.439 446.377 770.287 446.377 772.956 446.377 774.854 445.227 775.984 442.927L783.733 442.927C782.912 445.673 781.338 447.93 779.012 449.698 776.685 451.466 773.828 452.35 770.441 452.35 767.704 452.35 765.249 451.74 763.076 450.522 760.903 449.303 759.21 447.578 757.995 445.347 756.781 443.116 756.173 440.541 756.173 437.623 756.173 434.671 756.772 432.08 757.969 429.848 759.167 427.617 760.844 425.901 762.999 424.699 765.155 423.498 767.635 422.897 770.441 422.897ZM574.278 422.897C577.015 422.897 579.495 423.506 581.719 424.725 583.943 425.944 585.697 427.669 586.98 429.9 588.263 432.131 588.904 434.706 588.904 437.623 588.904 440.541 588.246 443.116 586.928 445.347 585.611 447.578 583.832 449.303 581.591 450.522 579.35 451.74 576.844 452.35 574.072 452.35 571.335 452.35 568.872 451.74 566.682 450.522 564.492 449.303 562.773 447.578 561.524 445.347 560.275 443.116 559.651 440.541 559.651 437.623 559.651 434.706 560.292 432.131 561.575 429.9 562.858 427.669 564.612 425.944 566.836 424.725 569.06 423.506 571.54 422.897 574.278 422.897ZM738.815 416.306 746.051 416.306 746.051 423.361 752.415 423.361 752.415 429.282 746.051 429.282 746.051 443.081C746.051 444.043 746.282 444.738 746.744 445.167 747.206 445.596 747.984 445.81 749.079 445.81L752.415 445.81 752.415 451.886 747.899 451.886C741.843 451.886 738.815 448.934 738.815 443.03L738.815 429.282 735.427 429.282 735.427 423.361 738.815 423.361ZM718.479 416.306 725.716 416.306 725.716 423.361 732.08 423.361 732.08 429.282 725.716 429.282 725.716 443.081C725.716 444.043 725.947 444.738 726.409 445.167 726.871 445.596 727.649 445.81 728.744 445.81L732.08 445.81 732.08 451.886 727.563 451.886C721.507 451.886 718.479 448.934 718.479 443.03L718.479 429.282 715.092 429.282 715.092 423.361 718.479 423.361ZM538.168 415.483C542.171 415.483 545.678 416.512 548.689 418.572 551.7 420.632 553.804 423.481 555.002 427.119L546.739 427.119C545.918 425.403 544.763 424.116 543.275 423.258 541.786 422.399 540.067 421.97 538.117 421.97 536.03 421.97 534.173 422.459 532.548 423.438 530.923 424.416 529.657 425.798 528.75 427.583 527.844 429.368 527.39 431.462 527.39 433.865 527.39 436.233 527.844 438.319 528.75 440.121 529.657 441.923 530.923 443.313 532.548 444.291 534.173 445.27 536.03 445.759 538.117 445.759 540.067 445.759 541.786 445.321 543.275 444.446 544.763 443.571 545.918 442.275 546.739 440.558L555.002 440.558C553.804 444.231 551.708 447.089 548.715 449.132 545.721 451.174 542.205 452.195 538.168 452.195 534.747 452.195 531.659 451.414 528.904 449.852 526.15 448.291 523.977 446.119 522.386 443.339 520.795 440.558 520 437.4 520 433.865 520 430.329 520.795 427.162 522.386 424.365 523.977 421.567 526.15 419.387 528.904 417.825 531.659 416.263 534.747 415.483 538.168 415.483ZM706.469 411.518C707.735 411.518 708.787 411.921 709.625 412.728 710.464 413.534 710.883 414.539 710.883 415.74 710.883 416.941 710.464 417.945 709.625 418.752 708.787 419.559 707.735 419.962 706.469 419.962 705.203 419.962 704.151 419.559 703.313 418.752 702.474 417.945 702.055 416.941 702.055 415.74 702.055 414.539 702.474 413.534 703.313 412.728 704.151 411.921 705.203 411.518 706.469 411.518ZM574.175 356.977C572.122 356.977 570.403 357.706 569.017 359.165 567.631 360.624 566.938 362.71 566.938 365.421 566.938 368.133 567.614 370.219 568.966 371.678 570.317 373.136 572.019 373.866 574.072 373.866 575.372 373.866 576.596 373.548 577.742 372.913 578.888 372.278 579.803 371.326 580.488 370.056 581.172 368.786 581.514 367.241 581.514 365.421 581.514 362.71 580.804 360.624 579.384 359.165 577.964 357.706 576.228 356.977 574.175 356.977ZM802.191 356.617C800.412 356.617 798.915 357.157 797.7 358.239 796.485 359.32 795.741 360.822 795.468 362.744L808.965 362.744C808.931 360.89 808.264 359.406 806.964 358.29 805.664 357.174 804.073 356.617 802.191 356.617ZM770.235 356.617C768.456 356.617 766.959 357.157 765.745 358.239 764.53 359.32 763.786 360.822 763.512 362.744L777.01 362.744C776.976 360.89 776.309 359.406 775.008 358.29 773.708 357.174 772.117 356.617 770.235 356.617ZM702.825 351.159 710.01 351.159 710.01 379.684 702.825 379.684ZM664.148 350.747C666.372 350.747 668.357 351.219 670.102 352.163 671.847 353.107 673.198 354.454 674.156 356.205 675.08 354.557 676.423 353.235 678.185 352.24 679.947 351.244 681.855 350.747 683.908 350.747 687.398 350.747 690.212 351.819 692.35 353.965 694.489 356.11 695.558 359.105 695.558 362.95L695.558 379.684 688.373 379.684 688.373 363.928C688.373 361.697 687.808 359.989 686.679 358.805 685.55 357.621 684.01 357.028 682.06 357.028 680.11 357.028 678.562 357.621 677.415 358.805 676.269 359.989 675.696 361.697 675.696 363.928L675.696 379.684 668.511 379.684 668.511 363.928C668.511 361.697 667.946 359.989 666.817 358.805 665.688 357.621 664.148 357.028 662.198 357.028 660.214 357.028 658.649 357.621 657.502 358.805 656.356 359.989 655.783 361.697 655.783 363.928L655.783 379.684 648.598 379.684 648.598 351.159 655.783 351.159 655.783 354.608C656.707 353.407 657.896 352.463 659.35 351.776 660.804 351.09 662.404 350.747 664.148 350.747ZM609.921 350.747C612.145 350.747 614.13 351.219 615.875 352.163 617.62 353.107 618.971 354.454 619.929 356.205 620.853 354.557 622.196 353.235 623.958 352.24 625.72 351.244 627.627 350.747 629.68 350.747 633.17 350.747 635.984 351.819 638.123 353.965 640.261 356.11 641.33 359.105 641.33 362.95L641.33 379.684 634.145 379.684 634.145 363.928C634.145 361.697 633.581 359.989 632.452 358.805 631.323 357.621 629.783 357.028 627.833 357.028 625.883 357.028 624.334 357.621 623.188 358.805 622.042 359.989 621.469 361.697 621.469 363.928L621.469 379.684 614.284 379.684 614.284 363.928C614.284 361.697 613.719 359.989 612.59 358.805 611.461 357.621 609.921 357.028 607.971 357.028 605.987 357.028 604.421 357.621 603.275 358.805 602.129 359.989 601.556 361.697 601.556 363.928L601.556 379.684 594.371 379.684 594.371 351.159 601.556 351.159 601.556 354.608C602.48 353.407 603.669 352.463 605.123 351.776 606.577 351.09 608.176 350.747 609.921 350.747ZM832.299 350.695C835.686 350.695 838.389 351.545 840.408 353.244 842.426 354.943 843.538 357.234 843.743 360.118L836.866 360.118C836.764 358.985 836.293 358.084 835.455 357.415 834.617 356.745 833.496 356.411 832.093 356.411 830.793 356.411 829.792 356.651 829.091 357.131 828.389 357.612 828.039 358.281 828.039 359.14 828.039 360.101 828.518 360.83 829.476 361.328 830.434 361.826 831.922 362.332 833.941 362.847 835.994 363.362 837.687 363.894 839.022 364.443 840.356 364.992 841.511 365.842 842.486 366.992 843.461 368.142 843.966 369.661 844 371.549 844 373.196 843.547 374.673 842.64 375.977 841.733 377.281 840.433 378.303 838.74 379.041 837.046 379.779 835.07 380.148 832.812 380.148 830.485 380.148 828.398 379.727 826.55 378.886 824.703 378.045 823.24 376.904 822.162 375.462 821.085 374.02 820.495 372.424 820.392 370.673L827.628 370.673C827.765 371.772 828.304 372.682 829.245 373.402 830.186 374.123 831.358 374.484 832.76 374.484 834.129 374.484 835.198 374.209 835.968 373.66 836.738 373.111 837.123 372.407 837.123 371.549 837.123 370.622 836.652 369.927 835.711 369.463 834.771 369 833.274 368.494 831.221 367.944 829.099 367.43 827.363 366.897 826.012 366.348 824.66 365.799 823.497 364.958 822.522 363.825 821.547 362.692 821.059 361.165 821.059 359.243 821.059 357.664 821.512 356.222 822.419 354.917 823.326 353.613 824.626 352.583 826.32 351.828 828.013 351.073 830.006 350.695 832.299 350.695ZM802.396 350.695C805.099 350.695 807.52 351.279 809.658 352.446 811.797 353.613 813.456 355.269 814.636 357.415 815.817 359.56 816.407 362.023 816.407 364.804 816.407 365.833 816.339 366.76 816.202 367.584L795.416 367.584C795.587 369.644 796.306 371.257 797.572 372.424 798.838 373.591 800.395 374.175 802.242 374.175 804.911 374.175 806.81 373.025 807.939 370.725L815.689 370.725C814.867 373.471 813.293 375.728 810.967 377.496 808.64 379.264 805.783 380.148 802.396 380.148 799.659 380.148 797.204 379.538 795.031 378.32 792.859 377.101 791.165 375.376 789.95 373.145 788.736 370.914 788.129 368.339 788.129 365.421 788.129 362.469 788.727 359.878 789.925 357.646 791.122 355.415 792.799 353.699 794.954 352.497 797.11 351.296 799.59 350.695 802.396 350.695ZM770.441 350.695C773.144 350.695 775.564 351.279 777.703 352.446 779.841 353.613 781.501 355.269 782.681 357.415 783.862 359.56 784.452 362.023 784.452 364.804 784.452 365.833 784.383 366.76 784.246 367.584L763.461 367.584C763.632 369.644 764.35 371.257 765.617 372.424 766.882 373.591 768.439 374.175 770.287 374.175 772.956 374.175 774.854 373.025 775.984 370.725L783.733 370.725C782.912 373.471 781.338 375.728 779.012 377.496 776.685 379.264 773.828 380.148 770.441 380.148 767.704 380.148 765.249 379.538 763.076 378.32 760.903 377.101 759.21 375.376 757.995 373.145 756.781 370.914 756.173 368.339 756.173 365.421 756.173 362.469 756.772 359.878 757.969 357.646 759.167 355.415 760.844 353.699 762.999 352.497 765.155 351.296 767.635 350.695 770.441 350.695ZM574.278 350.695C577.015 350.695 579.495 351.304 581.719 352.523 583.943 353.742 585.697 355.467 586.98 357.698 588.263 359.929 588.904 362.504 588.904 365.421 588.904 368.339 588.246 370.914 586.928 373.145 585.611 375.376 583.832 377.101 581.591 378.32 579.35 379.538 576.844 380.148 574.072 380.148 571.335 380.148 568.872 379.538 566.682 378.32 564.492 377.101 562.773 375.376 561.524 373.145 560.275 370.914 559.651 368.339 559.651 365.421 559.651 362.504 560.292 359.929 561.575 357.698 562.858 355.467 564.612 353.742 566.836 352.523 569.06 351.304 571.54 350.695 574.278 350.695ZM738.815 344.104 746.051 344.104 746.051 351.159 752.415 351.159 752.415 357.08 746.051 357.08 746.051 370.879C746.051 371.841 746.282 372.536 746.744 372.965 747.206 373.394 747.984 373.608 749.079 373.608L752.415 373.608 752.415 379.684 747.899 379.684C741.843 379.684 738.815 376.732 738.815 370.828L738.815 357.08 735.427 357.08 735.427 351.159 738.815 351.159ZM718.479 344.104 725.716 344.104 725.716 351.159 732.08 351.159 732.08 357.08 725.716 357.08 725.716 370.879C725.716 371.841 725.947 372.536 726.409 372.965 726.871 373.394 727.649 373.608 728.744 373.608L732.08 373.608 732.08 379.684 727.563 379.684C721.507 379.684 718.479 376.732 718.479 370.828L718.479 357.08 715.092 357.08 715.092 351.159 718.479 351.159ZM538.168 343.281C542.171 343.281 545.678 344.31 548.689 346.37 551.7 348.43 553.804 351.279 555.002 354.917L546.739 354.917C545.918 353.201 544.763 351.914 543.275 351.056 541.786 350.197 540.067 349.768 538.117 349.768 536.03 349.768 534.173 350.258 532.548 351.236 530.923 352.214 529.657 353.596 528.75 355.381 527.844 357.166 527.39 359.26 527.39 361.663 527.39 364.031 527.844 366.117 528.75 367.919 529.657 369.721 530.923 371.111 532.548 372.089 534.173 373.068 536.03 373.557 538.117 373.557 540.067 373.557 541.786 373.119 543.275 372.244 544.763 371.369 545.918 370.073 546.739 368.356L555.002 368.356C553.804 372.029 551.708 374.887 548.715 376.93 545.721 378.972 542.205 379.993 538.168 379.993 534.747 379.993 531.659 379.212 528.904 377.65 526.15 376.089 523.977 373.917 522.386 371.137 520.795 368.356 520 365.198 520 361.663 520 358.127 520.795 354.96 522.386 352.163 523.977 349.365 526.15 347.185 528.904 345.623 531.659 344.061 534.747 343.281 538.168 343.281ZM706.469 339.316C707.735 339.316 708.787 339.719 709.625 340.526 710.464 341.333 710.883 342.337 710.883 343.538 710.883 344.739 710.464 345.743 709.625 346.55 708.787 347.357 707.735 347.76 706.469 347.76 705.203 347.76 704.151 347.357 703.313 346.55 702.474 345.743 702.055 344.739 702.055 343.538 702.055 342.337 702.474 341.333 703.313 340.526 704.151 339.719 705.203 339.316 706.469 339.316ZM574.175 284.863C572.122 284.863 570.403 285.593 569.017 287.052 567.631 288.51 566.938 290.596 566.938 293.308 566.938 296.02 567.614 298.105 568.966 299.564 570.317 301.023 572.019 301.752 574.072 301.752 575.372 301.752 576.596 301.435 577.742 300.8 578.888 300.164 579.803 299.212 580.488 297.942 581.172 296.672 581.514 295.127 581.514 293.308 581.514 290.596 580.804 288.51 579.384 287.052 577.964 285.593 576.228 284.863 574.175 284.863ZM802.191 284.503C800.412 284.503 798.915 285.043 797.7 286.125 796.485 287.206 795.741 288.708 795.468 290.63L808.965 290.63C808.931 288.776 808.264 287.292 806.964 286.176 805.664 285.061 804.073 284.503 802.191 284.503ZM770.235 284.503C768.456 284.503 766.959 285.043 765.745 286.125 764.53 287.206 763.786 288.708 763.512 290.63L777.01 290.63C776.976 288.776 776.309 287.292 775.008 286.176 773.708 285.061 772.117 284.503 770.235 284.503ZM702.825 279.045 710.01 279.045 710.01 307.57 702.825 307.57ZM664.148 278.633C666.372 278.633 668.357 279.105 670.102 280.049 671.847 280.993 673.198 282.34 674.156 284.091 675.08 282.443 676.423 281.122 678.185 280.126 679.947 279.131 681.855 278.633 683.908 278.633 687.398 278.633 690.212 279.706 692.35 281.851 694.489 283.996 695.558 286.991 695.558 290.836L695.558 307.57 688.373 307.57 688.373 291.814C688.373 289.583 687.808 287.875 686.679 286.691 685.55 285.507 684.01 284.915 682.06 284.915 680.11 284.915 678.562 285.507 677.415 286.691 676.269 287.875 675.696 289.583 675.696 291.814L675.696 307.57 668.511 307.57 668.511 291.814C668.511 289.583 667.946 287.875 666.817 286.691 665.688 285.507 664.148 284.915 662.198 284.915 660.214 284.915 658.649 285.507 657.502 286.691 656.356 287.875 655.783 289.583 655.783 291.814L655.783 307.57 648.598 307.57 648.598 279.045 655.783 279.045 655.783 282.495C656.707 281.293 657.896 280.349 659.35 279.663 660.804 278.976 662.404 278.633 664.148 278.633ZM609.921 278.633C612.145 278.633 614.13 279.105 615.875 280.049 617.62 280.993 618.971 282.34 619.929 284.091 620.853 282.443 622.196 281.122 623.958 280.126 625.72 279.131 627.627 278.633 629.68 278.633 633.17 278.633 635.984 279.706 638.123 281.851 640.261 283.996 641.33 286.991 641.33 290.836L641.33 307.57 634.145 307.57 634.145 291.814C634.145 289.583 633.581 287.875 632.452 286.691 631.323 285.507 629.783 284.915 627.833 284.915 625.883 284.915 624.334 285.507 623.188 286.691 622.042 287.875 621.469 289.583 621.469 291.814L621.469 307.57 614.284 307.57 614.284 291.814C614.284 289.583 613.719 287.875 612.59 286.691 611.461 285.507 609.921 284.915 607.971 284.915 605.987 284.915 604.421 285.507 603.275 286.691 602.129 287.875 601.556 289.583 601.556 291.814L601.556 307.57 594.371 307.57 594.371 279.045 601.556 279.045 601.556 282.495C602.48 281.293 603.669 280.349 605.123 279.663 606.577 278.976 608.176 278.633 609.921 278.633ZM832.299 278.581C835.686 278.581 838.389 279.431 840.408 281.13 842.426 282.829 843.538 285.121 843.743 288.004L836.866 288.004C836.764 286.871 836.293 285.97 835.455 285.301 834.617 284.632 833.496 284.297 832.093 284.297 830.793 284.297 829.792 284.537 829.091 285.018 828.389 285.498 828.039 286.168 828.039 287.026 828.039 287.987 828.518 288.716 829.476 289.214 830.434 289.712 831.922 290.218 833.941 290.733 835.994 291.248 837.687 291.78 839.022 292.329 840.356 292.879 841.511 293.728 842.486 294.878 843.461 296.028 843.966 297.547 844 299.435 844 301.083 843.547 302.559 842.64 303.863 841.733 305.168 840.433 306.189 838.74 306.927 837.046 307.665 835.07 308.034 832.812 308.034 830.485 308.034 828.398 307.613 826.55 306.772 824.703 305.931 823.24 304.79 822.162 303.348 821.085 301.907 820.495 300.31 820.392 298.56L827.628 298.56C827.765 299.658 828.304 300.568 829.245 301.289 830.186 302.01 831.358 302.37 832.76 302.37 834.129 302.37 835.198 302.095 835.968 301.546 836.738 300.997 837.123 300.293 837.123 299.435 837.123 298.508 836.652 297.813 835.711 297.35 834.771 296.886 833.274 296.38 831.221 295.831 829.099 295.316 827.363 294.784 826.012 294.234 824.66 293.685 823.497 292.844 822.522 291.711 821.547 290.579 821.059 289.051 821.059 287.129 821.059 285.55 821.512 284.108 822.419 282.804 823.326 281.499 824.626 280.469 826.32 279.714 828.013 278.959 830.006 278.581 832.299 278.581ZM802.396 278.581C805.099 278.581 807.52 279.165 809.658 280.332 811.797 281.499 813.456 283.155 814.636 285.301 815.817 287.446 816.407 289.909 816.407 292.69 816.407 293.72 816.339 294.646 816.202 295.47L795.416 295.47C795.587 297.53 796.306 299.143 797.572 300.31 798.838 301.478 800.395 302.061 802.242 302.061 804.911 302.061 806.81 300.911 807.939 298.611L815.689 298.611C814.867 301.357 813.293 303.614 810.967 305.382 808.64 307.15 805.783 308.034 802.396 308.034 799.659 308.034 797.204 307.425 795.031 306.206 792.859 304.987 791.165 303.262 789.95 301.031 788.736 298.8 788.129 296.225 788.129 293.308 788.129 290.356 788.727 287.764 789.925 285.533 791.122 283.301 792.799 281.585 794.954 280.384 797.11 279.182 799.59 278.581 802.396 278.581ZM770.441 278.581C773.144 278.581 775.564 279.165 777.703 280.332 779.841 281.499 781.501 283.155 782.681 285.301 783.862 287.446 784.452 289.909 784.452 292.69 784.452 293.72 784.383 294.646 784.246 295.47L763.461 295.47C763.632 297.53 764.35 299.143 765.617 300.31 766.882 301.478 768.439 302.061 770.287 302.061 772.956 302.061 774.854 300.911 775.984 298.611L783.733 298.611C782.912 301.357 781.338 303.614 779.012 305.382 776.685 307.15 773.828 308.034 770.441 308.034 767.704 308.034 765.249 307.425 763.076 306.206 760.903 304.987 759.21 303.262 757.995 301.031 756.781 298.8 756.173 296.225 756.173 293.308 756.173 290.356 756.772 287.764 757.969 285.533 759.167 283.301 760.844 281.585 762.999 280.384 765.155 279.182 767.635 278.581 770.441 278.581ZM574.278 278.581C577.015 278.581 579.495 279.191 581.719 280.409 583.943 281.628 585.697 283.353 586.98 285.584 588.263 287.815 588.904 290.39 588.904 293.308 588.904 296.225 588.246 298.8 586.928 301.031 585.611 303.262 583.832 304.987 581.591 306.206 579.35 307.425 576.844 308.034 574.072 308.034 571.335 308.034 568.872 307.425 566.682 306.206 564.492 304.987 562.773 303.262 561.524 301.031 560.275 298.8 559.651 296.225 559.651 293.308 559.651 290.39 560.292 287.815 561.575 285.584 562.858 283.353 564.612 281.628 566.836 280.409 569.06 279.191 571.54 278.581 574.278 278.581ZM738.815 271.991 746.051 271.991 746.051 279.045 752.415 279.045 752.415 284.966 746.051 284.966 746.051 298.766C746.051 299.727 746.282 300.422 746.744 300.851 747.206 301.28 747.984 301.495 749.079 301.495L752.415 301.495 752.415 307.57 747.899 307.57C741.843 307.57 738.815 304.618 738.815 298.714L738.815 284.966 735.427 284.966 735.427 279.045 738.815 279.045ZM718.479 271.991 725.716 271.991 725.716 279.045 732.08 279.045 732.08 284.966 725.716 284.966 725.716 298.766C725.716 299.727 725.947 300.422 726.409 300.851 726.871 301.28 727.649 301.495 728.744 301.495L732.08 301.495 732.08 307.57 727.563 307.57C721.507 307.57 718.479 304.618 718.479 298.714L718.479 284.966 715.092 284.966 715.092 279.045 718.479 279.045ZM538.168 271.167C542.171 271.167 545.678 272.197 548.689 274.256 551.7 276.316 553.804 279.165 555.002 282.804L546.739 282.804C545.918 281.087 544.763 279.8 543.275 278.942 541.786 278.084 540.067 277.655 538.117 277.655 536.03 277.655 534.173 278.144 532.548 279.122 530.923 280.1 529.657 281.482 528.75 283.267 527.844 285.052 527.39 287.146 527.39 289.549 527.39 291.917 527.844 294.003 528.75 295.805 529.657 297.607 530.923 298.997 532.548 299.976 534.173 300.954 536.03 301.443 538.117 301.443 540.067 301.443 541.786 301.005 543.275 300.13 544.763 299.255 545.918 297.959 546.739 296.243L555.002 296.243C553.804 299.916 551.708 302.773 548.715 304.816 545.721 306.858 542.205 307.879 538.168 307.879 534.747 307.879 531.659 307.099 528.904 305.537 526.15 303.975 523.977 301.804 522.386 299.023 520.795 296.243 520 293.085 520 289.549 520 286.013 520.795 282.847 522.386 280.049 523.977 277.251 526.15 275.071 528.904 273.51 531.659 271.948 534.747 271.167 538.168 271.167ZM706.469 267.202C707.735 267.202 708.787 267.605 709.625 268.412 710.464 269.219 710.883 270.223 710.883 271.424 710.883 272.626 710.464 273.63 709.625 274.436 708.787 275.243 707.735 275.646 706.469 275.646 705.203 275.646 704.151 275.243 703.313 274.436 702.474 273.63 702.055 272.626 702.055 271.424 702.055 270.223 702.474 269.219 703.313 268.412 704.151 267.605 705.203 267.202 706.469 267.202ZM789.693 213.954 795.519 218.325 795.468 218.428 795.656 218.428 798.219 220.351 801.418 223.268 795.416 223.268C795.587 225.328 796.306 226.941 797.572 228.108 798.838 229.276 800.395 229.859 802.242 229.859 803.577 229.859 804.719 229.572 805.668 228.997L806.571 227.967 811.146 232.139 811.547 232.581 810.967 233.18C808.64 234.948 805.783 235.832 802.396 235.832 799.659 235.832 797.204 235.223 795.031 234.004 792.859 232.785 791.165 231.061 789.95 228.829 788.736 226.598 788.129 224.023 788.129 221.106 788.129 219.63 788.278 218.244 788.578 216.948ZM770.235 212.301C768.456 212.301 766.959 212.841 765.745 213.923 764.53 215.004 763.786 216.506 763.512 218.428L777.01 218.428C776.976 216.575 776.309 215.09 775.008 213.974 773.708 212.859 772.117 212.301 770.235 212.301ZM582.327 208.805 586.98 213.382C588.263 215.613 588.904 218.188 588.904 221.106 588.904 224.023 588.246 226.598 586.928 228.829 585.611 231.061 583.832 232.785 581.591 234.004 579.35 235.223 576.844 235.832 574.072 235.832 571.335 235.832 568.872 235.223 566.682 234.004 564.492 232.785 562.773 231.061 561.524 228.829L560.422 226.002 566.619 220.351 567.1 219.99 566.938 221.106C566.938 223.818 567.614 225.903 568.966 227.362 570.317 228.821 572.019 229.55 574.072 229.55 575.372 229.55 576.596 229.233 577.742 228.598 578.888 227.962 579.803 227.01 580.488 225.74 581.172 224.47 581.514 222.925 581.514 221.106 581.514 218.394 580.804 216.309 579.384 214.85 578.674 214.12 577.885 213.573 577.017 213.208L576.319 213.074 580.634 209.837ZM702.825 206.843 710.01 206.843 710.01 235.369 702.825 235.369ZM664.148 206.431C666.372 206.431 668.357 206.903 670.102 207.847 671.847 208.791 673.198 210.138 674.156 211.889 675.08 210.241 676.423 208.92 678.185 207.924 679.947 206.929 681.855 206.431 683.908 206.431 687.398 206.431 690.212 207.504 692.35 209.649 694.489 211.794 695.558 214.789 695.558 218.634L695.558 235.369 688.373 235.369 688.373 219.613C688.373 217.381 687.808 215.673 686.679 214.489 685.55 213.305 684.01 212.713 682.06 212.713 680.11 212.713 678.562 213.305 677.415 214.489 676.269 215.673 675.696 217.381 675.696 219.613L675.696 235.369 668.511 235.369 668.511 219.613C668.511 217.381 667.946 215.673 666.817 214.489 665.688 213.305 664.148 212.713 662.198 212.713 660.214 212.713 658.649 213.305 657.502 214.489 656.356 215.673 655.783 217.381 655.783 219.613L655.783 235.369 648.598 235.369 648.598 206.843 655.783 206.843 655.783 210.293C656.707 209.091 657.896 208.147 659.35 207.461 660.804 206.774 662.404 206.431 664.148 206.431ZM609.921 206.431C612.145 206.431 614.13 206.903 615.875 207.847 617.62 208.791 618.971 210.138 619.929 211.889 620.853 210.241 622.196 208.92 623.958 207.924 625.72 206.929 627.627 206.431 629.68 206.431 633.17 206.431 635.984 207.504 638.123 209.649 640.261 211.794 641.33 214.789 641.33 218.634L641.33 235.369 634.145 235.369 634.145 219.613C634.145 217.381 633.581 215.673 632.452 214.489 631.323 213.305 629.783 212.713 627.833 212.713 625.883 212.713 624.334 213.305 623.188 214.489 622.042 215.673 621.469 217.381 621.469 219.613L621.469 235.369 614.284 235.369 614.284 219.613C614.284 217.381 613.719 215.673 612.59 214.489 611.461 213.305 609.921 212.713 607.971 212.713 605.987 212.713 604.421 213.305 603.275 214.489 602.129 215.673 601.556 217.381 601.556 219.613L601.556 235.369 594.371 235.369 594.371 206.843 601.556 206.843 601.556 210.293C602.48 209.091 603.669 208.147 605.123 207.461 606.577 206.774 608.176 206.431 609.921 206.431ZM770.441 206.379C773.144 206.379 775.564 206.963 777.703 208.13 779.841 209.297 781.501 210.953 782.681 213.099 783.862 215.244 784.452 217.707 784.452 220.488 784.452 221.518 784.383 222.444 784.246 223.268L763.461 223.268C763.632 225.328 764.35 226.941 765.617 228.108 766.882 229.276 768.439 229.859 770.287 229.859 772.956 229.859 774.854 228.709 775.984 226.409L783.733 226.409C782.912 229.155 781.338 231.412 779.012 233.18 776.685 234.948 773.828 235.832 770.441 235.832 767.704 235.832 765.249 235.223 763.076 234.004 760.903 232.785 759.21 231.061 757.995 228.829 756.781 226.598 756.173 224.023 756.173 221.106 756.173 218.154 756.772 215.562 757.969 213.331 759.167 211.099 760.844 209.383 762.999 208.182 765.155 206.98 767.635 206.379 770.441 206.379ZM738.815 199.789 746.051 199.789 746.051 206.843 752.415 206.843 752.415 212.764 746.051 212.764 746.051 226.564C746.051 227.525 746.282 228.22 746.744 228.649 747.206 229.078 747.984 229.293 749.079 229.293L752.415 229.293 752.415 235.369 747.899 235.369C741.843 235.369 738.815 232.416 738.815 226.512L738.815 212.764 735.427 212.764 735.427 206.843 738.815 206.843ZM718.479 199.789 725.716 199.789 725.716 206.843 732.08 206.843 732.08 212.764 725.716 212.764 725.716 226.564C725.716 227.525 725.947 228.22 726.409 228.649 726.871 229.078 727.649 229.293 728.744 229.293L732.08 229.293 732.08 235.369 727.563 235.369C721.507 235.369 718.479 232.416 718.479 226.512L718.479 212.764 715.092 212.764 715.092 206.843 718.479 206.843ZM706.469 195C707.735 195 708.787 195.403 709.625 196.21 710.464 197.017 710.883 198.021 710.883 199.222 710.883 200.424 710.464 201.428 709.625 202.234 708.787 203.041 707.735 203.445 706.469 203.445 705.203 203.445 704.151 203.041 703.313 202.234 702.474 201.428 702.055 200.424 702.055 199.222 702.055 198.021 702.474 197.017 703.313 196.21 704.151 195.403 705.203 195 706.469 195Z" fill="#FEA300" fill-rule="evenodd"/><path d="M782.209 393.462C800.319 393.462 815 408.147 815 426.263L815 493.733 802.517 505.082C788.597 516.573 772.995 526.097 756.136 533.23L749.418 535.69 749.418 426.263C749.418 408.147 764.099 393.462 782.209 393.462ZM683 393.462C701.11 393.462 715.791 408.147 715.791 426.263L715.791 544.956 702.211 547.03C695.895 547.671 689.486 548 683 548 676.514 548 670.106 547.671 663.789 547.03L650.209 544.956 650.209 426.263C650.209 408.147 664.89 393.462 683 393.462ZM583.791 393.462C601.901 393.462 616.582 408.147 616.582 426.263L616.582 535.69 609.864 533.23C593.005 526.097 577.403 516.573 563.483 505.082L551 493.733 551 426.263C551 408.147 565.681 393.462 583.791 393.462ZM782.209 317C800.319 317 815 331.686 815 349.801 815 367.917 800.319 382.602 782.209 382.602 764.099 382.602 749.418 367.917 749.418 349.801 749.418 331.686 764.099 317 782.209 317ZM683 317C701.11 317 715.791 331.686 715.791 349.801 715.791 367.917 701.11 382.602 683 382.602 664.89 382.602 650.209 367.917 650.209 349.801 650.209 331.686 664.89 317 683 317ZM583.791 317C601.901 317 616.582 331.686 616.582 349.801 616.582 367.917 601.901 382.602 583.791 382.602 565.681 382.602 551 367.917 551 349.801 551 331.686 565.681 317 583.791 317Z" fill="#FFFFFF" fill-rule="evenodd"/></g></svg>