<svg width="507" height="507" xmlns="http://www.w3.org/2000/svg" xmlns:xlink="http://www.w3.org/1999/xlink" overflow="hidden"><defs><clipPath id="clip0"><rect x="842" y="114" width="507" height="507"/></clipPath></defs><g clip-path="url(#clip0)" transform="translate(-842 -114)"><path d="M843 368C843 228.272 956.048 115 1095.5 115 1234.95 115 1348 228.272 1348 368 1348 507.728 1234.95 621 1095.5 621 956.048 621 843 507.728 843 368Z" fill-rule="evenodd"/><path d="M1034.69 182.594C1034.23 182.594 1033.78 183.877 1033.78 185.342 1033.78 186.9 1034.23 188.091 1034.69 188.091 1035.24 188.091 1035.61 186.9 1035.61 185.342 1035.61 183.877 1035.24 182.594 1034.69 182.594ZM1053.18 171.854C1053.07 171.968 1053 172.197 1053 172.518 1053 173.159 1053.27 173.434 1053.64 173.159 1053.91 172.792 1053.91 172.243 1053.64 171.876 1053.46 171.739 1053.3 171.739 1053.18 171.854ZM1053.56 159.027C1055.41 159.246 1055.63 160.792 1054.46 164.09 1053.73 166.197 1053.46 168.121 1053.82 168.304 1054.83 168.945 1055.74 167.937 1055.74 166.014 1055.74 165.098 1056.66 163.724 1057.76 162.991 1060.23 161.25 1063.07 162.533 1063.07 165.464 1063.07 166.563 1063.89 168.029 1064.9 168.579 1066.54 169.678 1066.54 169.953 1065.35 173.525 1063.43 178.838 1063.52 178.93 1067.64 178.93 1071.58 178.93 1073.23 180.671 1071.49 182.869 1069.84 184.793 1067.73 191.938 1068.38 193.495 1068.65 194.32 1069.75 195.602 1070.76 196.427 1072.59 197.892 1072.59 198.076 1071.03 202.931 1069.11 209.16 1069.11 210.168 1070.94 207.511 1072.59 205.221 1075.7 204.855 1076.52 206.961 1077.16 208.702 1075.79 211.816 1071.58 218.137 1068.19 223.267 1067.92 226.29 1070.85 225.832 1075.79 225.008 1103.62 223.817 1124.85 223.359 1145.17 222.992 1165.22 221.71 1182.06 219.695 1188.93 218.779 1188.74 218.046 1188.93 244.153 1189.11 256.887 1188.93 268.887 1188.65 270.902 1188.38 273.467 1187.1 275.574 1184.26 278.505L1180.23 282.628 1180.17 288 1159.7 288 1159.74 287.748C1160.07 285.042 1160.31 281.139 1160.55 275.574 1161.19 260.642 1160.55 255.879 1157.99 255.879 1157.26 255.879 1155.06 257.07 1153.04 258.535 1151.03 260.001 1147.64 262.108 1145.63 263.116 1141.42 265.223 1124.49 271.452 1122.93 271.452 1122.29 271.452 1120.55 272.734 1118.9 274.2 1116.07 276.857 1115.97 277.131 1117.44 278.689 1119.36 280.796 1119.36 284.643 1117.44 286.2L1116.63 288 1082.43 288 1082.2 286.384C1081.28 281.345 1081.37 280.338 1082.65 278.872 1083.48 277.956 1084.12 276.857 1084.12 276.307 1084.12 275.024 1079.18 273.284 1075.79 273.284 1074.42 273.284 1073.14 273.009 1072.95 272.643 1072.86 272.185 1069.84 270.902 1066.27 269.711 1045.68 262.566 1035.42 256.154 1022.79 242.413 1012.54 231.237 1011.53 229.313 1014.37 226.29 1016.93 223.542 1016.93 219.237 1014.46 214.107 1012.36 209.984 1012.81 208.519 1016.57 207.053 1017.76 206.595 1018.21 205.404 1018.21 202.564 1018.21 198.442 1020.23 194.503 1022.24 194.503 1024.07 194.503 1026.45 197.618 1026.54 200.091 1026.64 201.832 1026.82 201.648 1027.37 199.175 1028.38 194.961 1027.64 189.19 1025.45 185.068 1023.52 181.22 1023.16 175.266 1024.81 173.617 1027.19 171.235 1029.29 172.426 1031.21 177.098 1032.22 179.663 1033.5 181.678 1033.96 181.678 1034.51 181.678 1034.6 180.946 1034.23 180.121 1033.96 179.205 1033.68 174.991 1033.68 170.777 1033.78 162.624 1035.06 159.693 1038.35 159.693 1040.27 159.693 1042.93 163.449 1042.93 166.105 1042.93 168.853 1045.4 168.304 1045.95 165.464 1046.68 161.983 1048.42 159.876 1051.17 159.235 1052.15 159.029 1052.95 158.954 1053.56 159.027Z" fill="#B4417E" fill-rule="evenodd"/><path d="M1092.61 510.99C1087.63 510.6 1082.75 511.541 1078.95 513.883 1062.36 524.354 1059.06 526.833 1059.06 528.762 1059.06 531.426 1060.25 531.793 1070.88 532.252 1076.2 532.528 1080.78 532.895 1081.05 533.171 1081.33 533.446 1083.16 533.263 1085.18 532.803 1087.19 532.436 1094.25 532.161 1100.76 532.252 1107.36 532.344 1115.97 532.528 1120.01 532.712 1124.04 532.895 1127.8 532.712 1128.44 532.252 1131.55 530.232 1124.86 524.445 1114.32 519.945 1111.67 518.843 1108.27 517.098 1106.9 516.088 1102.68 513.103 1097.6 511.381 1092.61 510.99ZM1065.7 505 1121.35 505 1121.47 506.897C1121.52 507.489 1121.59 507.936 1121.66 508.189 1122.39 510.393 1133.75 518.476 1143.19 523.619 1146.86 525.548 1150.25 527.936 1150.71 528.946 1151.26 529.864 1153.46 531.609 1155.57 532.62 1157.67 533.722 1160.42 535.375 1161.62 536.294 1163.36 537.671 1165.37 538.039 1171.33 538.039 1180.95 538.039 1181.69 538.773 1181.69 547.682 1181.69 551.264 1181.78 554.571 1181.87 555.03 1181.96 555.581 1182.05 557.051 1181.96 558.52L1181.87 561 1094.44 561 1007 561 1007.27 557.142C1007.46 554.938 1007.64 551.081 1007.64 548.417 1007.73 544.835 1008.28 542.998 1009.93 541.07 1011.95 538.682 1012.5 538.59 1020.56 538.498 1028.9 538.314 1029.09 538.314 1031.47 535.467 1032.75 533.906 1035.41 531.977 1037.34 531.15 1039.17 530.415 1041.55 529.038 1042.47 528.119 1043.39 527.293 1046.41 524.721 1049.34 522.425 1052.18 520.129 1056.95 516.271 1059.88 513.883L1065.29 509.383Z" fill="#06D6A0" fill-rule="evenodd"/><path d="M1093.15 471.431C1091.4 471.431 1090.76 472.164 1089.85 475.096 1089.2 477.113 1087.92 480.778 1086.82 483.161 1084.9 487.56 1084.35 492.051 1085.54 493.242 1086.27 494.067 1091.13 494.067 1094.98 493.242L1098 492.692 1097.36 485.269C1096.35 473.447 1095.71 471.431 1093.15 471.431ZM1121.2 470.116C1119.65 470.073 1116.31 470.262 1112.67 470.606 1103.78 471.431 1103.69 471.431 1103.41 473.997 1103.14 476.105 1103.59 476.746 1106.16 477.846 1110.38 479.679 1115.05 479.495 1118.44 477.479 1121.1 475.921 1123.3 471.431 1122.11 470.239 1122.04 470.171 1121.72 470.131 1121.2 470.116ZM1066.56 451.269C1066.1 451.544 1065.65 452.644 1065.65 453.652 1065.65 454.568 1066.1 455.393 1066.56 455.393 1067.11 455.393 1067.48 454.293 1067.48 453.01 1067.48 451.727 1067.11 450.902 1066.56 451.269ZM1077.75 444.464C1076.54 443.88 1075 447.626 1073.35 455.393 1071.51 463.824 1069.4 477.754 1069.95 478.579 1070.69 479.862 1080.13 479.312 1081.6 477.754 1083.61 475.83 1083.43 473.447 1081.23 472.072 1079.58 471.064 1079.4 469.965 1079.4 459.7 1079.4 453.56 1079.12 447.603 1078.85 446.504 1078.52 445.335 1078.16 444.659 1077.75 444.464ZM1108.99 430.729C1106.55 431.039 1105.06 432.436 1105.06 434.865 1105.06 437.431 1106.53 438.622 1111.02 439.355 1118.81 440.638 1122.48 443.479 1122.48 448.336 1122.48 452.827 1114.69 456.859 1103.59 458.142 1096.45 458.875 1095.16 458.784 1091.5 457.226 1088.38 455.851 1087.1 455.668 1086.18 456.401 1084.35 457.867 1084.62 461.533 1086.55 462.633 1087.37 463.183 1093.51 463.549 1100.02 463.549 1109.37 463.549 1112.85 463.183 1116.06 461.9 1118.99 460.708 1121.01 458.967 1123.12 455.851 1125.69 452.186 1126.14 450.719 1126.14 446.045 1126.14 438.805 1124.59 436.148 1118.63 433.124 1114.82 431.199 1111.43 430.42 1108.99 430.729ZM1096.52 416.978C1094.88 417.447 1094.11 420.866 1093.7 428.358 1093.51 433.398 1092.96 440.363 1092.6 443.754 1092.05 448.703 1092.23 450.261 1093.24 450.902 1094.8 451.91 1095.99 451.91 1097.36 450.994 1097.91 450.627 1098.74 445.404 1099.1 438.897 1100.3 420.66 1100.2 418.644 1098.46 417.452 1097.71 416.994 1097.06 416.822 1096.52 416.978ZM1070.32 413.237C1067.02 413.237 1065.1 428.999 1068.03 431.932 1070.23 434.223 1073.07 435.506 1077.1 436.239 1084.44 437.431 1085.81 437.247 1086.73 434.681 1088.29 430.741 1086.45 429.366 1080.5 430.099 1075.73 430.649 1075.45 430.557 1072.34 427.442 1068.95 424.051 1068.95 424.051 1070.78 415.803 1071.15 414.153 1070.96 413.237 1070.32 413.237ZM1106.06 406.555C1103.93 406.438 1101.85 406.455 1100.02 406.638 1094.43 407.188 1093.6 407.555 1093.6 409.113 1093.6 410.671 1094.34 411.037 1097.73 411.22 1100.02 411.404 1105.79 412.87 1110.56 414.611 1115.33 416.261 1120.28 417.636 1121.56 417.544 1123.49 417.361 1123.85 416.994 1123.67 414.611 1123.58 413.145 1122.66 411.22 1121.65 410.396 1119.32 408.471 1112.44 406.907 1106.06 406.555ZM1084.17 398.745C1083.31 398.665 1082.24 398.665 1081.14 398.757L1077.1 399.032 1077.29 403.156C1077.38 405.447 1077.65 409.754 1077.93 412.778 1079.12 423.959 1080.04 424.967 1082.88 417.636 1084.99 411.862 1086.91 400.223 1085.9 399.215 1085.67 398.986 1085.03 398.826 1084.17 398.745ZM1065.94 395 1095.89 395 1096.35 396.557C1097 398.39 1101.21 397.84 1103.23 395.641L1103.58 395 1125.85 395 1125.88 395.091C1126.28 396.214 1126.83 397.566 1127.43 398.849 1133.84 412.595 1136.69 427.991 1135.86 444.762 1135.13 459.609 1135.04 460.617 1134.21 461.442 1133.75 461.808 1133.48 463 1133.48 464.008 1133.48 466.299 1127.7 480.687 1124.22 487.102 1122.11 490.859 1121.65 492.967 1121.47 499.016L1121.51 504 1065.96 504 1066.1 502.498C1066.75 495.991 1066.56 495.167 1063.35 486.735 1061.52 481.878 1059.6 477.021 1059.14 476.013 1055.84 468.773 1054 445.954 1055.56 431.565 1056.54 422.401 1059.98 409.836 1063.82 400.023Z" fill="#FFBC42" fill-rule="evenodd"/><path d="M1047.57 307.006C1047.28 307.258 1048.15 308.312 1050.21 310.099 1051.95 311.657 1053.6 314.131 1053.88 315.598 1054.24 317.156 1055.34 318.805 1056.53 319.447 1057.72 319.997 1059.56 321.371 1060.66 322.379 1062.31 323.846 1062.49 324.487 1061.66 326.045 1060.84 327.695 1061.02 328.245 1062.76 329.344 1063.86 330.169 1066.43 332.369 1068.44 334.293 1072.2 337.776 1076.78 338.875 1077.7 336.584 1078.07 335.759 1078.43 335.759 1078.98 336.309 1079.35 336.859 1081.55 337.867 1083.84 338.692 1089.79 340.8 1089.43 342.908 1082.74 345.29 1078.52 346.848 1077.33 347.673 1076.6 349.873 1075.96 351.614 1075.96 353.08 1076.51 354.271 1077.06 355.188 1077.24 356.929 1076.97 358.121 1076.42 360.228 1076.6 360.412 1083.1 360.962 1086.77 361.328 1091.17 362.336 1093 363.161 1094.74 363.986 1097.49 364.902 1098.96 365.269 1100.51 365.544 1101.98 365.91 1102.25 366.002 1102.53 366.002 1105.64 364.719 1109.13 362.978 1113.34 360.962 1117.56 357.846 1121.5 353.905 1125.07 350.331 1128.64 347.673 1130.2 347.307 1135.24 346.298 1139.82 344.649 1140.37 343.824 1141.38 342.266 1138.26 340.342 1133.68 339.883 1130.75 339.517 1126.63 339.883 1122.5 340.8 1115.91 342.266 1107.48 342.633 1104.73 341.533 1102.99 340.8 1098.13 336.951 1092.18 331.635 1089.88 329.528 1087.04 327.511 1085.94 327.236 1084.85 326.87 1083.1 325.587 1082.1 324.304 1081.18 323.112 1079.99 322.104 1079.62 322.104 1079.16 322.104 1076.97 320.821 1074.77 319.355 1072.57 317.797 1070 316.606 1068.99 316.606 1068.08 316.606 1067.35 316.239 1067.35 315.781 1067.35 315.414 1064.78 314.131 1061.66 312.94 1058.46 311.84 1054.06 309.916 1051.86 308.724 1049.3 307.304 1047.85 306.754 1047.57 307.006ZM1157.63 305.608C1156.91 305.631 1156.08 305.975 1155.67 306.617 1155.3 307.258 1153.47 307.441 1151.09 307.166 1148.34 306.891 1146.78 307.166 1146.33 307.9 1145.32 309.732 1139.45 312.94 1137.25 312.94 1136.06 312.94 1134.23 313.856 1133.22 314.865 1131.21 316.881 1121.59 320.73 1120.76 319.905 1120.49 319.63 1119.39 319.997 1118.29 320.73 1117.28 321.463 1115.54 322.104 1114.53 322.104 1113.52 322.104 1111.14 322.929 1109.22 323.937 1107.39 324.945 1104.82 325.77 1103.54 325.77 1102.16 325.77 1099.87 326.412 1098.41 327.236 1095.75 328.52 1095.66 328.794 1097.03 330.261 1097.86 331.177 1100.7 332.827 1103.35 334.11 1105.92 335.301 1108.3 336.584 1108.39 337.042 1109.03 338.417 1110.59 337.592 1114.62 333.835 1119.39 329.344 1133.22 321.463 1137.9 320.638 1142.02 319.813 1148.16 317.247 1150.81 315.048 1154.75 311.84 1158.97 307.533 1158.97 306.525 1158.97 305.883 1158.35 305.586 1157.63 305.608ZM1163.09 299.193C1161.63 299.193 1159.7 301.484 1160.53 302.218 1161.72 303.409 1163.37 302.859 1163.83 301.026 1164.1 299.927 1163.83 299.193 1163.09 299.193ZM1081.97 287 1116.94 287 1116.08 288.901C1115.64 292.217 1117.1 297.75 1119.85 301.943 1121.4 304.417 1123.24 306.433 1123.79 306.433 1124.34 306.525 1126.81 305.517 1129.19 304.234 1131.57 302.951 1136.25 301.21 1139.45 300.476 1142.75 299.743 1146.88 298.277 1148.71 297.36 1150.54 296.352 1152.83 295.528 1153.66 295.528 1154.57 295.528 1155.3 295.161 1155.3 294.611 1155.3 294.153 1155.95 293.695 1156.68 293.695 1158.17 293.695 1158.98 292.513 1159.53 288.003L1159.63 287 1180 287 1179.95 291.678C1179.95 296.627 1179.77 308.449 1179.58 317.98 1179.4 327.603 1179.22 338.875 1179.13 343.183L1179.13 350.972 1175.83 353.813 1172.44 356.654 1172.35 368.293 1172.25 379.932 1167.86 384.056C1164.56 387.263 1162.91 388.18 1160.99 387.905L1158.51 387.63 1158.6 375.258C1158.6 368.476 1158.97 352.072 1159.43 338.784 1159.98 320.363 1159.89 314.773 1159.06 314.773 1158.42 314.773 1156.68 315.964 1155.03 317.522 1151.82 320.455 1145.32 323.937 1142.75 323.937 1141.84 323.937 1138.81 325.22 1136.06 326.595 1133.31 328.061 1129.19 330.261 1126.9 331.361L1122.78 333.468 1131.94 334.11C1141.56 334.751 1144.31 335.393 1144.31 337.134 1144.4 337.684 1146.05 339.334 1148.07 340.708 1150.27 342.266 1151.64 343.824 1151.46 344.741 1151.18 346.207 1145.87 348.406 1136.06 351.156 1130.93 352.622 1126.08 355.646 1122.59 359.679 1120.85 361.695 1120.58 363.069 1120.58 370.218 1120.49 381.215 1121.86 390.013 1123.6 391.021 1124.43 391.479 1125.07 392.487 1125.07 393.22 1125.07 393.587 1125.32 394.48 1125.72 395.603L1125.88 396 1103.16 396 1105.75 391.227C1106.15 389.6 1106.01 388.18 1105.19 387.538 1103.63 386.255 1093.46 386.439 1093.46 387.63 1093.46 388.18 1094.01 390.196 1094.65 392.212 1095.02 393.22 1095.36 394.274 1095.63 395.156L1095.89 396 1065.6 396 1066.01 395.026C1067.57 391.64 1069.13 388.89 1070.55 387.172 1072.48 384.881 1075.13 369.21 1074.13 366.277 1073.3 363.986 1072.84 363.803 1067.99 363.711 1060.75 363.711 1058.09 361.603 1056.44 354.73 1055.34 350.056 1055.34 349.048 1056.63 346.39 1057.63 344.282 1058.92 343.183 1060.84 342.724 1064.05 342.083 1064.78 338.967 1062.03 337.959 1061.21 337.592 1059.92 336.768 1059.28 336.126 1058.64 335.484 1057.54 334.935 1056.99 334.935 1056.35 334.935 1054.79 333.926 1053.42 332.644 1049.94 329.436 1040.77 317.797 1040.77 316.697 1040.77 316.147 1039.31 313.673 1037.48 311.107 1032.07 303.592 1031.61 299.01 1035.83 294.886 1037.2 293.511 1041.69 293.328 1041.69 294.611 1041.69 295.069 1043.61 296.536 1046.09 297.91 1048.47 299.285 1051.4 301.301 1052.69 302.401 1055.34 304.784 1061.57 307.625 1067.35 309.183 1069.64 309.824 1072.84 311.199 1074.58 312.115 1079.16 314.773 1080.36 312.757 1078.71 304.784 1078.25 302.218 1078.52 301.393 1080.54 299.56 1082.53 297.635 1083.13 296.175 1082.69 291.931Z" fill="#F3712B" fill-rule="evenodd"/></g></svg>