<svg width="168" height="168" xmlns="http://www.w3.org/2000/svg" xmlns:xlink="http://www.w3.org/1999/xlink" overflow="hidden"><defs><clipPath id="clip0"><rect x="556" y="276" width="168" height="168"/></clipPath></defs><g clip-path="url(#clip0)" transform="translate(-556 -276)"><path d="M556 360C556 313.608 593.608 276 640 276 686.392 276 724 313.608 724 360 724 406.392 686.392 444 640 444 593.608 444 556 406.392 556 360Z" fill-rule="evenodd"/><path d="M637 394.429C639.8 394.429 640.499 396.637 641.6 409.588L642.3 417.72 639 418.322C634.799 419.226 629.5 419.226 628.7 418.322 627.4 417.017 627.999 412.098 630.099 407.279 631.3 404.669 632.699 400.654 633.4 398.445 634.4 395.233 635.1 394.429 637 394.429ZM667.609 392.989C668.175 393.005 668.525 393.049 668.599 393.124 669.9 394.429 667.5 399.349 664.6 401.055 660.9 403.264 655.8 403.465 651.2 401.456 648.4 400.252 647.9 399.549 648.2 397.24 648.5 394.429 648.6 394.429 658.3 393.526 662.275 393.15 665.912 392.942 667.609 392.989ZM608 372.343C608.6 371.942 609 372.845 609 374.251 609 375.656 608.6 376.86 608 376.86 607.5 376.86 607 375.957 607 374.954 607 373.85 607.5 372.645 608 372.343ZM620.209 364.889C620.65 365.103 621.05 365.843 621.4 367.123 621.699 368.328 622 374.853 622 381.579 622 392.823 622.2 394.028 624 395.132 626.399 396.637 626.6 399.248 624.399 401.356 622.799 403.062 612.5 403.665 611.7 402.26 611.1 401.356 613.399 386.096 615.4 376.86 617.2 368.353 618.887 364.249 620.209 364.889ZM654.287 349.843C656.95 349.505 660.65 350.358 664.8 352.466 671.3 355.779 673 358.691 673 366.621 673 371.741 672.5 373.347 669.7 377.363 667.4 380.777 665.2 382.683 662 383.989 658.5 385.394 654.7 385.796 644.5 385.796 637.399 385.796 630.7 385.394 629.8 384.792 627.7 383.587 627.4 379.572 629.4 377.966 630.4 377.162 631.8 377.363 635.2 378.869 639.2 380.575 640.6 380.676 648.4 379.872 660.5 378.467 669 374.05 669 369.131 669 363.81 665 360.698 656.5 359.293 651.6 358.49 650 357.184 650 354.373 650 351.713 651.625 350.182 654.287 349.843ZM640.679 334.78C641.275 334.609 641.975 334.797 642.8 335.299 644.699 336.605 644.8 338.813 643.5 358.79 643.099 365.918 642.2 371.64 641.6 372.042 640.1 373.046 638.8 373.046 637.1 371.942 636 371.239 635.799 369.532 636.4 364.111 636.799 360.397 637.399 352.767 637.6 347.245 638.05 339.039 638.893 335.293 640.679 334.78ZM612.1 330.682C612.799 330.682 613 331.685 612.6 333.492 610.6 342.527 610.6 342.527 614.3 346.242 617.7 349.655 618 349.756 623.2 349.153 629.7 348.35 631.699 349.856 630 354.172 628.999 356.983 627.499 357.184 619.5 355.879 615.1 355.076 612 353.67 609.6 351.16 606.4 347.948 608.5 330.682 612.1 330.682ZM651.084 323.362C658.05 323.748 665.55 325.461 668.101 327.569 669.2 328.472 670.2 330.581 670.3 332.187 670.5 334.798 670.1 335.199 668 335.4 666.6 335.5 661.2 333.994 656 332.187 650.8 330.279 644.5 328.673 642 328.472 638.3 328.272 637.5 327.87 637.5 326.163 637.5 324.457 638.399 324.055 644.5 323.453 646.5 323.252 648.762 323.233 651.084 323.362ZM627.212 314.807C628.15 314.895 628.85 315.071 629.099 315.321 630.2 316.426 628.1 329.175 625.8 335.5 622.7 343.532 621.699 342.426 620.4 330.18 620.1 326.866 619.8 322.148 619.699 319.639L619.5 315.12 623.899 314.82C625.1 314.719 626.275 314.719 627.212 314.807ZM643.262 301.003C646.25 300.965 649.45 301.267 650.3 301.97 652.1 303.375 650.899 308.193 648 311.406 645.8 313.816 641.2 314.418 640.499 312.41 640.3 311.707 639.6 309.298 638.8 307.089 638.1 304.881 637.5 302.672 637.5 302.07 637.5 301.417 640.275 301.041 643.262 301.003Z" stroke="#FFFFFF" stroke-width="4" stroke-miterlimit="8" fill="#FFFFFF" fill-rule="evenodd"/></g></svg>
