<svg width="378" height="377" xmlns="http://www.w3.org/2000/svg" xmlns:xlink="http://www.w3.org/1999/xlink" overflow="hidden"><defs><clipPath id="clip0"><rect x="492" y="172" width="378" height="377"/></clipPath></defs><g clip-path="url(#clip0)" transform="translate(-492 -172)"><path d="M493 360C493 256.17 577.17 172 681 172 784.83 172 869 256.17 869 360 869 463.83 784.83 548 681 548 577.17 548 493 463.83 493 360Z" fill="#5E7CE2" fill-rule="evenodd"/><path d="M681 172C765.341 172 836.708 227.602 860.505 304.18L862 310 500 310 501.495 304.18C525.292 227.602 596.659 172 681 172Z" fill="#4065DC" fill-rule="evenodd"/><path d="M777.653 435.931 853.149 435.931 846.309 450.152C831.839 476.831 811.117 499.615 786.113 516.534L777.653 521.68ZM602.836 435.931 759.164 435.931 759.164 524 602.836 524ZM508.85 435.931 584.347 435.931 584.347 521.681 575.887 516.534C550.883 499.615 530.161 476.831 515.691 450.152ZM777.653 326 865.72 326 868.029 341.152C868.671 347.482 869 353.904 869 360.404 869 373.402 867.685 386.093 865.181 398.35L861.145 414.069 777.653 414.069ZM602.836 326 759.164 326 759.164 414.069 602.836 414.069ZM496.28 326 584.347 326 584.347 414.069 500.855 414.069 496.82 398.35C494.315 386.093 493 373.402 493 360.404 493 353.904 493.329 347.482 493.971 341.152Z" fill="#4065DC" fill-rule="evenodd"/><path d="M659 357C659 344.85 668.85 335 681 335 693.15 335 703 344.85 703 357 703 369.15 693.15 379 681 379 668.85 379 659 369.15 659 357Z" fill="#FFFFFF" fill-rule="evenodd"/><path d="M681 382C696.973 382 710.299 393.147 713.382 407.965L714 414 648 414 648.618 407.965C651.7 393.147 665.027 382 681 382Z" fill="#FFFFFF" fill-rule="evenodd"/><path d="M659 467C659 454.85 668.85 445 681 445 693.15 445 703 454.85 703 467 703 479.15 693.15 489 681 489 668.85 489 659 479.15 659 467Z" fill="#FFFFFF" fill-rule="evenodd"/><path d="M681 492C696.973 492 710.299 503.147 713.382 517.965L714 524 648 524 648.618 517.965C651.7 503.147 665.027 492 681 492Z" fill="#FFFFFF" fill-rule="evenodd"/></g></svg>