<svg width="342" height="342" xmlns="http://www.w3.org/2000/svg" xmlns:xlink="http://www.w3.org/1999/xlink" overflow="hidden"><defs><clipPath id="clip0"><rect x="469" y="189" width="342" height="342"/></clipPath></defs><g clip-path="url(#clip0)" transform="translate(-469 -189)"><path d="M470 360C470 266.112 546.112 190 640 190 733.888 190 810 266.112 810 360 810 453.888 733.888 530 640 530 546.112 530 470 453.888 470 360Z" fill="#5E7CE2" fill-rule="evenodd"/><path d="M760.307 239.891C826.559 306.252 826.565 413.728 760.32 480.097L640 360Z" fill="#4065DC" fill-rule="evenodd"/><path d="M519.693 480.109C453.441 413.748 453.435 306.272 519.68 239.903L640 360Z" fill="#4065DC" fill-rule="evenodd"/><path d="M707.675 365 707 346.333 724.561 325.667 740.096 321 753.605 321 766.439 329.667 779.272 342.333 784 360.333 754.281 363.667 743.474 344.333 731.991 349.667 729.965 363.667 707.675 365Z" fill="#4065DC" fill-rule="evenodd"/><path d="M746.318 402.903C746.348 402.908 746.369 402.922 746.338 402.953 746.33 402.961 746.181 402.969 746.244 402.906 746.248 402.902 746.287 402.898 746.318 402.903ZM743.497 402.903C743.528 402.908 743.549 402.922 743.518 402.953 743.51 402.961 743.361 402.969 743.424 402.906 743.428 402.902 743.467 402.898 743.497 402.903ZM746.855 402.859C747.06 402.894 747.102 402.903 747.278 403 747.073 402.965 747.031 402.956 746.855 402.859ZM743.612 402.859C743.93 402.866 744.169 402.877 744.458 403 744.14 402.993 743.901 402.982 743.612 402.859ZM742.907 402.859C743.112 402.894 743.154 402.903 743.33 403 743.125 402.965 743.083 402.956 742.907 402.859ZM742.484 402.859C742.688 402.894 742.731 402.903 742.907 403 742.702 402.965 742.66 402.956 742.484 402.859ZM741.523 402.762C741.553 402.767 741.575 402.781 741.544 402.812 741.536 402.82 741.387 402.828 741.45 402.765 741.454 402.761 741.493 402.757 741.523 402.762ZM742.061 402.718C742.419 402.721 742.719 402.72 743.048 402.859 742.689 402.856 742.389 402.857 742.061 402.718ZM741.638 402.718C741.842 402.753 741.885 402.762 742.061 402.859 741.856 402.824 741.814 402.815 741.638 402.718ZM740.933 402.718C741.137 402.753 741.18 402.762 741.356 402.859 741.151 402.824 741.109 402.815 740.933 402.718ZM747.869 402.621C747.899 402.626 747.921 402.64 747.889 402.671 747.881 402.679 747.733 402.687 747.795 402.624 747.799 402.62 747.838 402.616 747.869 402.621ZM740.818 402.621C740.848 402.626 740.87 402.64 740.839 402.671 740.831 402.679 740.682 402.687 740.745 402.624 740.749 402.62 740.788 402.616 740.818 402.621ZM740.536 402.621C740.566 402.626 740.588 402.64 740.557 402.671 740.549 402.679 740.4 402.687 740.463 402.624 740.466 402.62 740.506 402.616 740.536 402.621ZM739.831 402.621C739.861 402.626 739.883 402.64 739.851 402.671 739.844 402.679 739.695 402.687 739.758 402.624 739.761 402.62 739.801 402.616 739.831 402.621ZM740.933 402.577C741.137 402.612 741.18 402.621 741.356 402.718 741.151 402.683 741.109 402.674 740.933 402.577ZM739.945 402.577C740.15 402.612 740.193 402.621 740.369 402.718 740.164 402.683 740.122 402.674 739.945 402.577ZM748.574 402.48C748.604 402.485 748.626 402.499 748.594 402.53 748.587 402.538 748.438 402.546 748.5 402.483 748.504 402.479 748.543 402.475 748.574 402.48ZM739.972 402.48C740.002 402.485 740.024 402.499 739.992 402.53 739.985 402.538 739.836 402.546 739.899 402.483 739.902 402.479 739.942 402.475 739.972 402.48ZM739.69 402.48C739.72 402.485 739.742 402.499 739.71 402.53 739.703 402.538 739.554 402.546 739.617 402.483 739.62 402.479 739.66 402.475 739.69 402.48ZM739.099 402.436C739.304 402.471 739.346 402.48 739.522 402.577 739.318 402.542 739.275 402.533 739.099 402.436ZM738.676 402.436C738.881 402.471 738.923 402.48 739.099 402.577 738.895 402.542 738.852 402.533 738.676 402.436ZM738.844 402.339C738.874 402.344 738.896 402.358 738.864 402.389 738.857 402.397 738.708 402.405 738.77 402.342 738.774 402.338 738.813 402.334 738.844 402.339ZM738.253 402.295C738.458 402.33 738.5 402.339 738.676 402.436 738.472 402.401 738.429 402.392 738.253 402.295ZM737.83 402.295C738.035 402.33 738.077 402.339 738.253 402.436 738.049 402.401 738.006 402.392 737.83 402.295ZM738.139 402.198C738.169 402.203 738.191 402.217 738.159 402.248 738.152 402.256 738.003 402.264 738.065 402.201 738.069 402.197 738.108 402.193 738.139 402.198ZM737.548 402.154C737.753 402.189 737.795 402.198 737.971 402.295 737.767 402.26 737.724 402.251 737.548 402.154ZM736.561 401.872C736.766 401.908 736.808 401.917 736.984 402.013 736.779 401.978 736.737 401.969 736.561 401.872ZM735.883 401.775C735.913 401.78 735.934 401.794 735.903 401.825 735.895 401.833 735.746 401.841 735.809 401.778 735.813 401.774 735.852 401.77 735.883 401.775ZM735.601 401.775C735.631 401.78 735.652 401.794 735.621 401.825 735.613 401.833 735.464 401.841 735.527 401.778 735.531 401.774 735.57 401.77 735.601 401.775ZM735.292 401.59C735.497 401.626 735.539 401.635 735.715 401.731 735.51 401.696 735.468 401.687 735.292 401.59ZM734.869 401.59C735.074 401.626 735.116 401.635 735.292 401.731 735.087 401.696 735.045 401.687 734.869 401.59ZM734.305 401.449C734.51 401.485 734.552 401.494 734.728 401.59 734.523 401.555 734.481 401.546 734.305 401.449ZM733.741 401.308C733.946 401.344 733.988 401.353 734.164 401.449 733.959 401.414 733.917 401.405 733.741 401.308ZM732.921 400.929C732.952 400.934 732.973 400.948 732.942 400.979 732.934 400.987 732.785 400.995 732.848 400.932 732.852 400.928 732.891 400.924 732.921 400.929ZM732.19 400.744C732.395 400.78 732.437 400.789 732.613 400.885 732.408 400.85 732.366 400.841 732.19 400.744ZM731.793 400.647C731.823 400.652 731.845 400.666 731.814 400.697 731.806 400.705 731.657 400.713 731.72 400.65 731.724 400.646 731.763 400.642 731.793 400.647ZM728.55 399.237C728.58 399.242 728.602 399.256 728.57 399.287 728.563 399.295 728.414 399.303 728.476 399.24 728.48 399.236 728.52 399.233 728.55 399.237ZM753.06 396.797C753.16 397.045 753.16 397.112 753.06 397.361ZM753.107 396.609C753.169 396.546 753.162 396.695 753.154 396.703 753.091 396.765 753.099 396.616 753.107 396.609ZM753.201 395.387C753.35 395.744 753.35 396.016 753.201 396.374ZM753.06 394.541C753.158 394.76 753.158 394.745 753.06 394.964ZM752.684 393.225C752.746 393.162 752.739 393.311 752.731 393.319 752.668 393.382 752.676 393.233 752.684 393.225ZM749.863 388.432C749.926 388.369 749.918 388.518 749.911 388.526 749.848 388.588 749.856 388.439 749.863 388.432ZM749.722 388.009C749.785 387.946 749.777 388.095 749.769 388.103 749.707 388.165 749.715 388.016 749.722 388.009ZM749.44 387.022C749.503 386.959 749.495 387.108 749.487 387.116 749.425 387.178 749.433 387.03 749.44 387.022ZM749.44 385.753C749.503 385.69 749.495 385.839 749.487 385.847 749.425 385.91 749.433 385.761 749.44 385.753ZM749.863 383.779C749.926 383.716 749.918 383.865 749.911 383.873 749.848 383.936 749.856 383.787 749.863 383.779ZM755.906 379.218C755.937 379.223 755.958 379.236 755.927 379.268 755.919 379.275 755.77 379.283 755.833 379.221 755.837 379.217 755.876 379.213 755.906 379.218ZM766.033 379.033C766.31 379.045 766.489 379.064 766.738 379.174 766.461 379.161 766.282 379.142 766.033 379.033ZM765.328 379.033C765.605 379.045 765.784 379.064 766.033 379.174 765.756 379.161 765.577 379.142 765.328 379.033ZM768.316 378.936C768.346 378.941 768.368 378.954 768.336 378.986 768.328 378.993 768.18 379.001 768.242 378.939 768.246 378.935 768.285 378.931 768.316 378.936ZM758.427 378.927 757.088 379.033 762.508 379.033 762.53 379.032 760.764 378.966C759.983 378.935 759.2 378.913 758.427 378.927ZM767.725 378.892C767.93 378.927 767.972 378.936 768.148 379.033 767.943 378.997 767.901 378.988 767.725 378.892ZM768.88 378.795C768.91 378.8 768.932 378.813 768.9 378.845 768.892 378.852 768.744 378.86 768.806 378.798 768.81 378.794 768.849 378.79 768.88 378.795ZM768.598 378.795C768.628 378.8 768.65 378.813 768.618 378.845 768.61 378.852 768.462 378.86 768.524 378.798 768.528 378.794 768.567 378.79 768.598 378.795ZM768.994 378.751C769.199 378.786 769.241 378.795 769.417 378.892 769.213 378.856 769.17 378.847 768.994 378.751ZM769.726 378.654C769.756 378.659 769.778 378.672 769.746 378.704 769.739 378.711 769.59 378.719 769.652 378.657 769.656 378.653 769.695 378.649 769.726 378.654ZM769.84 378.61C770.045 378.645 770.087 378.654 770.263 378.751 770.059 378.715 770.016 378.706 769.84 378.61ZM773.11 377.808C773.14 377.813 773.162 377.826 773.131 377.858 773.123 377.866 772.974 377.873 773.037 377.811 773.041 377.807 773.08 377.803 773.11 377.808ZM774.379 377.244C774.41 377.249 774.431 377.262 774.4 377.294 774.392 377.302 774.243 377.31 774.306 377.247 774.31 377.243 774.349 377.239 774.379 377.244ZM706.149 376.448C706.212 376.385 706.204 376.534 706.196 376.542 706.134 376.605 706.141 376.456 706.149 376.448ZM705.397 374.521C705.495 374.74 705.495 374.725 705.397 374.944ZM705.303 374.192C705.366 374.129 705.358 374.278 705.35 374.286 705.287 374.349 705.295 374.2 705.303 374.192ZM705.115 373.393C705.213 373.612 705.213 373.597 705.115 373.816ZM704.974 372.829C705.072 373.048 705.072 373.033 704.974 373.252ZM704.551 371.842C704.649 372.062 704.649 372.046 704.551 372.265ZM704.41 371.278C704.508 371.498 704.508 371.482 704.41 371.701ZM704.269 370.715C704.367 370.934 704.367 370.918 704.269 371.137ZM704.175 370.386C704.238 370.323 704.23 370.472 704.222 370.479 704.159 370.542 704.167 370.393 704.175 370.386ZM704.269 370.292C704.367 370.511 704.367 370.495 704.269 370.715ZM704.175 370.104C704.238 370.041 704.23 370.19 704.222 370.198 704.159 370.26 704.167 370.111 704.175 370.104ZM704.128 369.587C704.226 369.806 704.226 369.791 704.128 370.01L704.128 369.869ZM703.752 368.13C703.815 368.067 703.807 368.216 703.799 368.224 703.736 368.286 703.744 368.138 703.752 368.13ZM703.564 367.472C703.662 367.691 703.662 367.676 703.564 367.895ZM703.611 367.284C703.674 367.221 703.666 367.37 703.658 367.378 703.595 367.441 703.603 367.292 703.611 367.284ZM703.423 366.626C703.521 366.845 703.521 366.83 703.423 367.049ZM703.423 366.203C703.521 366.422 703.521 366.407 703.423 366.626ZM703.329 366.156C703.392 366.093 703.384 366.242 703.376 366.25 703.313 366.313 703.321 366.164 703.329 366.156ZM703.329 365.874C703.392 365.811 703.384 365.96 703.376 365.968 703.313 366.031 703.321 365.882 703.329 365.874ZM703.423 365.78C703.521 365.999 703.521 365.984 703.423 366.203ZM703.282 365.357C703.38 365.576 703.38 365.561 703.282 365.78ZM703.282 364.934C703.38 365.153 703.38 365.138 703.282 365.357ZM703.188 364.746C703.251 364.684 703.243 364.832 703.235 364.84 703.172 364.903 703.18 364.754 703.188 364.746ZM703.282 364.511C703.38 364.73 703.38 364.715 703.282 364.934ZM703.188 364.464C703.251 364.402 703.243 364.55 703.235 364.558 703.172 364.621 703.18 364.472 703.188 364.464ZM703.141 363.947C703.239 364.166 703.239 364.151 703.141 364.37ZM787.514 363.618C787.577 363.556 787.569 363.704 787.561 363.712 787.498 363.775 787.506 363.626 787.514 363.618ZM703 363.101C703.098 363.32 703.098 363.305 703 363.524ZM703.141 362.678C703.318 363.101 703.318 363.525 703.141 363.947ZM703 362.678C703.098 362.898 703.098 362.882 703 363.101ZM787.796 362.631C787.859 362.569 787.851 362.718 787.843 362.725 787.78 362.788 787.788 362.639 787.796 362.631ZM703 362.255C703.098 362.475 703.098 362.459 703 362.678ZM703 361.833C703.098 362.052 703.098 362.036 703 362.255ZM788.36 360.799C788.423 360.736 788.415 360.885 788.407 360.893 788.344 360.955 788.352 360.806 788.36 360.799ZM703 360.705C703.164 361.095 703.164 361.442 703 361.833ZM788.454 360.141C788.552 360.36 788.552 360.345 788.454 360.564ZM788.501 359.953C788.564 359.89 788.556 360.039 788.548 360.047 788.485 360.109 788.493 359.961 788.501 359.953ZM788.642 359.812C788.705 359.749 788.697 359.898 788.689 359.906 788.626 359.969 788.634 359.82 788.642 359.812ZM788.595 359.295 788.669 359.507C788.669 359.558 788.644 359.608 788.595 359.718ZM788.595 358.872 788.669 359.084 788.595 359.295ZM788.736 358.308C788.834 358.527 788.834 358.512 788.736 358.731ZM788.783 358.12C788.846 358.057 788.838 358.206 788.83 358.214 788.767 358.277 788.775 358.128 788.783 358.12ZM703 357.603C703.067 357.764 703.101 357.895 703.101 358.026L703 358.449 703 358.449ZM788.877 357.18C788.977 357.428 788.977 357.496 788.877 357.744ZM703 357.18 703.074 357.392C703.074 357.443 703.049 357.494 703 357.603ZM788.877 356.757 788.951 356.969C788.951 357.02 788.926 357.071 788.877 357.18ZM703 356.757C703.049 356.867 703.074 356.918 703.074 356.969L703 357.18ZM703.047 356.569C703.11 356.507 703.102 356.655 703.094 356.663 703.031 356.726 703.039 356.577 703.047 356.569ZM788.877 356.334C788.926 356.444 788.951 356.495 788.951 356.546L788.877 356.757ZM703.141 356.052C703.318 356.474 703.318 356.899 703.141 357.321ZM703.141 355.629C703.239 355.848 703.239 355.833 703.141 356.052ZM703.188 355.441C703.251 355.379 703.243 355.527 703.235 355.535 703.172 355.598 703.18 355.449 703.188 355.441ZM703.282 355.065C703.38 355.284 703.38 355.269 703.282 355.488ZM703.141 354.924C703.239 355.143 703.239 355.128 703.141 355.347ZM703.282 354.642C703.38 354.862 703.38 354.846 703.282 355.065ZM703.329 354.455C703.392 354.392 703.384 354.541 703.376 354.548 703.313 354.611 703.321 354.462 703.329 354.455ZM703.47 354.032C703.533 353.969 703.525 354.118 703.517 354.125 703.454 354.188 703.462 354.039 703.47 354.032ZM703.282 353.938C703.38 354.157 703.38 354.141 703.282 354.361ZM703.329 353.75C703.392 353.687 703.384 353.836 703.376 353.844 703.313 353.906 703.321 353.757 703.329 353.75ZM703.423 353.515C703.521 353.734 703.521 353.719 703.423 353.938ZM703.47 353.327C703.533 353.264 703.525 353.413 703.517 353.421 703.454 353.483 703.462 353.334 703.47 353.327ZM703.423 352.81C703.521 353.029 703.521 353.014 703.423 353.233ZM703.564 352.528 703.638 352.739C703.638 352.79 703.613 352.841 703.564 352.951ZM703.752 352.058C703.815 351.995 703.807 352.144 703.799 352.152 703.736 352.214 703.744 352.066 703.752 352.058ZM703.564 351.823C703.623 351.966 703.652 352.071 703.652 352.175L703.564 352.528 703.564 352.528ZM703.705 351.541C703.803 351.76 703.803 351.745 703.705 351.964ZM788.642 350.225C788.705 350.162 788.697 350.311 788.689 350.319 788.626 350.382 788.634 350.233 788.642 350.225ZM704.175 349.802C704.238 349.739 704.23 349.888 704.222 349.896 704.159 349.959 704.167 349.81 704.175 349.802ZM788.595 349.708C788.693 349.927 788.693 349.912 788.595 350.131ZM704.175 349.52C704.238 349.457 704.23 349.606 704.222 349.614 704.159 349.677 704.167 349.528 704.175 349.52ZM788.501 349.379C788.564 349.316 788.556 349.465 788.548 349.473 788.485 349.536 788.493 349.387 788.501 349.379ZM788.454 348.862C788.552 349.081 788.552 349.066 788.454 349.285ZM704.269 348.862C704.367 349.081 704.367 349.066 704.269 349.285ZM704.41 348.298C704.508 348.517 704.508 348.502 704.41 348.721ZM704.551 347.735C704.6 347.844 704.625 347.895 704.625 347.946L704.551 348.157 704.551 348.157ZM704.833 347.311C704.931 347.53 704.931 347.515 704.833 347.735ZM705.021 346.841C705.084 346.779 705.076 346.928 705.068 346.936 705.005 346.998 705.013 346.849 705.021 346.841ZM705.115 346.183C705.213 346.402 705.213 346.387 705.115 346.606ZM719.802 345.762C719.516 345.761 719.226 345.78 718.935 345.82 715.426 346.298 712.721 349.243 712.625 352.809 712.533 356.286 715.367 359.197 718.652 359.738 719.134 359.817 719.569 359.97 720.063 359.907 723.23 359.507 725.865 357.566 726.626 354.36 727.569 350.386 724.546 346.342 720.649 345.818 720.371 345.781 720.088 345.762 719.802 345.762ZM772.387 345.761C772.105 345.761 771.82 345.781 771.533 345.82 768.066 346.298 765.357 349.136 765.202 352.668 765.036 356.443 768.742 360.422 772.661 359.908 775.813 359.494 778.555 357.451 779.235 354.219 780.118 350.028 776.617 345.757 772.387 345.761ZM705.303 345.714C705.366 345.651 705.358 345.8 705.35 345.807 705.287 345.87 705.295 345.721 705.303 345.714ZM787.655 345.572C787.718 345.51 787.71 345.659 787.702 345.666 787.639 345.729 787.647 345.58 787.655 345.572ZM787.514 345.009C787.577 344.946 787.569 345.095 787.561 345.102 787.498 345.165 787.506 345.016 787.514 345.009ZM786.668 342.612C786.731 342.549 786.723 342.699 786.715 342.706 786.652 342.769 786.66 342.62 786.668 342.612ZM706.713 342.471C706.776 342.408 706.768 342.557 706.76 342.565 706.698 342.628 706.706 342.479 706.713 342.471ZM734.44 326.603C734.164 326.598 733.884 326.612 733.6 326.647 730.612 327.009 727.838 329.02 727.186 332.085 726.275 336.372 729.756 341.333 734.446 340.786 737.591 340.418 740.423 338.294 741.008 335.045 741.726 331.058 738.581 326.681 734.44 326.603ZM758.304 326.601C758.018 326.596 757.727 326.611 757.431 326.647 754.627 326.987 751.984 328.849 751.191 331.662 749.935 336.115 753.513 341.349 758.418 340.785 761.413 340.442 764.184 338.375 764.832 335.327 765.704 331.221 762.594 326.68 758.304 326.601ZM763.38 320.147C763.411 320.152 763.432 320.166 763.401 320.197 763.393 320.205 763.244 320.213 763.307 320.15 763.311 320.146 763.35 320.142 763.38 320.147ZM731.793 319.302C731.823 319.306 731.845 319.32 731.814 319.351 731.806 319.359 731.657 319.367 731.72 319.304 731.724 319.301 731.763 319.297 731.793 319.302ZM760.983 319.302C761.013 319.306 761.035 319.32 761.003 319.351 760.996 319.359 760.847 319.367 760.91 319.304 760.913 319.301 760.953 319.297 760.983 319.302ZM760.11 319.117C760.315 319.152 760.357 319.161 760.534 319.257 760.329 319.222 760.286 319.213 760.11 319.117ZM732.921 319.02C732.952 319.024 732.973 319.038 732.942 319.07 732.934 319.077 732.785 319.085 732.848 319.023 732.852 319.019 732.891 319.015 732.921 319.02ZM759.546 318.976C759.751 319.011 759.793 319.02 759.969 319.117 759.765 319.081 759.722 319.072 759.546 318.976ZM758.559 318.553C758.764 318.588 758.806 318.597 758.982 318.694 758.778 318.658 758.735 318.649 758.559 318.553ZM733.741 318.553C733.946 318.588 733.988 318.597 734.164 318.694 733.959 318.658 733.917 318.649 733.741 318.553ZM757.854 318.412C758.059 318.447 758.101 318.456 758.277 318.553 758.073 318.517 758.03 318.508 757.854 318.412ZM757.035 318.315C757.065 318.32 757.086 318.333 757.055 318.365 757.047 318.372 756.898 318.38 756.961 318.318 756.965 318.314 757.004 318.31 757.035 318.315ZM757.149 318.271C757.354 318.306 757.396 318.315 757.572 318.412 757.367 318.376 757.325 318.367 757.149 318.271ZM735.601 318.174C735.631 318.179 735.652 318.192 735.621 318.224 735.613 318.232 735.464 318.239 735.527 318.177 735.531 318.173 735.57 318.169 735.601 318.174ZM735.883 318.174C735.913 318.179 735.934 318.192 735.903 318.224 735.895 318.232 735.746 318.239 735.809 318.177 735.813 318.173 735.852 318.169 735.883 318.174ZM756.585 318.13C756.79 318.165 756.832 318.174 757.008 318.271 756.803 318.235 756.761 318.226 756.585 318.13ZM756.162 318.13C756.367 318.165 756.409 318.174 756.585 318.271 756.38 318.235 756.338 318.226 756.162 318.13ZM756.021 317.989C756.226 318.024 756.268 318.033 756.444 318.13 756.239 318.094 756.197 318.085 756.021 317.989ZM755.316 317.989C755.554 318.013 755.668 318.033 755.88 318.13 755.642 318.105 755.528 318.085 755.316 317.989ZM754.778 317.751C754.809 317.756 754.83 317.769 754.799 317.801 754.791 317.809 754.642 317.816 754.705 317.754 754.709 317.75 754.748 317.746 754.778 317.751ZM754.188 317.707C754.393 317.742 754.435 317.751 754.611 317.848 754.406 317.812 754.364 317.803 754.188 317.707ZM753.791 317.61C753.822 317.615 753.843 317.628 753.812 317.66 753.804 317.668 753.655 317.675 753.718 317.613 753.722 317.609 753.761 317.605 753.791 317.61ZM738.844 317.61C738.874 317.615 738.896 317.628 738.864 317.66 738.857 317.668 738.708 317.675 738.77 317.613 738.774 317.609 738.813 317.605 738.844 317.61ZM753.906 317.566C754.183 317.578 754.361 317.597 754.611 317.707 754.334 317.694 754.155 317.676 753.906 317.566ZM753.201 317.566C753.406 317.601 753.448 317.61 753.624 317.707 753.419 317.671 753.377 317.662 753.201 317.566ZM737.83 317.566C738.035 317.601 738.077 317.61 738.253 317.707 738.049 317.671 738.006 317.662 737.83 317.566ZM752.663 317.469C752.694 317.474 752.715 317.487 752.684 317.519 752.676 317.527 752.527 317.534 752.59 317.472 752.594 317.468 752.633 317.464 752.663 317.469ZM739.69 317.469C739.72 317.474 739.742 317.487 739.71 317.519 739.703 317.527 739.554 317.534 739.617 317.472 739.62 317.468 739.66 317.464 739.69 317.469ZM753.201 317.425C753.406 317.46 753.448 317.469 753.624 317.566 753.419 317.53 753.377 317.521 753.201 317.425ZM752.778 317.425C752.982 317.46 753.025 317.469 753.201 317.566 752.996 317.53 752.954 317.521 752.778 317.425ZM752.073 317.425C752.277 317.46 752.32 317.469 752.496 317.566 752.291 317.53 752.249 317.521 752.073 317.425ZM739.099 317.425C739.304 317.46 739.346 317.469 739.522 317.566 739.318 317.53 739.275 317.521 739.099 317.425ZM738.676 317.425C738.881 317.46 738.923 317.469 739.099 317.566 738.895 317.53 738.852 317.521 738.676 317.425ZM739.831 317.328C739.861 317.333 739.883 317.346 739.851 317.378 739.844 317.386 739.695 317.393 739.758 317.331 739.761 317.327 739.801 317.323 739.831 317.328ZM740.818 317.328C740.848 317.333 740.87 317.346 740.839 317.378 740.831 317.386 740.682 317.393 740.745 317.331 740.749 317.327 740.788 317.323 740.818 317.328ZM740.536 317.328C740.566 317.333 740.588 317.346 740.557 317.378 740.549 317.386 740.4 317.393 740.463 317.331 740.466 317.327 740.506 317.323 740.536 317.328ZM751.791 317.284C751.995 317.319 752.038 317.328 752.214 317.425 752.009 317.389 751.967 317.38 751.791 317.284ZM751.368 317.284C751.572 317.319 751.615 317.328 751.791 317.425 751.586 317.389 751.544 317.38 751.368 317.284ZM750.663 317.284C750.94 317.296 751.118 317.315 751.368 317.425 751.091 317.412 750.912 317.394 750.663 317.284ZM739.945 317.284C740.15 317.319 740.193 317.328 740.369 317.425 740.164 317.389 740.122 317.38 739.945 317.284ZM752.214 317.284C752.418 317.319 752.461 317.328 752.637 317.425 752.432 317.389 752.39 317.38 752.214 317.284ZM741.523 317.187C741.553 317.192 741.575 317.206 741.544 317.237 741.536 317.245 741.387 317.253 741.45 317.19 741.454 317.186 741.493 317.182 741.523 317.187ZM750.945 317.143C751.149 317.178 751.192 317.187 751.368 317.284 751.163 317.248 751.121 317.239 750.945 317.143ZM750.522 317.143C750.726 317.178 750.769 317.187 750.945 317.284 750.74 317.248 750.698 317.239 750.522 317.143ZM750.099 317.143C750.303 317.178 750.346 317.187 750.522 317.284 750.317 317.248 750.274 317.239 750.099 317.143ZM748.688 317.143C749.17 317.143 749.652 317.097 750.099 317.284 749.617 317.284 749.134 317.33 748.688 317.143ZM741.638 317.143C741.842 317.178 741.885 317.187 742.061 317.284 741.856 317.248 741.814 317.239 741.638 317.143ZM740.933 317.143C741.137 317.178 741.18 317.187 741.356 317.284 741.151 317.248 741.109 317.239 740.933 317.143ZM743.497 317.046C743.528 317.051 743.549 317.065 743.518 317.096 743.51 317.104 743.361 317.112 743.424 317.049 743.428 317.045 743.467 317.041 743.497 317.046ZM749.252 317.002C749.457 317.037 749.499 317.046 749.675 317.143 749.471 317.107 749.428 317.098 749.252 317.002ZM748.829 317.002C749.034 317.037 749.076 317.046 749.252 317.143 749.048 317.107 749.005 317.098 748.829 317.002ZM748.406 317.002C748.611 317.037 748.653 317.046 748.829 317.143 748.625 317.107 748.582 317.098 748.406 317.002ZM747.983 317.002C748.188 317.037 748.23 317.046 748.406 317.143 748.202 317.107 748.159 317.098 747.983 317.002ZM743.612 317.002C743.93 317.009 744.169 317.02 744.458 317.143 744.14 317.136 743.901 317.125 743.612 317.002ZM742.907 317.002C743.009 317.02 743.071 317.031 743.129 317.049L743.319 317.138 743.98 317.126C744.137 317.129 744.292 317.139 744.444 317.163L744.519 317.184 745.006 317.129 744.458 317.002C744.658 317.002 744.848 316.999 745.034 317.015L745.357 317.09 745.586 317.064C746.214 316.967 746.784 317.126 747.378 317.221L747.72 317.255 747.137 317.143 747.629 317.139 747.336 317.136C747.125 317.123 746.918 317.087 746.714 317.002 747.155 317.002 747.576 316.972 747.983 317.143L747.955 317.143 748.688 317.284 748.08 317.288 752.022 317.549C753.35 317.693 754.672 317.896 756.021 318.163L758.273 318.689 758.831 318.819 759.172 318.923 758.982 318.835C759.187 318.87 759.229 318.879 759.405 318.976L759.204 318.932 760.646 319.37 761.426 319.606 762.187 319.888 762.179 319.868C762.186 319.861 762.335 319.853 762.273 319.915L762.263 319.916 762.617 320.047 762.602 320.009C762.609 320.001 762.758 319.994 762.696 320.056L762.648 320.058 763.025 320.198 763.473 320.364 763.814 320.49 764.183 320.65 765.181 321.084 765.431 321.193 766.005 321.443 769.821 323.467 769.963 323.543C774.45 326.224 778.449 329.7 781.604 333.809L781.668 333.901 781.979 334.354 782.29 334.806 783.536 336.616 783.806 337.007 783.83 337.05 784.009 337.37 784.188 337.69 784.366 338.009 784.545 338.329 784.724 338.649 784.903 338.969 785.082 339.289 785.229 339.553 785.251 339.599 785.375 339.864 785.499 340.129 785.747 340.657 785.871 340.922 785.995 341.187 786.119 341.452 786.16 341.539 786.216 341.69 786.385 342.141 786.553 342.591 786.637 342.816 786.721 343.041 786.805 343.266 786.988 343.756 787 343.76 786.999 343.784 787.058 343.942 787.227 344.392 787.319 344.64 787.365 344.812 787.416 345.004 787.518 345.388 787.653 345.899 787.655 345.854C787.718 345.792 787.71 345.941 787.702 345.948L787.662 345.932 787.749 346.26 787.749 346.183C787.798 346.293 787.823 346.344 787.823 346.395L787.801 346.456 788.172 347.854 788.172 347.735C788.221 347.844 788.246 347.895 788.246 347.946L788.211 348.046 788.247 348.233 788.313 348.573 788.313 348.298 788.313 348.016C788.363 348.14 788.388 348.22 788.388 348.298L788.314 348.577 788.317 348.59 788.387 348.792 788.367 348.849 788.518 349.63 788.645 350.555 788.669 350.625 788.658 350.655 788.736 351.226 788.736 350.836C788.785 350.945 788.81 350.996 788.81 351.047L788.739 351.249 788.744 351.28 788.81 351.47 788.781 351.553 788.877 352.258 788.877 352.246C788.926 352.355 788.951 352.406 788.951 352.457L788.902 352.599 788.908 352.757 788.951 352.88 788.917 352.978 788.93 353.302 788.965 353.444 788.939 353.547 788.963 354.142 788.965 354.149 788.964 354.154 789 355.065 788.94 355.668 788.951 355.7 788.931 355.757 788.907 355.997 788.951 356.123C788.951 356.174 788.926 356.225 788.877 356.334L788.877 356.275 788.788 357.003 788.869 357.392C788.869 357.603 788.825 357.815 788.736 358.026L788.736 357.44 788.622 358.525 788.669 358.661 788.595 358.872 788.595 358.775 788.567 359.046 788.474 359.493 788.528 359.647C788.528 359.698 788.503 359.749 788.454 359.859L788.454 359.59 787.959 361.988 787.952 362.01 787.964 362.044C787.964 362.095 787.939 362.146 787.89 362.255L787.89 362.198 787.633 362.985 787.494 363.411 787.356 363.836 787.263 364.119 787.207 364.251 787.081 364.549 786.956 364.846 786.914 364.945 786.83 365.143 786.788 365.242 786.704 365.44 786.662 365.539 786.607 365.668 786.524 365.824 786.376 366.099 786.228 366.375 786.081 366.65 785.933 366.925 785.835 367.109 785.785 367.2 785.687 367.384 785.638 367.476 785.539 367.659 785.41 367.9 785.388 367.931 785.273 368.098 785.216 368.182 785.101 368.349 784.986 368.516 784.813 368.766 784.698 368.933 784.526 369.184 784.411 369.351 784.296 369.518 784.239 369.601 784.124 369.768 784.009 369.935 783.958 370.01 783.885 370.094 783.821 370.17 783.691 370.323 783.561 370.475 783.432 370.627 783.302 370.78 783.237 370.856 783.172 370.932 783.107 371.008 783.043 371.084 782.978 371.161 782.848 371.313 782.718 371.465 782.616 371.585 782.585 371.614 782.438 371.748 782.29 371.883 782.143 372.017 781.995 372.152 781.848 372.287 781.7 372.421 781.553 372.556 781.405 372.69 780.889 373.161 780.742 373.296 780.594 373.43 780.447 373.565 780.299 373.699 780.152 373.834 780.005 373.968 779.938 374.029 779.93 374.035 779.763 374.15 779.596 374.265 779.513 374.323 779.429 374.38 779.346 374.438 779.179 374.553 779.012 374.668 778.929 374.726 778.762 374.841 778.595 374.956 778.345 375.129 778.178 375.244 778.094 375.301 777.927 375.416 777.761 375.531 777.694 375.577 777.676 375.587 777.494 375.688 777.221 375.838 777.039 375.938 776.948 375.988 776.766 376.088 776.676 376.139 776.494 376.239 776.403 376.289 776.221 376.389 776.13 376.439 775.948 376.539 775.902 376.565 775.654 376.668 775.555 376.71 775.356 376.793 775.257 376.835 774.958 376.959 774.66 377.084 773.964 377.375 773.665 377.499 773.566 377.541 773.268 377.666 773.168 377.707 773.074 377.747 772.846 377.808 772.735 377.838 772.402 377.928 772.291 377.958 771.958 378.048 771.768 378.099 771.956 378.187C771.853 378.169 771.791 378.158 771.733 378.139L771.692 378.12 771.403 378.198 771.22 378.248 771.391 378.328C771.289 378.31 771.227 378.299 771.169 378.28L771.144 378.268 770.848 378.348 770.737 378.378 770.293 378.498 770.182 378.528 770.122 378.544 769.322 378.65 769.358 378.657C769.416 378.676 769.47 378.702 769.558 378.751 769.456 378.733 769.394 378.722 769.336 378.703L769.243 378.66 768.215 378.795 768.229 378.798C768.288 378.817 768.342 378.843 768.43 378.892 768.328 378.874 768.266 378.863 768.208 378.844L768.127 378.807 767.733 378.859 767.08 378.902 767.173 378.904C767.359 378.92 767.541 378.955 767.725 379.033 767.525 379.032 767.335 379.036 767.149 379.02L766.741 378.925 766.313 378.954 766.597 379.033C766.438 379.029 766.299 379.025 766.163 379.006L766.041 378.972 765.328 379.02 764.747 379.028 765.328 379.174 759.123 379.174C758.473 379.174 757.664 379.284 756.961 379.197L756.491 379.08 756.151 379.106 756.115 379.115 756.303 379.174 755.991 379.144 755.63 379.231 755.645 379.268C755.641 379.272 755.602 379.275 755.572 379.271L755.562 379.247 755.396 379.286 755.457 379.315 755.363 379.294 754.853 379.416 754.74 379.443 754.518 379.496 754.551 379.503C754.609 379.522 754.664 379.548 754.752 379.597 754.65 379.579 754.588 379.568 754.53 379.549L754.451 379.512 754.423 379.519 754.306 379.573 754.087 379.675 754.094 379.691 754.049 379.692 753.728 379.842 753.439 379.976 753.15 380.11 753.054 380.155 752.862 380.244 752.818 380.265 752.607 380.413 752.442 380.53 752.276 380.646 752.194 380.704 752.111 380.763 752.073 380.79 752.033 380.826 751.886 380.961 751.739 381.095 751.591 381.23 751.444 381.365 751.373 381.43 751.308 381.51 751.181 381.666 751.054 381.821 750.991 381.899 750.928 381.976 750.864 382.054 750.738 382.209 750.664 382.3 750.619 382.373 750.46 382.637 750.301 382.901 750.195 383.077 750.142 383.165 750.083 383.262 750.045 383.35 750.003 383.448 749.918 383.646 749.748 384.04 749.698 384.157 749.695 384.165 749.749 384.32C749.749 384.37 749.725 384.421 749.675 384.531L749.675 384.234 749.609 384.464 749.577 384.574 749.456 384.993 749.467 385.024 749.421 385.158 749.409 385.28 749.467 385.447C749.467 385.498 749.443 385.549 749.393 385.659L749.393 385.437 749.341 385.973 749.404 386.293 749.332 386.663 749.439 387.343 749.44 387.304C749.503 387.241 749.495 387.39 749.487 387.398L749.445 387.38 749.466 387.519 749.57 387.809 749.648 388.029 749.727 388.248 749.784 388.409 750 388.803 750.171 389.115 750.341 389.426 750.512 389.738 750.593 389.886 750.729 390.096 751.508 391.298 751.768 391.698 752 392.057C752.22 392.426 752.424 392.802 752.594 393.191L752.778 393.743 752.778 393.695C752.827 393.805 752.851 393.856 752.851 393.906L752.841 393.935 752.995 394.4 753.06 395.037 753.06 394.964C753.109 395.073 753.133 395.124 753.133 395.175L753.087 395.308 753.119 395.625 753.148 395.739 753.121 395.848 753.089 396.174 753.133 396.303C753.133 396.354 753.109 396.405 753.06 396.515L753.06 396.466 753.014 396.931 752.986 397.04 753.016 397.052C753.021 397.083 753.017 397.122 753.013 397.126L752.968 397.107 752.934 397.235 752.848 397.564 752.851 397.572 752.831 397.631 752.788 397.794 752.746 397.954 752.71 398.029 752.734 398.039C752.739 398.069 752.735 398.109 752.731 398.112 752.699 398.144 752.686 398.122 752.681 398.092L752.681 398.091 752.538 398.39 752.355 398.771 752.218 399.057 752.082 399.343 751.99 399.534 751.945 399.629 751.943 399.632 751.822 399.789 751.7 399.948 751.577 400.108 751.516 400.187 751.393 400.346 751.27 400.506 751.147 400.665 751.094 400.735 751.011 400.811 750.865 400.947 750.719 401.082 750.573 401.218 750.426 401.354 750.353 401.422 750.335 401.438 750.269 401.479 750.182 401.533 750.007 401.64 749.833 401.748 749.746 401.801 749.571 401.909 749.309 402.07 749.047 402.231 749.031 402.241 748.834 402.299 748.725 402.332 748.29 402.46 747.56 402.676 747.101 402.76 747.56 402.859C747.34 402.859 747.124 402.866 746.913 402.853L746.767 402.821 746.643 402.844 746.454 402.864 746.654 402.907C746.713 402.925 746.767 402.952 746.855 403 746.753 402.982 746.691 402.971 746.633 402.952L746.445 402.865 745.727 402.941C745.443 402.936 745.164 402.884 744.883 402.832L744.692 402.807 744.881 402.859 744.65 402.863 745.034 402.872C745.22 402.888 745.402 402.923 745.586 403 745.386 403 745.196 403.003 745.01 402.987L744.489 402.866 743.948 402.876C743.635 402.87 743.327 402.835 743.048 402.718L743.766 402.705 741.007 402.546C740.008 402.454 739.019 402.327 738.035 402.16L736.171 401.791 736.185 401.825C736.177 401.833 736.028 401.841 736.091 401.778L736.101 401.778 736.072 401.772 734.873 401.454 733.668 401.133 733.741 401.167C733.639 401.15 733.577 401.138 733.519 401.12L733.335 401.034 730.671 400.097 730.686 400.133C730.678 400.141 730.529 400.149 730.592 400.086L730.635 400.085 730.061 399.882 729.802 399.766 726.809 398.425 726.419 398.218 724.727 397.315C716.546 392.656 710.123 385.425 706.411 376.672L706.224 376.193 705.953 375.499 705.501 374.343 705.486 374.303 705.363 373.923 704.901 372.494 704.833 372.688 704.833 372.284 704.824 372.256 704.69 371.84 704.645 371.701 704.631 371.64 704.545 371.273 704.503 371.089 704.059 369.176 703.987 369.446 703.987 369.164 703.987 368.882 704.013 368.977 703.77 367.931 703.769 367.93 703.749 367.921C703.744 367.891 703.748 367.852 703.752 367.848L703.76 367.851 703.66 367.045 703.658 367.096C703.595 367.159 703.603 367.01 703.611 367.002L703.657 367.021 703.295 364.088C703.266 363.666 703.275 363.243 703.284 362.819L703.277 361.935 703.141 362.678 703.141 360.846 703.275 361.573 703.274 361.551C703.238 361.02 703.016 360.535 703.003 360L703.069 358.875 703 359.154 703 358.449 703.076 358.756 703.099 358.378C703.159 357.835 703.233 357.292 703.269 356.757 703.343 355.685 703.443 354.616 703.58 353.553L703.974 351.245 704.05 350.795 703.987 350.977 703.987 350.554 704.057 350.755 704.097 350.523 704.117 350.402 704.12 350.383 704.128 350.353 704.128 350.272 704.128 349.99 704.181 350.142 704.351 349.468 704.313 349.452C704.308 349.422 704.312 349.383 704.316 349.379 704.347 349.348 704.361 349.369 704.366 349.4L704.366 349.409 704.484 348.936 704.513 348.824 704.626 348.373 704.645 348.299 704.657 348.263 704.799 347.842 705.37 346.156 705.512 345.734 705.655 345.313 705.797 344.891 705.904 344.576 705.947 344.477 706.076 344.184 706.206 343.89 706.378 343.498 706.938 342.226 707.068 341.932 707.369 341.247 707.475 341.006 707.502 340.956 707.648 340.68 708.48 339.116 708.627 338.84 708.69 338.722 708.891 338.399 709.053 338.138 709.486 337.443 709.757 337.009 710.19 336.314 710.46 335.879 710.507 335.804 710.88 335.312 712.157 333.629 712.583 333.068 713.009 332.507 713.13 332.346 713.252 332.186 713.269 332.164 713.851 331.516 713.984 331.367 714.118 331.219 714.985 330.254 715.011 330.225 715.126 330.112 717.142 328.141 717.198 328.095 717.351 327.966 717.504 327.837 717.657 327.708 718.193 327.257 718.346 327.129 718.5 327 719.036 326.549 719.189 326.42 719.342 326.291 719.495 326.162 719.572 326.098 719.725 325.969 719.752 325.946 719.888 325.851 720.054 325.734 720.302 325.56 720.468 325.443 720.716 325.268 720.882 325.152 721.047 325.036 721.296 324.861 721.461 324.744 721.71 324.569 721.875 324.453 722.289 324.162 722.455 324.045 722.703 323.871 722.869 323.754 722.95 323.697 722.951 323.696 723.132 323.595 723.402 323.442 723.583 323.341 723.853 323.188 724.124 323.036 724.395 322.883 724.575 322.782 724.846 322.629 725.838 322.071 726.108 321.918 726.199 321.867 726.379 321.766 726.469 321.715 726.649 321.613 726.83 321.512 726.867 321.491 726.924 321.465 727.214 321.332 727.504 321.198 727.794 321.065 727.89 321.021 728.083 320.932 728.18 320.888 728.373 320.799 728.489 320.746 728.476 320.714C728.48 320.71 728.52 320.706 728.55 320.711L728.552 320.717 728.663 320.666 728.76 320.622 729.05 320.489 729.064 320.482 729.354 320.369 729.455 320.33 729.76 320.212 729.861 320.172 730.065 320.093 730.166 320.054 730.471 319.935 730.599 319.886 730.592 319.868 730.649 319.866 730.775 319.817 730.877 319.778 731.182 319.659 731.283 319.62 731.485 319.542 731.594 319.508 731.701 319.474 732.024 319.373 732.131 319.34 732.484 319.23 732.391 319.21C732.332 319.191 732.278 319.165 732.19 319.117 732.292 319.134 732.354 319.145 732.412 319.164L732.526 319.217 733.313 318.971 733.492 318.915 733.318 318.835C733.42 318.852 733.482 318.863 733.54 318.882L733.564 318.893 733.851 318.804 734.281 318.669 734.388 318.636 734.685 318.543 734.506 318.505C734.448 318.486 734.393 318.46 734.305 318.412 734.407 318.429 734.469 318.44 734.527 318.459L734.699 318.539 734.755 318.521 734.823 318.506 734.938 318.481 735.268 318.407 735.07 318.364C735.012 318.345 734.957 318.319 734.869 318.271 734.971 318.288 735.033 318.299 735.091 318.318L735.277 318.405 735.481 318.359 735.292 318.271C735.394 318.288 735.456 318.299 735.514 318.318L735.563 318.341 736.108 318.218 736.091 318.177C736.095 318.173 736.134 318.169 736.165 318.174L736.177 318.203 736.551 318.119 736.747 318.075 736.561 317.989C736.664 318.006 736.725 318.018 736.784 318.036L736.828 318.057 737.242 317.964 737.865 317.825 737.749 317.8C737.691 317.781 737.636 317.755 737.548 317.707 737.651 317.724 737.712 317.736 737.771 317.754L737.904 317.816 738.075 317.778 738.065 317.754C738.069 317.75 738.108 317.746 738.139 317.751L738.145 317.765 738.627 317.696 738.454 317.659C738.396 317.64 738.341 317.614 738.253 317.566 738.356 317.583 738.417 317.595 738.476 317.613L738.647 317.693 739.915 317.513 739.899 317.472C739.902 317.468 739.942 317.464 739.972 317.469L739.986 317.503 740.369 317.448 741.201 317.392 741.133 317.377C741.075 317.359 741.021 317.332 740.933 317.284 741.035 317.302 741.097 317.313 741.155 317.331L741.274 317.387 742.329 317.315 742.968 317.281 742.543 317.264C742.382 317.247 742.225 317.212 742.061 317.143 742.24 317.144 742.405 317.145 742.565 317.162L743.024 317.278 743.453 317.255 743.048 317.143 743.307 317.138 743.108 317.095C743.049 317.077 742.995 317.05 742.907 317.002ZM742.484 317.002C742.689 317.037 742.731 317.046 742.907 317.143 742.702 317.107 742.66 317.098 742.484 317.002Z" fill="#FFFFFF" fill-rule="evenodd"/><path d="M529.589 317 546.411 317 546.411 342.637 546.611 344.299 549.677 344.923C560.445 349.512 568 360.254 568 372.774 568 389.467 554.569 403 538 403 521.431 403 508 389.467 508 372.774 508 360.254 515.555 349.512 526.323 344.923L529.292 344.319 529.589 342.637Z" fill="#FFFFFF" fill-rule="evenodd"/><path d="M514.957 368 561.043 368 562 372.782C562 386.157 551.255 397 538 397 524.745 397 514 386.157 514 372.782Z" fill="#4065DC" fill-rule="evenodd"/><path d="M629 299 634.25 278 645.75 278 651 299Z" fill="#D9D9D9" fill-rule="evenodd"/><path d="M592 219.145C592 216.304 594.304 214 597.145 214L682.855 214C685.696 214 688 216.304 688 219.145L688 274.855C688 277.696 685.696 280 682.855 280L597.145 280C594.304 280 592 277.696 592 274.855Z" fill="#FFFFFF" fill-rule="evenodd"/><path d="M599 222.777C599 222.348 599.348 222 599.777 222L680.223 222C680.652 222 681 222.348 681 222.777L681 272.223C681 272.652 680.652 273 680.223 273L599.777 273C599.348 273 599 272.652 599 272.223Z" fill="#4065DC" fill-rule="evenodd"/><path d="M606.37 421 665 421 665 428.686 665 443.822 665 488 662.603 488 656.41 488 653.512 488 653.511 488C647.173 488 642.034 482.891 642.034 476.589 642.034 470.287 647.173 465.178 653.511 465.178 654.304 465.178 655.077 465.258 655.824 465.41L656.41 465.591 656.41 443.822 614.96 443.822 614.96 488 612.59 488 606.37 488 603.499 488 603.499 487.998 603.477 488C597.138 488 592 482.891 592 476.589 592 470.287 597.138 465.178 603.477 465.178 604.269 465.178 605.043 465.258 605.79 465.41L606.37 465.589 606.37 443.822 606.37 428.686Z" fill="#4065DC" fill-rule="evenodd"/><path d="M613.37 427 672 427 672 434.686 672 449.822 672 494 669.603 494 663.41 494 660.512 494 660.511 494C654.173 494 649.034 488.891 649.034 482.589 649.034 476.287 654.173 471.178 660.511 471.178 661.304 471.178 662.077 471.258 662.824 471.41L663.41 471.591 663.41 449.822 621.96 449.822 621.96 494 619.59 494 613.37 494 610.499 494 610.499 493.998 610.477 494C604.138 494 599 488.891 599 482.589 599 476.287 604.138 471.178 610.477 471.178 611.269 471.178 612.043 471.258 612.79 471.41L613.37 471.589 613.37 449.822 613.37 434.686Z" fill="#FFFFFF" fill-rule="evenodd"/></g></svg>