<svg width="342" height="342" xmlns="http://www.w3.org/2000/svg" xmlns:xlink="http://www.w3.org/1999/xlink" overflow="hidden"><defs><clipPath id="clip0"><rect x="469" y="189" width="342" height="342"/></clipPath></defs><g clip-path="url(#clip0)" transform="translate(-469 -189)"><path d="M470 360C470 266.112 546.112 190 640 190 733.888 190 810 266.112 810 360 810 453.888 733.888 530 640 530 546.112 530 470 453.888 470 360Z" fill="#06D6A0" fill-rule="evenodd"/><path d="M801.465 417.563 802 417.731 798.832 426.314C794.484 436.505 789.165 446.189 782.989 455.253L777.103 463.057 770.752 463.895C768.584 464.299 766.585 464.817 764.831 465.493 750.795 470.9 697.984 494.16 689.199 495.806 680.414 497.452 636.757 488.174 630.195 485.17 623.633 482.165 583.976 444.22 590.502 439.966 597.028 435.712 609.008 454.857 621.076 459.643 633.145 464.429 656.679 469.121 662.915 468.684 669.152 468.246 691.13 461.003 690.808 459.643 690.486 458.284 637.168 455.832 635.559 446.348 633.95 436.864 665.597 439.257 681.153 434.648 696.708 430.039 714.946 420.112 728.892 418.694 742.839 417.276 752.136 426.139 764.831 426.139 775.939 426.139 792.043 416.571 801.465 417.563ZM596.589 224.055C610.921 224.77 645.063 232.201 650.805 234.83 657.366 237.835 697.024 275.78 690.498 280.034 683.972 284.288 671.992 265.143 659.923 260.357 647.854 255.571 624.321 250.879 618.084 251.316 611.848 251.754 589.87 258.998 590.192 260.357 590.514 261.716 643.831 264.168 645.441 273.652 647.05 283.136 615.402 280.743 599.847 285.352 584.291 289.961 566.054 299.888 552.108 301.306 538.161 302.724 528.864 293.861 516.169 293.861 505.061 293.861 488.957 303.429 479.534 302.437L479 302.269 482.168 293.686C486.516 283.495 491.835 273.811 498.011 264.747L503.897 256.944 510.248 256.105C512.416 255.701 514.415 255.183 516.169 254.507 530.205 249.1 583.016 225.84 591.801 224.194 592.899 223.988 594.542 223.953 596.589 224.055Z" fill="#FFFFFF" fill-rule="evenodd"/><path d="M632.549 337.209C638.372 276.444 746.269 300.033 654.901 405.582 518.83 374.386 591.956 291.618 632.549 337.209Z" fill="#13BF9E" fill-rule="evenodd"/></g></svg>