<svg width="342" height="342" xmlns="http://www.w3.org/2000/svg" xmlns:xlink="http://www.w3.org/1999/xlink" overflow="hidden"><defs><clipPath id="clip0"><rect x="469" y="189" width="342" height="342"/></clipPath></defs><g clip-path="url(#clip0)" transform="translate(-469 -189)"><path d="M470 360C470 266.112 546.112 190 640 190 733.888 190 810 266.112 810 360 810 453.888 733.888 530 640 530 546.112 530 470 453.888 470 360Z" fill="#5E7CE2" fill-rule="evenodd"/><path d="M503 348.415C507.206 352.062 512.993 354.545 517.823 357.312 526.837 362.476 535.845 367.671 544.774 372.976 548.51 375.197 553.628 377.053 556.759 380.074 558.483 381.737 557.8 385.23 557.8 387.409 557.8 391.141 557.885 394.884 557.793 398.614 557.751 400.348 557.06 402.313 557.686 403.992 558.317 405.687 559.908 406.896 561.393 407.817 566.023 410.689 571.421 411.968 576.666 413.147 584.848 414.987 593.019 416.23 601.37 417.067 627.109 419.645 652.893 419.644 678.63 417.067 691.539 415.773 706.622 414.535 718.157 408.118 719.844 407.18 721.608 405.861 722.315 403.993 722.966 402.274 722.295 400.375 722.218 398.614 722.041 394.595 722.2 390.536 722.2 386.513 722.2 384.881 721.842 382.721 722.471 381.181 723.363 378.994 727.01 377.463 728.938 376.295 734.624 372.849 740.19 369.114 746.007 365.895L746.007 380.238C746.007 382.551 746.311 385.105 745.94 387.391 745.671 389.054 744.295 389.805 743.36 391.077 742.15 392.725 741.725 394.81 742.065 396.821 743.201 403.54 752.232 404.312 755.241 398.614 756.564 396.108 756.232 393.325 754.607 391.035 753.727 389.795 752.383 388.942 751.989 387.402 751.53 385.609 751.846 383.423 751.846 381.582L751.846 370.377C751.846 368.287 751.292 365.244 752.117 363.289 753.039 361.106 756.653 360.014 758.584 358.912 764.581 355.49 770.655 351.591 777 348.863 773.39 345.734 768.234 343.721 763.974 341.581 757.46 338.308 751.075 334.707 744.659 331.245 721.836 318.926 698.5 307.412 675.934 294.63 667.52 289.864 658.758 285.734 650.331 280.994 647.591 279.452 642.788 275.642 639.551 276.027 637.771 276.239 636.145 277.527 634.61 278.356 631.316 280.134 627.991 281.848 624.728 283.683 615.717 288.75 606.379 293.272 597.328 298.278 577.758 309.103 557.718 319.107 538.036 329.729 526.439 335.987 514.945 342.85 503 348.415Z" fill="#4065DC" fill-rule="evenodd"/><path d="M560.085 364.669C564.821 361.441 569.153 357.851 574.423 355.427 594.824 346.044 618.112 344.123 640.287 344.123 662.503 344.123 686.258 345.898 706.6 355.639 711.909 358.182 716.167 361.804 720.938 365.115 720.938 363.262 721.267 361.017 720.41 359.309 719.156 356.811 716.38 355.06 714.217 353.415 707.669 348.435 699.996 345.361 692.262 342.75 677.204 337.667 660.976 336.462 645.216 336.077 627.789 335.651 610.241 336.936 593.241 341.278 584.478 343.516 575.66 347.045 568.15 352.112 565.616 353.821 561.951 356.064 560.545 358.862 559.707 360.53 560.085 362.855 560.085 364.669M623.709 392.55C616.369 393.511 608.704 393.235 601.306 393.741 594.4 394.212 587.512 395.432 580.695 396.574 577.235 397.155 573.631 398.037 570.391 399.4 569.17 399.913 567.614 400.717 567.462 402.203 567.139 405.376 572.634 406.595 574.871 407.156 583.265 409.261 592.186 410.914 600.858 411.119 603.859 411.19 606.828 411.768 609.819 411.972 616.818 412.45 623.874 412.583 630.878 412.888 638.052 413.202 645.242 412.788 652.385 412.477 660.933 412.104 669.399 412.007 677.924 411.195 685.015 410.52 691.95 409.741 698.983 408.567 702.693 407.948 706.796 407.353 710.184 405.636 714.008 403.698 713.635 400.716 709.737 399.227 703.99 397.032 697.846 396.202 691.814 395.236 676.396 392.767 660.357 392.36 644.768 392.36 637.876 392.36 630.543 391.656 623.709 392.55Z" fill="#5E7CE2" fill-rule="evenodd"/><path d="M755.33 404C751.211 405.842 747.425 405.441 743.156 404.456 741.797 411.851 741.821 419.734 741.313 427.233 740.912 433.137 740.049 439.08 740 445 743.246 441.787 745.975 436.974 750.821 436.044 752.486 435.724 754.143 436.037 755.781 436.344L755.781 414.022C755.781 410.976 756.502 406.822 755.33 404Z" fill="#4065DC" fill-rule="evenodd"/><path d="M668.107 245.738C653.511 249.571 647.585 267.215 655.877 279.486 659.407 284.71 664.91 287.695 670.959 289.03 673.934 289.687 677.317 289.007 680.23 288.246 692.113 285.136 699.298 271.183 695.23 259.545 691.419 248.645 679.103 242.85 668.107 245.738M638.156 322.93C637.58 336.32 633.928 349.576 632.33 362.813 631.801 367.194 629.627 372.629 630.566 377.046 631.636 382.073 640.66 385.775 644.574 388.47 653.738 394.778 663.228 400.583 672.385 406.886 678.414 411.035 684.778 416.479 691.64 419.076 689.127 428.535 687.208 438.062 684.883 447.564 683.812 451.942 681.643 457.22 682.532 461.768 683.502 466.734 692.647 466.921 696.632 467.917 698.693 468.434 700.857 469.263 702.834 467.988 706.488 465.632 707.193 455.824 707.992 451.837 710.139 441.12 712.768 430.428 715.293 419.788 716.364 415.277 718.3 410.196 718.447 405.547 718.598 400.726 712.171 398.086 708.755 395.811 701.822 391.196 695.006 386.419 688.074 381.805 685.223 379.906 680.539 377.871 678.826 374.789 676.966 371.442 679.698 364.833 680.641 361.388 683.42 351.238 686.012 340.488 687.361 330.052 694.009 334.729 698.63 343.386 705.902 347.017 708.628 348.379 712.219 347.857 715.173 347.857L735.14 347.857C737.913 347.857 742.405 348.673 744.814 347.017 747.655 345.065 747.351 335.195 746.021 332.351 744.748 329.63 741.202 330.056 738.706 330.052 733.522 330.044 725.224 331.654 720.878 328.401 707.661 318.511 699.104 298.925 680.957 298.249 676.794 298.094 676.639 302.804 675.502 305.834 674.941 307.328 673.918 309.765 671.863 309.152 669.892 308.565 668.351 305.882 667.089 304.413 664.305 301.176 660.705 296.24 656.633 294.63 643.215 289.326 628.383 301.416 616.762 306.775 611.897 309.018 604.719 310.986 600.942 314.928 598.165 317.825 597.321 322.793 596.181 326.491 594.047 333.411 591.603 340.273 589.311 347.145 588.294 350.197 585.685 354.533 586.438 357.796 587.263 361.369 597.626 365.223 601.034 364.649 604.127 364.128 604.72 360.271 605.615 357.828 608.056 351.164 609.672 343.493 612.889 337.188 614.558 333.916 617.96 332.709 621.041 331.11 626.645 328.202 632.203 325.09 638.156 322.93M607.492 372.071C603.217 370.706 598.846 369.602 594.656 367.98L586.811 364.939C584.491 364.056 581.573 362.275 579.008 362.544 576.251 362.832 574.001 367.893 575.452 370.24 576.531 371.984 579.316 372.378 581.078 373.078 586.289 375.149 591.501 376.997 596.795 378.859 598.804 379.566 601.523 381.07 603.681 380.175 606.378 379.056 606.92 374.56 607.492 372.071M549.118 367.845C546.634 369.14 545.935 372.514 545.21 374.948 544.065 378.794 542.271 382.519 540.928 386.315 538.904 392.038 536.639 397.682 534.635 403.408 533.89 405.538 532.464 408.192 533.21 410.491 534.559 414.646 541.937 415.479 545.45 416.942 557.706 422.042 570.633 426.142 583.181 430.445 589.386 432.571 595.668 434.95 601.787 437.341 604.176 438.275 607.621 440.341 610.192 438.969 614.848 436.483 616.103 426.419 618.062 421.925 620.672 415.935 622.362 409.506 624.751 403.408 625.648 401.118 627.249 398.219 626.205 395.726 624.64 391.984 616.685 390.579 613.197 389.401 601.508 385.453 589.786 381.028 578.254 376.622 571.44 374.018 564.485 371.559 557.573 369.223 555.121 368.394 551.68 366.511 549.118 367.845M640.295 399.135C638.495 408.669 636.177 418.11 634.244 427.622 633.289 432.316 633.145 436.775 630.888 441.154 628.117 446.529 624.833 451.6 621.798 456.822 620.647 458.803 618.719 461.491 619.406 463.913 620.635 468.24 629.47 472.005 633.164 473.883 634.859 474.745 636.784 475.561 638.591 474.489 640.451 473.383 641.616 470.721 642.686 468.929 645.469 464.27 647.882 459.395 650.579 454.686 653.991 448.728 658.322 442.58 660.782 436.169 661.833 433.43 662.032 430.444 662.798 427.622 663.653 424.467 665.781 418.778 664.759 415.579 663.956 413.063 660.883 411.455 658.836 410.063 653.153 406.197 647.035 400.835 640.295 399.135Z" fill="#FFFFFF" fill-rule="evenodd"/></g></svg>