<svg width="343" height="344" xmlns="http://www.w3.org/2000/svg" xmlns:xlink="http://www.w3.org/1999/xlink" overflow="hidden"><defs><clipPath id="clip0"><rect x="417" y="6" width="343" height="344"/></clipPath><clipPath id="clip1"><rect x="418" y="7" width="342" height="343"/></clipPath><clipPath id="clip2"><rect x="418" y="6" width="342" height="344"/></clipPath><clipPath id="clip3"><rect x="418" y="-5" width="342" height="377"/></clipPath><clipPath id="clip4"><rect x="418" y="-5" width="342" height="377"/></clipPath></defs><g clip-path="url(#clip0)" transform="translate(-417 -6)"><g clip-path="url(#clip1)"><g clip-path="url(#clip2)"><g clip-path="url(#clip3)"><g clip-path="url(#clip4)"><path d="M469.997 359.998C469.997 266.11 546.108 189.999 639.996 189.999 733.883 189.999 809.995 266.11 809.995 359.998 809.995 453.885 733.883 529.997 639.996 529.997 546.108 529.997 469.997 453.885 469.997 359.998Z" fill="#06D6A0" fill-rule="evenodd" transform="matrix(1.00001 0 0 1 -51 -182.839)"/><path d="M534.83 230.998 549.163 230.998 549.163 252.662 565.996 297.998 517.997 297.998 534.83 252.663Z" fill="#13BF9E" fill-rule="evenodd" transform="matrix(1.00001 0 0 1 -51 -182.839)"/><path d="M518.348 377.998 532.646 377.998 532.646 399.758 532.815 401.17 535.422 401.699C544.574 405.594 550.996 414.712 550.996 425.34 550.996 439.51 539.579 450.997 525.497 450.997 511.414 450.997 499.997 439.51 499.997 425.34 499.997 414.712 506.419 405.594 515.571 401.699L518.096 401.186 518.348 399.759Z" fill="#13BF9E" fill-rule="evenodd" transform="matrix(1.00001 0 0 1 -51 -182.839)"/><path d="M636.761 324.302C639.378 325.622 640.429 328.814 639.109 331.432L634.436 340.692 633.837 341.455 638.352 343.733C639.933 344.531 640.568 346.459 639.77 348.041 638.973 349.622 637.044 350.257 635.463 349.459L631.274 347.345 611.874 380.424C610.554 383.043 609.583 385.214 606.966 383.893 604.348 382.573 605.223 380.353 606.543 377.735 610.978 368.946 614.329 359.611 618.223 350.548L621.892 342.612 617.297 340.293C615.716 339.496 615.081 337.567 615.879 335.986 616.676 334.405 618.605 333.769 620.186 334.567L624.702 336.846 624.959 335.91 629.631 326.649C630.952 324.032 634.144 322.981 636.761 324.302Z" fill="#13BF9E" fill-rule="evenodd" transform="matrix(1.00001 0 0 1 -51 -182.839)"/><path d="M529.781 350.783 529.781 353.005 531.054 352.055 532.103 350.783ZM517.038 350.783 517.038 358.5 519.573 358.244C520.682 358.017 521.761 357.71 522.805 357.328L525.7 356.019 525.7 350.783ZM504.294 350.783 504.294 356.019 507.189 357.328C508.233 357.71 509.312 358.017 510.421 358.244L512.956 358.5 512.956 350.783ZM497.891 350.783 498.94 352.055 500.212 353.005 500.212 350.783ZM529.781 338.039 529.781 346.701 534.908 346.701 535.919 344.837C536.494 343.478 536.94 342.053 537.242 340.574L537.498 338.039ZM517.038 338.039 517.038 346.701 525.7 346.701 525.7 338.039ZM504.294 338.039 504.294 346.701 512.956 346.701 512.956 338.039ZM492.495 338.039 492.751 340.574C493.053 342.053 493.499 343.478 494.074 344.837L495.086 346.701 500.212 346.701 500.212 338.039ZM529.781 325.295 529.781 333.957 537.479 333.957 537.153 331.007C536.883 329.803 536.517 328.635 536.064 327.511L534.958 325.295ZM517.038 325.295 517.038 333.957 525.7 333.957 525.7 325.295ZM504.294 325.295 504.294 333.957 512.956 333.957 512.956 325.295ZM495.035 325.295 493.929 327.511C493.476 328.635 493.11 329.803 492.84 331.007L492.514 333.957 500.212 333.957 500.212 325.295ZM529.781 318.773 529.781 321.213 532.211 321.213 529.857 318.828ZM500.212 318.773 500.137 318.828 497.783 321.213 500.212 321.213ZM517.038 313.496 517.038 321.213 525.7 321.213 525.7 316.046 523.323 314.865C522.12 314.391 520.867 314.016 519.573 313.752ZM512.956 313.496 510.421 313.752C509.127 314.016 507.874 314.391 506.671 314.865L504.294 316.046 504.294 321.213 512.956 321.213ZM514.997 308.998C529.909 308.998 541.996 321.086 541.996 335.998 541.996 350.91 529.909 362.998 514.997 362.998 500.085 362.998 487.997 350.91 487.997 335.998 487.997 321.086 500.085 308.998 514.997 308.998Z" fill="#13BF9E" fill-rule="evenodd" transform="matrix(1.00001 0 0 1 -51 -182.839)"/><path d="M577.364 328.638C575.27 330.716 575.257 334.099 577.335 336.193 579.414 338.287 582.796 338.3 584.891 336.221 586.985 334.143 586.997 330.76 584.919 328.666 582.841 326.572 579.458 326.559 577.364 328.638ZM554.425 332.891C562.771 325.201 581.185 316.55 587.887 320.928 595.547 325.933 589.336 335.829 592.06 338.45 594.783 341.071 599.48 333.411 604.229 336.653 608.977 339.896 596.182 361.101 587.715 366.628 579.249 372.155 563.495 379.711 553.428 369.816 543.361 359.919 545.785 344.234 551.528 336.087 552.246 335.068 553.233 333.989 554.425 332.891Z" fill="#13BF9E" fill-rule="evenodd" transform="matrix(1.00001 0 0 1 -51 -182.839)"/><path d="M591.212 216.904C571.574 228.242 565.954 255.27 578.658 277.274 591.362 299.279 617.58 307.926 637.218 296.588 656.856 285.25 662.476 258.221 649.772 236.217 637.068 214.213 610.85 205.566 591.212 216.904ZM587.41 210.319C610.079 197.231 640.456 207.408 655.26 233.048 670.064 258.689 663.689 290.086 641.02 303.173 618.352 316.261 587.974 306.084 573.17 280.443 558.366 254.801 564.741 223.406 587.41 210.319Z" stroke="#13BF9E" stroke-width="1.33332" stroke-miterlimit="8" fill="#13BF9E" fill-rule="evenodd" transform="matrix(1.00001 0 0 1 -51 -182.839)"/><path d="M574.737 223.978 622.704 307.058" stroke="#13BF9E" stroke-width="1.99999" stroke-miterlimit="8" fill="#13BF9E" fill-rule="evenodd" transform="matrix(1.00001 0 0 1 -51 -182.839)"/><path d="M586.911 216.949 634.878 300.029" stroke="#13BF9E" stroke-width="1.99999" stroke-miterlimit="8" fill="#13BF9E" fill-rule="evenodd" transform="matrix(1.00001 0 0 1 -51 -182.839)"/><path d="M580.824 220.463 628.791 303.543" stroke="#13BF9E" stroke-width="1.99999" stroke-miterlimit="8" fill="#13BF9E" fill-rule="evenodd" transform="matrix(1.00001 0 0 1 -51 -182.839)"/><path d="M599.084 209.921 647.051 293.001" stroke="#13BF9E" stroke-width="1.99999" stroke-miterlimit="8" fill="#13BF9E" fill-rule="evenodd" transform="matrix(1.00001 0 0 1 -51 -182.839)"/><path d="M592.997 213.435 640.964 296.515" stroke="#13BF9E" stroke-width="1.99999" stroke-miterlimit="8" fill="#13BF9E" fill-rule="evenodd" transform="matrix(1.00001 0 0 1 -51 -182.839)"/><path d="M570.57 230.816 614.697 307.246" stroke="#13BF9E" stroke-width="1.99999" stroke-miterlimit="8" fill="#13BF9E" fill-rule="evenodd" transform="matrix(1.00001 0 0 1 -51 -182.839)"/><path d="M613.178 206.218 657.305 282.647" stroke="#13BF9E" stroke-width="1.99999" stroke-miterlimit="8" fill="#13BF9E" fill-rule="evenodd" transform="matrix(1.00001 0 0 1 -51 -182.839)"/><path d="M605.171 206.406 653.138 289.487" stroke="#13BF9E" stroke-width="1.99999" stroke-miterlimit="8" fill="#13BF9E" fill-rule="evenodd" transform="matrix(1.00001 0 0 1 -51 -182.839)"/><path d="M566.658 252.154 594.262 299.965" stroke="#13BF9E" stroke-width="1.99999" stroke-miterlimit="8" fill="#13BF9E" fill-rule="evenodd" transform="matrix(1.00001 0 0 1 -51 -182.839)"/><path d="M633.613 213.499 661.216 261.309" stroke="#13BF9E" stroke-width="1.99999" stroke-miterlimit="8" fill="#13BF9E" fill-rule="evenodd" transform="matrix(1.00001 0 0 1 -51 -182.839)"/><path d="M566.851 238.432 606.243 306.659" stroke="#13BF9E" stroke-width="1.99999" stroke-miterlimit="8" fill="#13BF9E" fill-rule="evenodd" transform="matrix(1.00001 0 0 1 -51 -182.839)"/><path d="M621.632 206.805 661.024 275.031" stroke="#13BF9E" stroke-width="1.99999" stroke-miterlimit="8" fill="#13BF9E" fill-rule="evenodd" transform="matrix(1.00001 0 0 1 -51 -182.839)"/><path d="M584.226 294.175 658.662 251.199" stroke="#13BF9E" stroke-width="1.99999" stroke-miterlimit="8" fill="#13BF9E" fill-rule="evenodd" transform="matrix(1.00001 0 0 1 -51 -182.839)"/><path d="M577.197 282.001 651.633 239.026" stroke="#13BF9E" stroke-width="1.99999" stroke-miterlimit="8" fill="#13BF9E" fill-rule="evenodd" transform="matrix(1.00001 0 0 1 -51 -182.839)"/><path d="M580.712 288.088 655.147 245.112" stroke="#13BF9E" stroke-width="1.99999" stroke-miterlimit="8" fill="#13BF9E" fill-rule="evenodd" transform="matrix(1.00001 0 0 1 -51 -182.839)"/><path d="M570.169 269.828 644.605 226.853" stroke="#13BF9E" stroke-width="1.99999" stroke-miterlimit="8" fill="#13BF9E" fill-rule="evenodd" transform="matrix(1.00001 0 0 1 -51 -182.839)"/><path d="M573.683 275.914 648.119 232.939" stroke="#13BF9E" stroke-width="1.99999" stroke-miterlimit="8" fill="#13BF9E" fill-rule="evenodd" transform="matrix(1.00001 0 0 1 -51 -182.839)"/><path d="M590.719 298.542 659.197 259.006" stroke="#13BF9E" stroke-width="1.99999" stroke-miterlimit="8" fill="#13BF9E" fill-rule="evenodd" transform="matrix(1.00001 0 0 1 -51 -182.839)"/><path d="M566.12 255.934 634.597 216.399" stroke="#13BF9E" stroke-width="1.99999" stroke-miterlimit="8" fill="#13BF9E" fill-rule="evenodd" transform="matrix(1.00001 0 0 1 -51 -182.839)"/><path d="M566.655 263.741 641.09 220.766" stroke="#13BF9E" stroke-width="1.99999" stroke-miterlimit="8" fill="#13BF9E" fill-rule="evenodd" transform="matrix(1.00001 0 0 1 -51 -182.839)"/><path d="M610.568 303.313 653.404 278.582" stroke="#13BF9E" stroke-width="1.99999" stroke-miterlimit="8" fill="#13BF9E" fill-rule="evenodd" transform="matrix(1.00001 0 0 1 -51 -182.839)"/><path d="M571.912 236.358 614.748 211.628" stroke="#13BF9E" stroke-width="1.99999" stroke-miterlimit="8" fill="#13BF9E" fill-rule="evenodd" transform="matrix(1.00001 0 0 1 -51 -182.839)"/><path d="M597.908 302.507 659.036 267.214" stroke="#13BF9E" stroke-width="1.99999" stroke-miterlimit="8" fill="#13BF9E" fill-rule="evenodd" transform="matrix(1.00001 0 0 1 -51 -182.839)"/><path d="M566.28 247.725 627.408 212.434" stroke="#13BF9E" stroke-width="1.99999" stroke-miterlimit="8" fill="#13BF9E" fill-rule="evenodd" transform="matrix(1.00001 0 0 1 -51 -182.839)"/><path d="M634.738 300.11 641.434 296.244 697.543 393.427 690.846 397.294Z" stroke="#13BF9E" stroke-width="1.33332" stroke-miterlimit="8" fill="#13BF9E" fill-rule="evenodd" transform="matrix(1.00001 0 0 1 -51 -182.839)"/><path d="M670.067 367.788 682.381 360.679 703.865 397.892 691.552 405.002Z" stroke="#13BF9E" stroke-width="1.33332" stroke-miterlimit="8" fill="#13BF9E" fill-rule="evenodd" transform="matrix(1.00001 0 0 1 -51 -182.839)"/><path d="M670.067 367.788 666.679 347.701 682.381 360.679Z" stroke="#13BF9E" stroke-width="1.33332" stroke-miterlimit="8" fill="#13BF9E" fill-rule="evenodd" transform="matrix(1.00001 0 0 1 -51 -182.839)"/><path d="M587.265 457.997C585.775 427.915 583.26 396.771 584.173 384.817 585.086 372.863 595.934 378.763 592.742 386.27 589.551 393.778 564.066 412.396 565.022 429.865 565.979 447.334 581.584 446.552 587.079 446.819 592.575 447.086 598.039 437.764 597.996 431.467 597.952 425.17 590.271 420.538 585.477 420.438 580.683 420.339 575.914 424.189 575.939 430.871 575.964 437.553 582.49 440.696 586.967 440.41 591.445 440.124 592.792 437.143 592.742 433.852 592.693 430.561 587.731 430.126 586.669 429.381 585.607 428.636 586.371 429.381 586.371 429.381L586.371 429.381 586.371 429.381" stroke="#13BF9E" stroke-width="3.99997" stroke-linecap="round" stroke-miterlimit="8" fill="none" fill-rule="evenodd" transform="matrix(1.00001 0 0 1 -51 -182.839)"/><text fill="#13BF9E" font-family="Arial,Arial_MSFontService,sans-serif" font-weight="700" font-size="37" transform="matrix(0.867812 0.49689 -0.496893 0.867806 614.618 46)">ABC</text><text fill="#13BF9E" font-family="Arial,Arial_MSFontService,sans-serif" font-weight="700" font-size="37" transform="matrix(0.862666 0.505771 -0.505774 0.86266 481.087 290)">ABC</text><path d="M706.653 458.139C704.559 460.217 704.546 463.6 706.624 465.694 708.703 467.788 712.085 467.801 714.179 465.723 716.274 463.644 716.286 460.262 714.208 458.167 712.129 456.073 708.747 456.061 706.653 458.139ZM683.715 462.392C692.06 454.702 710.474 446.051 717.176 450.43 724.835 455.434 718.625 465.331 721.348 467.952 724.072 470.572 728.769 462.912 733.517 466.155 738.266 469.397 725.471 490.602 717.004 496.129 708.537 501.656 692.784 509.214 682.718 499.317 672.651 489.421 675.075 473.736 680.818 465.588 681.536 464.569 682.523 463.49 683.715 462.392Z" fill="#13BF9E" fill-rule="evenodd" transform="matrix(1.00001 0 0 1 -51 -182.839)"/><path d="M731.2 279.56 744.096 285.76 734.718 305.266 734.263 306.605 736.386 308.21C742.962 315.67 744.824 326.628 740.244 336.155 734.138 348.857 718.89 354.203 706.188 348.096 693.487 341.99 688.141 326.742 694.247 314.04 698.827 304.514 708.548 299.125 718.481 299.602L720.979 300.237 721.822 299.067Z" fill="#13BF9E" fill-rule="evenodd" transform="matrix(1.00001 0 0 1 -51 -182.839)"/><path d="M717.784 388.52 730.039 381.135 741.211 399.672 778.984 429.791 737.942 454.525 728.956 407.059Z" fill="#13BF9E" fill-rule="evenodd" transform="matrix(1.00001 0 0 1 -51 -182.839)"/><path d="M656.781 423.782 656.781 426.004 658.053 425.054 659.102 423.782ZM644.037 423.782 644.037 431.499 646.572 431.243C647.681 431.016 648.76 430.709 649.804 430.327L652.699 429.018 652.699 423.782ZM631.293 423.782 631.293 429.018 634.188 430.327C635.232 430.709 636.311 431.016 637.42 431.243L639.955 431.499 639.955 423.782ZM624.89 423.782 625.939 425.054 627.211 426.004 627.211 423.782ZM656.781 411.038 656.781 419.7 661.907 419.7 662.919 417.836C663.494 416.477 663.94 415.052 664.242 413.573L664.498 411.038ZM644.037 411.038 644.037 419.7 652.699 419.7 652.699 411.038ZM631.293 411.038 631.293 419.7 639.955 419.7 639.955 411.038ZM619.494 411.038 619.75 413.573C620.052 415.052 620.498 416.477 621.073 417.836L622.085 419.7 627.211 419.7 627.211 411.038ZM656.781 398.294 656.781 406.956 664.479 406.956 664.153 404.006C663.883 402.802 663.517 401.634 663.064 400.51L661.958 398.294ZM644.037 398.294 644.037 406.956 652.699 406.956 652.699 398.294ZM631.293 398.294 631.293 406.956 639.955 406.956 639.955 398.294ZM622.034 398.294 620.928 400.51C620.475 401.634 620.109 402.802 619.839 404.006L619.513 406.956 627.211 406.956 627.211 398.294ZM656.781 391.772 656.781 394.212 659.21 394.212 656.856 391.827ZM627.211 391.772 627.136 391.827 624.782 394.212 627.211 394.212ZM644.037 386.495 644.037 394.212 652.699 394.212 652.699 389.045 650.322 387.864C649.119 387.39 647.866 387.015 646.572 386.751ZM639.955 386.495 637.42 386.751C636.126 387.015 634.873 387.39 633.67 387.864L631.293 389.045 631.293 394.212 639.955 394.212ZM641.996 381.997C656.908 381.997 668.996 394.085 668.996 408.997 668.996 423.909 656.908 435.997 641.996 435.997 627.084 435.997 614.996 423.909 614.996 408.997 614.996 394.085 627.084 381.997 641.996 381.997Z" fill="#13BF9E" fill-rule="evenodd" transform="matrix(1.00001 0 0 1 -51 -182.839)"/><path d="M614.669 455.124C616.862 453.178 620.217 453.379 622.163 455.572L629.047 463.33 629.535 464.169 633.318 460.812C634.642 459.637 636.669 459.758 637.845 461.083 639.02 462.407 638.899 464.434 637.574 465.61L634.065 468.724 657.657 498.956C659.603 501.149 661.264 502.853 659.071 504.798 656.878 506.744 655.136 505.112 653.191 502.92 646.657 495.556 639.216 488.997 632.228 482.036L626.205 475.698 622.355 479.114C621.03 480.29 619.003 480.169 617.828 478.844 616.652 477.519 616.773 475.492 618.098 474.317L621.881 470.96 621.106 470.376 614.222 462.617C612.276 460.425 612.477 457.07 614.669 455.124Z" fill="#13BF9E" fill-rule="evenodd" transform="matrix(1.00001 0 0 1 -51 -182.839)"/><path d="M779.264 396.997C777.774 367.292 775.259 336.538 776.172 324.733 777.085 312.928 787.933 318.754 784.741 326.168 781.55 333.582 756.065 351.967 757.021 369.218 757.978 386.467 773.583 385.695 779.078 385.959 784.574 386.222 790.038 377.018 789.995 370.8 789.951 364.582 782.27 360.007 777.476 359.909 772.682 359.811 767.913 363.613 767.938 370.211 767.963 376.81 774.489 379.913 778.966 379.63 783.444 379.349 784.791 376.405 784.741 373.155 784.692 369.905 779.73 369.475 778.668 368.739 777.606 368.004 778.37 368.739 778.37 368.739L778.37 368.739 778.37 368.739" stroke="#13BF9E" stroke-width="3.99997" stroke-linecap="round" stroke-miterlimit="8" fill="none" fill-rule="evenodd" transform="matrix(1.00001 0 0 1 -51 -182.839)"/><path d="M679.401 314.351 685.642 320.592 680.871 339.941 681.004 340.073 584.018 437.059 583.976 437.017 542.914 457.079 562.976 416.017 562.935 415.976 563.054 415.856 563.054 415.856 563.055 415.856 659.702 319.209 659.702 319.209 659.702 319.209 659.921 318.99 660.053 319.122Z" fill="#FFFFFF" fill-rule="evenodd" transform="matrix(1.00001 0 0 1 -51 -182.839)"/><path d="M695.48 320.09C691.29 324.28 684.497 324.28 680.308 320.09 676.118 315.9 676.118 309.107 680.308 304.917 684.497 300.728 691.29 300.728 695.48 304.917 699.67 309.107 699.67 315.9 695.48 320.09ZM691.688 316.297C693.782 314.202 693.782 310.806 691.688 308.711 689.592 306.616 686.195 306.616 684.101 308.711 682.006 310.806 682.006 314.202 684.101 316.297 686.195 318.392 689.592 318.392 691.688 316.297Z" fill="#FFFFFF" fill-rule="evenodd" transform="matrix(1.00001 0 0 1 -51 -182.839)"/><path d="M752.646 265.489C747.92 270.216 740.257 270.216 735.531 265.489 730.805 260.763 730.805 253.101 735.531 248.375 740.257 243.648 747.92 243.648 752.646 248.375 757.372 253.101 757.372 260.763 752.646 265.489ZM749.818 262.662C752.983 259.497 752.983 254.367 749.818 251.202 746.654 248.038 741.523 248.038 738.359 251.202 735.194 254.367 735.194 259.497 738.359 262.662 741.523 265.826 746.654 265.826 749.818 262.662Z" fill="#FFFFFF" fill-rule="evenodd" transform="matrix(1.00001 0 0 1 -51 -182.839)"/><path d="M705.405 258.28C700.679 263.007 693.016 263.007 688.29 258.28 683.565 253.554 683.565 245.892 688.29 241.165 693.016 236.439 700.679 236.439 705.405 241.165 710.131 245.892 710.131 253.554 705.405 258.28ZM702.722 255.597C705.966 252.353 705.966 247.093 702.722 243.848 699.478 240.604 694.217 240.604 690.974 243.848 687.729 247.093 687.729 252.353 690.974 255.597 694.217 258.842 699.478 258.842 702.722 255.597Z" fill="#FFFFFF" fill-rule="evenodd" transform="matrix(1.00001 0 0 1 -51 -182.839)"/><path d="M695.647 308.432 691.966 304.75 734.726 261.99 738.408 265.671Z" fill="#FFFFFF" fill-rule="evenodd" transform="matrix(1.00001 0 0 1 -51 -182.839)"/><path d="M673.877 277.768 670.195 274.087 687.709 256.571 691.391 260.253Z" fill="#FFFFFF" fill-rule="evenodd" transform="matrix(1.00001 0 0 1 -51 -182.839)"/><path d="M670.306 274.268 675.196 272.481 686.839 304.342 681.949 306.129Z" fill="#FFFFFF" fill-rule="evenodd" transform="matrix(1.00001 0 0 1 -51 -182.839)"/><path d="M0 12.102C-1.54075e-15 5.41825 5.41825-1.54075e-15 12.102-3.08149e-15 18.7857-6.16299e-15 24.204 5.41825 24.204 12.102 24.204 18.7857 18.7857 24.204 12.102 24.204 5.41825 24.204-7.70374e-15 18.7857 0 12.102ZM4.14034 12.102C4.14034 16.4992 7.7049 20.0636 12.102 20.0636 16.4992 20.0636 20.0636 16.4992 20.0636 12.102 20.0636 7.7049 16.4992 4.14034 12.102 4.14034 7.7049 4.14034 4.14034 7.7049 4.14034 12.102Z" fill="#FFFFFF" fill-rule="evenodd" transform="matrix(0.707109 0.707104 0.707109 -0.707104 670.298 129.385)"/><path d="M0 0 5.20659 0 5.20659 13.7641 2.02789e-07 13.7641Z" fill="#FFFFFF" transform="matrix(0.707109 0.707104 0.707109 -0.707104 669.858 144.65)"/><path d="M0 0 5.20658 0 5.20658 33.9215 2.02788e-07 33.9215Z" fill="#FFFFFF" transform="matrix(0.343232 -0.939251 -0.939257 -0.34323 673.358 148.221)"/></g></g></g></g></g></svg>