<svg width="342" height="342" xmlns="http://www.w3.org/2000/svg" xmlns:xlink="http://www.w3.org/1999/xlink" overflow="hidden"><defs><clipPath id="clip0"><rect x="469" y="189" width="342" height="342"/></clipPath></defs><g clip-path="url(#clip0)" transform="translate(-469 -189)"><path d="M470 360C470 266.112 546.112 190 640 190 733.888 190 810 266.112 810 360 810 453.888 733.888 530 640 530 546.112 530 470 453.888 470 360Z" fill="#FFBC42" fill-rule="evenodd"/><path d="M541.586 222 640.125 320.371 738.477 222.187 748.335 229.546C756.753 236.482 764.494 244.209 771.441 252.613L778.287 261.752 679.847 360.024 779 459.008 771.441 469.099C764.494 477.503 756.753 485.23 748.335 492.166L739.43 498.813 640.125 399.678 540.633 499 531.478 492.166C523.059 485.23 515.319 477.503 508.371 469.099L501 459.258 600.404 360.024 501.713 261.502 508.371 252.613C515.319 244.209 523.059 236.482 531.478 229.546Z" fill="#FFA143" fill-rule="evenodd"/><path d="M602.14 267.144C600.592 267.583 599.66 269.036 598.902 270.356 597.194 273.329 595.602 277.083 594.995 280.475 594.685 282.205 594.912 283.935 596.293 285.144 597.678 286.355 599.651 286.962 601.3 287.718 605.088 289.454 608.934 291.063 612.772 292.68 624.403 297.584 636.034 302.471 647.748 307.178 651.554 308.707 655.339 310.344 659.22 311.674 661.164 312.34 663.031 313.209 665.096 312.487 666.976 311.83 667.857 310.309 668.647 308.583 670.358 304.842 674.343 297.547 670.36 294.084 668.964 292.871 666.771 292.363 665.096 291.639 661.293 289.997 657.466 288.371 653.624 286.827 642.193 282.234 630.905 277.286 619.487 272.661 615.597 271.085 611.712 269.456 607.736 268.108 606.087 267.549 603.89 266.648 602.14 267.144M655.862 317.859C641.846 312.398 628.13 306.153 614.171 300.544 610.421 299.037 606.724 297.399 602.979 295.878 601.655 295.34 599.715 294.022 598.252 294.149 597.134 294.245 596.742 295.917 596.382 296.777 595.208 299.587 594.053 302.406 592.864 305.21 588.753 314.905 584.714 324.659 580.818 334.443 579.853 336.867 578.812 339.275 577.983 341.751 577.698 342.603 577.059 343.859 577.417 344.765 577.794 345.721 579.455 346.167 580.315 346.526L588.709 350.021C599.773 354.685 610.865 359.311 622.006 363.787 625.181 365.064 628.358 366.337 631.519 367.649 632.37 368.003 634.081 368.995 634.978 368.433 635.918 367.845 636.271 366.046 636.674 365.08 637.927 362.083 639.163 359.077 640.431 356.086 643.832 348.063 647.026 339.953 650.385 331.913 651.633 328.923 652.873 325.929 654.071 322.918 654.727 321.271 655.562 319.612 655.862 317.859M659.401 340.353C658.497 341.002 658.163 342.736 657.742 343.718 656.546 346.514 655.458 349.355 654.262 352.151 653.843 353.129 652.852 354.712 653.178 355.805 653.476 356.802 654.593 357.629 655.302 358.333 657.174 360.192 659.283 361.853 661.458 363.339 664.626 365.504 668.15 367.162 671.531 368.954 676.826 371.76 682.16 374.481 687.48 377.24 700.967 384.233 714.483 391.351 728.331 397.6 736.41 401.246 748.02 401.793 755.192 395.868 756.293 394.958 757.198 393.83 757.966 392.626 763.77 383.517 756.04 372.964 748.757 367.653 742.155 362.838 733.452 360.986 725.813 358.428 711.3 353.568 696.675 349.046 682.164 344.187 676.673 342.348 671.154 340.864 665.375 340.324 663.849 340.182 660.749 339.386 659.401 340.353M568.563 350.055C567.155 350.345 565.936 351.282 565.104 352.433 564.256 353.606 563.728 355.033 563.19 356.367 561.814 359.786 558.603 365.236 562.157 368.344 563.81 369.789 566.298 370.624 568.283 371.506 571.899 373.112 575.55 374.625 579.196 376.162 590.533 380.941 601.84 385.898 613.332 390.289 617.079 391.721 620.8 393.268 624.524 394.763 626.106 395.398 628.1 396.506 629.84 396.055 634.404 394.872 636.134 387.929 637.275 383.913 637.881 381.781 638.395 379.764 636.54 378.103 635.201 376.903 633.388 376.207 631.799 375.411 627.979 373.498 623.98 371.959 620.047 370.302 608.703 365.52 597.333 360.788 585.911 356.198 581.999 354.626 578.079 353.079 574.159 351.531 572.498 350.876 570.397 349.677 568.563 350.055M543.94 432.259C541.876 432.521 539.931 432.744 538.356 434.256 535.085 437.396 535.092 444.395 539.184 446.873 541.322 448.168 544.355 447.719 546.738 447.719 551.494 447.719 556.239 448 561.008 448L624.524 448C631.156 448 637.777 448.02 644.39 447.73 647.614 447.588 651.358 448.131 654.463 447.06 658.404 445.699 658.652 438.57 656.639 435.633 654.959 433.182 652.474 432.612 649.706 432.259 649.706 428.93 650.361 424.793 649.444 421.578 649.089 420.336 648.299 418.692 647.159 418.009 645.138 416.799 642.158 417.132 639.913 417.076 635.069 416.957 630.226 416.8 625.363 416.8L571.361 416.8 555.132 416.8C553.099 416.8 549.984 416.218 548.137 417.17 542.867 419.888 543.94 427.34 543.94 432.259Z" fill="#FFFFFF" fill-rule="evenodd"/></g></svg>