<svg width="342" height="342" xmlns="http://www.w3.org/2000/svg" xmlns:xlink="http://www.w3.org/1999/xlink" overflow="hidden"><defs><clipPath id="clip0"><rect x="469" y="189" width="342" height="342"/></clipPath></defs><g clip-path="url(#clip0)" transform="translate(-469 -189)"><path d="M470 360C470 266.112 546.112 190 640 190 733.888 190 810 266.112 810 360 810 453.888 733.888 530 640 530 546.112 530 470 453.888 470 360Z" fill="#FF718F" fill-rule="evenodd"/><path d="M640 320.78C667.062 320.78 689 342.63 689 369.583L689 423 591 423 591 369.583C591 342.63 612.938 320.78 640 320.78ZM640 243C660.851 243 677.754 259.835 677.754 280.602 677.754 301.369 660.851 318.204 640 318.204 619.149 318.204 602.246 301.369 602.246 280.602 602.246 259.835 619.149 243 640 243Z" fill="#FFFFFF" fill-rule="evenodd"/><path d="M562.779 333 634.016 349.826 634.016 349.859 646.984 349.859 646.984 349.826 718.221 333C726.136 339.023 725.937 336.165 726 339.314L718.556 440.174 647.318 457 647.01 358.317 633.99 358.317 633.682 457 562.444 440.174 555 339.314C555.063 336.165 554.864 339.023 562.779 333Z" fill="#F2F2F2" fill-rule="evenodd"/><path d="M645.289 477.118 644.909 355.395 725.664 336.285 726.044 458.008Z" fill="#FF335F" fill-rule="evenodd"/><path d="M0 118.539 27.6618 0 110.647 0 82.9853 118.539Z" fill="#FF335F" fill-rule="evenodd" transform="matrix(-0.973124 -0.230282 -0.230282 0.973124 662.009 361.765)"/><rect x="635" y="355" width="10" height="122" fill="#EE0033"/><path d="M682.403 378.174C675.837 378.481 669.113 381.055 662.231 385.898L649.844 394.615 690.435 452.297 702.822 443.58C711.998 437.123 717.327 429.631 718.81 421.104 720.293 412.577 717.836 403.768 711.437 394.675 705.039 385.583 697.532 380.233 688.917 378.624 686.764 378.222 684.592 378.072 682.403 378.174ZM687.485 358.544C694.41 358.547 701.045 360.034 707.392 363.005 711.623 364.985 715.567 367.565 719.223 370.745L725.795 378.118 726.01 447.463 725.914 447.582C722.51 451.319 718.514 454.801 713.926 458.03L707.832 462.318 676.51 469.73 645.126 425.132 644.973 375.966 652.467 370.693C661.643 364.236 670.975 360.35 680.464 359.035 682.837 358.707 685.177 358.543 687.485 358.544Z" fill="#FF718F" fill-rule="evenodd"/></g></svg>