<svg width="342" height="342" xmlns="http://www.w3.org/2000/svg" xmlns:xlink="http://www.w3.org/1999/xlink" overflow="hidden"><defs><clipPath id="clip0"><rect x="469" y="189" width="342" height="342"/></clipPath></defs><g clip-path="url(#clip0)" transform="translate(-469 -189)"><path d="M470 360C470 266.112 546.112 190 640 190 733.888 190 810 266.112 810 360 810 453.888 733.888 530 640 530 546.112 530 470 453.888 470 360Z" fill="#5E7CE2" fill-rule="evenodd"/><path d="M529 295.781C529 287.617 535.617 281 543.781 281L736.219 281C744.383 281 751 287.617 751 295.781L751 432.219C751 440.383 744.383 447 736.219 447L543.781 447C535.617 447 529 440.383 529 432.219Z" fill="#FFFFFF" fill-rule="evenodd"/><path d="M538 297.742C538 293.466 541.466 290 545.742 290L734.258 290C738.534 290 742 293.466 742 297.742L742 431.258C742 435.534 738.534 439 734.258 439L545.742 439C541.466 439 538 435.534 538 431.258Z" fill="#4065DC" fill-rule="evenodd"/><path d="M656 305.094C656 301.728 658.728 299 662.094 299L672.906 299C676.272 299 679 301.728 679 305.094L679 314.906C679 318.272 676.272 321 672.906 321L662.094 321C658.728 321 656 318.272 656 314.906Z" fill="#5E7CE2" fill-rule="evenodd"/><path d="M683 305.094C683 301.728 685.728 299 689.094 299L699.906 299C703.272 299 706 301.728 706 305.094L706 314.906C706 318.272 703.272 321 699.906 321L689.094 321C685.728 321 683 318.272 683 314.906Z" fill="#5E7CE2" fill-rule="evenodd"/><path d="M710 305.094C710 301.728 712.728 299 716.094 299L726.906 299C730.272 299 733 301.728 733 305.094L733 314.906C733 318.272 730.272 321 726.906 321L716.094 321C712.728 321 710 318.272 710 314.906Z" fill="#5E7CE2" fill-rule="evenodd"/><path d="M547 332.371C547 328.852 549.852 326 553.371 326L563.629 326C567.148 326 570 328.852 570 332.371L570 342.629C570 346.148 567.148 349 563.629 349L553.371 349C549.852 349 547 346.148 547 342.629Z" fill="#5E7CE2" fill-rule="evenodd"/><path d="M574 332.371C574 328.852 576.852 326 580.371 326L590.629 326C594.148 326 597 328.852 597 332.371L597 342.629C597 346.148 594.148 349 590.629 349L580.371 349C576.852 349 574 346.148 574 342.629Z" fill="#5E7CE2" fill-rule="evenodd"/><path d="M601 332.371C601 328.852 603.852 326 607.371 326L617.629 326C621.148 326 624 328.852 624 332.371L624 342.629C624 346.148 621.148 349 617.629 349L607.371 349C603.852 349 601 346.148 601 342.629Z" fill="#5E7CE2" fill-rule="evenodd"/><path d="M629 332.094C629 328.728 631.728 326 635.094 326L644.906 326C648.272 326 651 328.728 651 332.094L651 342.906C651 346.272 648.272 349 644.906 349L635.094 349C631.728 349 629 346.272 629 342.906Z" fill="#5E7CE2" fill-rule="evenodd"/><path d="M656 332.371C656 328.852 658.852 326 662.371 326L672.629 326C676.148 326 679 328.852 679 332.371L679 342.629C679 346.148 676.148 349 672.629 349L662.371 349C658.852 349 656 346.148 656 342.629Z" fill="#5E7CE2" fill-rule="evenodd"/><path d="M683 332.371C683 328.852 685.852 326 689.371 326L699.629 326C703.148 326 706 328.852 706 332.371L706 342.629C706 346.148 703.148 349 699.629 349L689.371 349C685.852 349 683 346.148 683 342.629Z" fill="#5E7CE2" fill-rule="evenodd"/><path d="M710 332.371C710 328.852 712.852 326 716.371 326L726.629 326C730.148 326 733 328.852 733 332.371L733 342.629C733 346.148 730.148 349 726.629 349L716.371 349C712.852 349 710 346.148 710 342.629Z" fill="#5E7CE2" fill-rule="evenodd"/><path d="M547 360.094C547 356.728 549.728 354 553.094 354L563.906 354C567.272 354 570 356.728 570 360.094L570 369.906C570 373.272 567.272 376 563.906 376L553.094 376C549.728 376 547 373.272 547 369.906Z" fill="#5E7CE2" fill-rule="evenodd"/><path d="M574 360.094C574 356.728 576.728 354 580.094 354L590.906 354C594.272 354 597 356.728 597 360.094L597 369.906C597 373.272 594.272 376 590.906 376L580.094 376C576.728 376 574 373.272 574 369.906Z" fill="#5E7CE2" fill-rule="evenodd"/><path d="M601 360.094C601 356.728 603.728 354 607.094 354L617.906 354C621.272 354 624 356.728 624 360.094L624 369.906C624 373.272 621.272 376 617.906 376L607.094 376C603.728 376 601 373.272 601 369.906Z" fill="#5E7CE2" fill-rule="evenodd"/><path d="M629 360.094C629 356.728 631.728 354 635.094 354L644.906 354C648.272 354 651 356.728 651 360.094L651 369.906C651 373.272 648.272 376 644.906 376L635.094 376C631.728 376 629 373.272 629 369.906Z" fill="#5E7CE2" fill-rule="evenodd"/><path d="M656 360.094C656 356.728 658.728 354 662.094 354L672.906 354C676.272 354 679 356.728 679 360.094L679 369.906C679 373.272 676.272 376 672.906 376L662.094 376C658.728 376 656 373.272 656 369.906Z" fill="#5E7CE2" fill-rule="evenodd"/><path d="M683 360.094C683 356.728 685.728 354 689.094 354L699.906 354C703.272 354 706 356.728 706 360.094L706 369.906C706 373.272 703.272 376 699.906 376L689.094 376C685.728 376 683 373.272 683 369.906Z" fill="#5E7CE2" fill-rule="evenodd"/><path d="M710 360.094C710 356.728 712.728 354 716.094 354L726.906 354C730.272 354 733 356.728 733 360.094L733 369.906C733 373.272 730.272 376 726.906 376L716.094 376C712.728 376 710 373.272 710 369.906Z" fill="#5E7CE2" fill-rule="evenodd"/><path d="M547 387.371C547 383.852 549.852 381 553.371 381L563.629 381C567.148 381 570 383.852 570 387.371L570 397.629C570 401.148 567.148 404 563.629 404L553.371 404C549.852 404 547 401.148 547 397.629Z" fill="#5E7CE2" fill-rule="evenodd"/><path d="M574 387.371C574 383.852 576.852 381 580.371 381L590.629 381C594.148 381 597 383.852 597 387.371L597 397.629C597 401.148 594.148 404 590.629 404L580.371 404C576.852 404 574 401.148 574 397.629Z" fill="#5E7CE2" fill-rule="evenodd"/><path d="M601 387.371C601 383.852 603.852 381 607.371 381L617.629 381C621.148 381 624 383.852 624 387.371L624 397.629C624 401.148 621.148 404 617.629 404L607.371 404C603.852 404 601 401.148 601 397.629Z" fill="#5E7CE2" fill-rule="evenodd"/><path d="M629 387.094C629 383.728 631.728 381 635.094 381L644.906 381C648.272 381 651 383.728 651 387.094L651 397.906C651 401.272 648.272 404 644.906 404L635.094 404C631.728 404 629 401.272 629 397.906Z" fill="#5E7CE2" fill-rule="evenodd"/><path d="M656 387.371C656 383.852 658.852 381 662.371 381L672.629 381C676.148 381 679 383.852 679 387.371L679 397.629C679 401.148 676.148 404 672.629 404L662.371 404C658.852 404 656 401.148 656 397.629Z" fill="#5E7CE2" fill-rule="evenodd"/><path d="M683 387.371C683 383.852 685.852 381 689.371 381L699.629 381C703.148 381 706 383.852 706 387.371L706 397.629C706 401.148 703.148 404 699.629 404L689.371 404C685.852 404 683 401.148 683 397.629Z" fill="#5E7CE2" fill-rule="evenodd"/><path d="M710 387.371C710 383.852 712.852 381 716.371 381L726.629 381C730.148 381 733 383.852 733 387.371L733 397.629C733 401.148 730.148 404 726.629 404L716.371 404C712.852 404 710 401.148 710 397.629Z" fill="#5E7CE2" fill-rule="evenodd"/><path d="M547 414.371C547 410.852 549.852 408 553.371 408L563.629 408C567.148 408 570 410.852 570 414.371L570 424.629C570 428.148 567.148 431 563.629 431L553.371 431C549.852 431 547 428.148 547 424.629Z" fill="#5E7CE2" fill-rule="evenodd"/><path d="M574 414.371C574 410.852 576.852 408 580.371 408L590.629 408C594.148 408 597 410.852 597 414.371L597 424.629C597 428.148 594.148 431 590.629 431L580.371 431C576.852 431 574 428.148 574 424.629Z" fill="#5E7CE2" fill-rule="evenodd"/><path d="M601 414.371C601 410.852 603.852 408 607.371 408L617.629 408C621.148 408 624 410.852 624 414.371L624 424.629C624 428.148 621.148 431 617.629 431L607.371 431C603.852 431 601 428.148 601 424.629Z" fill="#5E7CE2" fill-rule="evenodd"/><path d="M574 305.094C574 301.728 576.728 299 580.094 299L590.906 299C594.272 299 597 301.728 597 305.094L597 314.906C597 318.272 594.272 321 590.906 321L580.094 321C576.728 321 574 318.272 574 314.906Z" fill="#5E7CE2" fill-rule="evenodd"/><path d="M601 305.094C601 301.728 603.728 299 607.094 299L617.906 299C621.272 299 624 301.728 624 305.094L624 314.906C624 318.272 621.272 321 617.906 321L607.094 321C603.728 321 601 318.272 601 314.906Z" fill="#5E7CE2" fill-rule="evenodd"/><path d="M629 305.094C629 301.728 631.728 299 635.094 299L644.906 299C648.272 299 651 301.728 651 305.094L651 314.906C651 318.272 648.272 321 644.906 321L635.094 321C631.728 321 629 318.272 629 314.906Z" fill="#5E7CE2" fill-rule="evenodd"/><path d="M572 277.5C572 275.015 574.015 273 576.5 273L576.5 273C578.985 273 581 275.015 581 277.5L581 290.5C581 292.985 578.985 295 576.5 295L576.5 295C574.015 295 572 292.985 572 290.5Z" fill="#F2F2F2" fill-rule="evenodd"/><path d="M699 277.5C699 275.015 701.015 273 703.5 273L703.5 273C705.985 273 708 275.015 708 277.5L708 290.5C708 292.985 705.985 295 703.5 295L703.5 295C701.015 295 699 292.985 699 290.5Z" fill="#F2F2F2" fill-rule="evenodd"/></g></svg>