<svg width="342" height="342" xmlns="http://www.w3.org/2000/svg" xmlns:xlink="http://www.w3.org/1999/xlink" overflow="hidden"><defs><clipPath id="clip0"><rect x="469" y="189" width="342" height="342"/></clipPath></defs><g clip-path="url(#clip0)" transform="translate(-469 -189)"><path d="M470.517 350 809.483 350 810 360.234C810 453.993 733.888 530 640 530 546.112 530 470 453.993 470 360.234Z" fill="#06D6A0" fill-rule="evenodd"/><path d="M681.234 414.745C680.299 414.745 679.919 415.47 679.469 416.264 677.914 419.159 676.634 422.332 672.796 423.126 671.275 423.402 670.479 424.505 670.203 426.195 669.547 429.885 669.927 433.645 667.818 437.265 665.985 440.507 669.305 446.301 672.14 446.301 672.236 446.305 672.33 446.307 672.424 446.307 675.267 446.307 676.545 444.295 676.98 442.024 678.086 436.886 680.057 432.059 681.994 427.229 683.48 423.472 684.173 420.023 682.374 416.298 682.098 415.677 682.202 414.781 681.234 414.745ZM760.898 377.598C760.298 377.598 759.77 377.766 759.308 378.225 758.479 379.019 758.998 379.847 759.62 380.398 762.145 382.709 764.358 385.329 766.225 388.193 770.27 394.089 772.379 401.573 779.812 404.642 779.916 404.712 779.952 404.849 779.952 404.987 778.5 408.573 781.645 408.332 783.444 408.848 788.354 410.193 793.332 411.125 798.416 411.608 799.046 411.68 799.73 411.975 800.303 411.975 800.829 411.975 801.259 411.724 801.459 410.814 801.839 409.16 800.178 408.781 799.106 408.09 794.75 405.4 789.494 406.228 784.896 404.434 784.694 404.359 784.46 404.339 784.214 404.339 783.94 404.339 783.652 404.362 783.384 404.362 782.811 404.362 782.325 404.249 782.233 403.538 782.025 401.986 781.715 400.124 783.306 398.883 784.446 397.951 784.1 397.227 783.444 396.055 782.303 393.952 779.19 394.676 778.638 393.261 777.569 390.408 775.192 388.891 773.466 386.762 773.472 386.768 773.479 386.772 773.486 386.778L773.451 386.744C773.456 386.75 773.46 386.756 773.466 386.762 772.469 385.938 771.507 385.048 770.442 384.261 767.607 382.158 765.844 378.64 762.005 377.742 761.613 377.654 761.245 377.598 760.898 377.598ZM683.537 359.965 677.948 361.431C675.563 362.157 674.044 362.624 672.97 362.624 672.033 362.624 671.435 362.268 670.897 361.417L670.323 360.217 673.824 360.191ZM809.37 348 810 360.45C810 366.302 809.703 372.085 809.122 377.785L807.654 387.382 807.301 386.744C806.403 384.95 804.432 383.262 806.955 381.088 807.648 380.502 809.41 379.949 808.546 378.606 807.371 376.846 805.643 375.296 803.534 374.777 803.406 374.743 803.282 374.725 803.164 374.725 802.129 374.725 801.451 375.99 801.079 376.95 799.832 379.949 796.997 381.434 794.888 383.605 793.958 384.535 792.339 386.117 791.173 386.117 791.083 386.117 790.997 386.107 790.913 386.089 790.367 385.962 789.904 385.904 789.51 385.904 787.131 385.904 787.261 388.013 786.935 389.641 786.833 393.503 790.082 397.709 793.368 398.917 794.11 399.194 794.872 399.224 795.613 399.224 795.811 399.224 796.007 399.222 796.201 399.222 796.903 399.222 797.573 399.25 798.174 399.503 799.148 399.928 799.954 400.144 800.627 400.144 802.193 400.144 803.024 398.966 803.534 396.504 803.982 394.227 804.984 391.158 806.713 390.262L807.275 389.859 806.546 394.62 802.513 410.263 802.392 410.331C801.981 410.519 801.858 410.985 801.91 411.404L802.076 411.636 796.641 426.446C770.833 487.301 710.416 530 640 530 587.188 530 540 505.982 508.82 468.299L501.389 458.389 502.433 456.44C503.92 454.197 505.787 451.784 504.576 448.611 503.54 445.784 505.407 444.542 507.344 442.886 510.007 440.645 514.12 440.921 515.953 438.61 519.687 433.886 521.071 428.023 521.243 421.953 521.313 419.712 520.621 417.505 522.766 415.506 524.771 413.54 526.361 411.229 527.502 408.677 530.199 402.642 528.608 399.607 521.035 395.089 519.222 394.016 517.518 392.643 515.339 392.643 515.067 392.643 514.789 392.665 514.501 392.711 514.242 392.75 513.992 392.768 513.748 392.768 512.124 392.768 510.771 391.942 509.418 391.192 506.929 389.813 504.334 388.675 501.639 387.778 500.325 387.364 498.216 387.123 497.938 384.916 497.281 379.338 494.182 372.793 487.898 372.793 487.575 372.793 487.247 372.811 486.909 372.847 486.701 372.879 486.495 372.895 486.291 372.895 485.226 372.895 484.21 372.454 483.486 371.674 481.099 369.295 478.922 366.639 476.189 364.707 474.78 363.696 473.349 362.043 471.391 362.043L470.094 362.303 470 360.45 470.576 349.081 473.017 350.28C482.075 353.596 508.338 356.443 544.515 358.275L549.609 358.506 550.039 359.594C550.541 360.487 551.153 361.276 551.844 361.88 552.432 362.396 552.916 362.983 553.228 363.674 555.647 368.571 558.518 373.087 563.359 375.984 564.507 376.673 565.704 377.954 566.888 377.954 567.13 377.954 567.372 377.9 567.612 377.778 573.249 374.984 579.887 378.157 585.384 374.226 586.258 373.603 587.482 373.184 588.723 373.184 590.234 373.184 591.766 373.805 592.715 375.433 593.677 377.098 594.686 377.77 596.176 377.77 596.506 377.77 596.862 377.736 597.245 377.674 597.599 377.618 597.933 377.592 598.245 377.592 601.042 377.592 602.155 379.746 601.532 382.847 600.978 385.674 599.111 388.881 600.702 391.4 602.535 394.365 604.644 397.227 606.026 400.366 608.447 405.849 610.212 411.676 607.169 417.643 605.232 421.402 604.852 425.368 606.685 429.093 608.621 432.989 610.072 436.886 610.592 441.266 611.04 445.231 611.006 449.507 614.36 452.646 616.262 454.474 616.781 457.164 617.645 459.577 618.405 461.716 616.711 464.406 619.306 466.268 620.032 466.811 620.718 467.006 621.383 467.006 623.091 467.006 624.652 465.715 626.367 465.715 626.399 465.715 626.431 465.715 626.463 465.715 626.675 465.721 626.883 465.723 627.091 465.723 637.501 465.723 642.901 458.994 647.139 450.507 648.004 448.783 647.071 446.231 649.284 445.335 653.156 443.749 654.02 440.679 653.018 437.335 651.531 432.404 654.228 430.576 657.998 428.92 663.184 426.575 666.537 415.126 663.564 410.539 661.177 406.883 661.835 402.848 662.526 399.054 663.46 393.677 667.506 390.089 671.343 386.778 678.846 380.294 683.756 372.466 685.865 362.845 686.027 362.135 686.106 361.379 685.92 360.801L684.575 359.941 705.735 359.449C710.82 359.288 715.778 359.109 720.595 358.913L731.23 358.428 735.934 368.156C736.618 369.463 737.419 370.309 738.249 370.309 738.973 370.309 739.72 369.664 740.43 368.122 740.914 367.088 741.742 366.19 742.435 365.26L742.469 365.226 742.469 373.019C742.777 374.212 743.301 375.134 744.55 375.134 744.71 375.134 744.88 375.118 745.062 375.088 746.652 374.846 748.279 373.709 747.933 372.364 747.57 370.846 747.068 369.355 746.26 368.057L742.753 364.92 743.715 360.103 743.535 357.775 747.699 357.541C756.095 357.022 763.815 356.444 770.744 355.815L777.295 355.158 778.258 358.052C780.228 362.57 777.565 367.846 781.403 372.225 784.17 375.397 784.412 380.294 787.489 383.537 788.492 384.054 789.46 384.571 790.463 385.054 790.767 385.189 791.089 385.259 791.383 385.259 792.059 385.259 792.581 384.892 792.365 384.124 791.327 380.294 791.673 376.054 787.627 373.19 784.516 370.983 782.165 367.535 782.613 363.259 782.743 362.147 781.511 359.385 783.077 359.385 783.598 359.385 784.43 359.691 785.727 360.467 788.078 361.914 790.463 363.811 791.189 365.707 791.883 367.599 792.559 368.227 793.244 368.227 794.194 368.227 795.156 367.016 796.203 366.294 796.755 365.915 797.135 365.224 797.724 364.915 801.181 363.087 802.115 360.431 801.181 356.603L799.24 352.049 801.92 351.5C805.232 350.703 807.525 349.871 808.686 349.015Z" fill="#5E7CE2" fill-rule="evenodd"/><path d="M639.5 190C727.599 190 800.059 256.845 808.773 342.504L809 347 470 347 470.227 342.504C478.941 256.845 551.401 190 639.5 190Z" fill="#E2E2E2" fill-rule="evenodd"/><path d="M470 347.5C470 340.596 546.112 335 640 335 733.888 335 810 340.596 810 347.5 810 354.404 733.888 360 640 360 546.112 360 470 354.404 470 347.5Z" fill="#4065DC" fill-rule="evenodd"/><path d="M681.234 414.745C680.299 414.745 679.919 415.47 679.469 416.264 677.914 419.159 676.634 422.332 672.796 423.126 671.275 423.402 670.479 424.505 670.203 426.195 669.547 429.885 669.927 433.645 667.818 437.265 665.985 440.507 669.305 446.301 672.14 446.301 672.236 446.305 672.33 446.307 672.424 446.307 675.267 446.307 676.545 444.295 676.98 442.024 678.086 436.886 680.057 432.059 681.994 427.229 683.48 423.472 684.173 420.023 682.374 416.298 682.098 415.677 682.202 414.781 681.234 414.745ZM760.898 377.598C760.298 377.598 759.77 377.766 759.308 378.225 758.479 379.019 758.998 379.847 759.62 380.398 762.145 382.709 764.358 385.329 766.225 388.193 770.27 394.089 772.379 401.573 779.812 404.642 779.916 404.712 779.952 404.849 779.952 404.987 778.5 408.573 781.645 408.332 783.444 408.848 788.354 410.193 793.332 411.125 798.416 411.608 799.046 411.68 799.73 411.975 800.303 411.975 800.829 411.975 801.259 411.724 801.459 410.814 801.839 409.16 800.178 408.781 799.106 408.09 794.75 405.4 789.494 406.228 784.896 404.434 784.694 404.359 784.46 404.339 784.214 404.339 783.94 404.339 783.652 404.362 783.384 404.362 782.811 404.362 782.325 404.249 782.233 403.538 782.025 401.986 781.715 400.124 783.306 398.883 784.446 397.951 784.1 397.227 783.444 396.055 782.303 393.952 779.19 394.676 778.638 393.261 777.569 390.408 775.192 388.891 773.466 386.762 773.472 386.768 773.479 386.772 773.486 386.778L773.451 386.744C773.456 386.75 773.46 386.756 773.466 386.762 772.469 385.938 771.507 385.048 770.442 384.261 767.607 382.158 765.844 378.64 762.005 377.742 761.613 377.654 761.245 377.598 760.898 377.598ZM683.537 359.965 677.948 361.431C675.563 362.157 674.044 362.624 672.97 362.624 672.033 362.624 671.435 362.268 670.897 361.417L670.323 360.217 673.824 360.191ZM809.37 348 810 360.45C810 366.302 809.703 372.085 809.122 377.785L807.654 387.382 807.301 386.744C806.403 384.95 804.432 383.262 806.955 381.088 807.648 380.502 809.41 379.949 808.546 378.606 807.371 376.846 805.643 375.296 803.534 374.777 803.406 374.743 803.282 374.725 803.164 374.725 802.129 374.725 801.451 375.99 801.079 376.95 799.832 379.949 796.997 381.434 794.888 383.605 793.958 384.535 792.339 386.117 791.173 386.117 791.083 386.117 790.997 386.107 790.913 386.089 790.367 385.962 789.904 385.904 789.51 385.904 787.131 385.904 787.261 388.013 786.935 389.641 786.833 393.503 790.082 397.709 793.368 398.917 794.11 399.194 794.872 399.224 795.613 399.224 795.811 399.224 796.007 399.222 796.201 399.222 796.903 399.222 797.573 399.25 798.174 399.503 799.148 399.928 799.954 400.144 800.627 400.144 802.193 400.144 803.024 398.966 803.534 396.504 803.982 394.227 804.984 391.158 806.713 390.262L807.275 389.859 806.546 394.62 802.513 410.263 802.392 410.331C801.981 410.519 801.858 410.985 801.91 411.404L802.076 411.636 796.641 426.446C770.833 487.301 710.416 530 640 530 587.188 530 540 505.982 508.82 468.299L501.389 458.389 502.433 456.44C503.92 454.197 505.787 451.784 504.576 448.611 503.54 445.784 505.407 444.542 507.344 442.886 510.007 440.645 514.12 440.921 515.953 438.61 519.687 433.886 521.071 428.023 521.243 421.953 521.313 419.712 520.621 417.505 522.766 415.506 524.771 413.54 526.361 411.229 527.502 408.677 530.199 402.642 528.608 399.607 521.035 395.089 519.222 394.016 517.518 392.643 515.339 392.643 515.067 392.643 514.789 392.665 514.501 392.711 514.242 392.75 513.992 392.768 513.748 392.768 512.124 392.768 510.771 391.942 509.418 391.192 506.929 389.813 504.334 388.675 501.639 387.778 500.325 387.364 498.216 387.123 497.938 384.916 497.281 379.338 494.182 372.793 487.898 372.793 487.575 372.793 487.247 372.811 486.909 372.847 486.701 372.879 486.495 372.895 486.291 372.895 485.226 372.895 484.21 372.454 483.486 371.674 481.099 369.295 478.922 366.639 476.189 364.707 474.78 363.696 473.349 362.043 471.391 362.043L470.094 362.303 470 360.45 470.576 349.081 473.017 350.28C482.075 353.596 508.338 356.443 544.515 358.275L549.609 358.506 550.039 359.594C550.541 360.487 551.153 361.276 551.844 361.88 552.432 362.396 552.916 362.983 553.228 363.674 555.647 368.571 558.518 373.087 563.359 375.984 564.507 376.673 565.704 377.954 566.888 377.954 567.13 377.954 567.372 377.9 567.612 377.778 573.249 374.984 579.887 378.157 585.384 374.226 586.258 373.603 587.482 373.184 588.723 373.184 590.234 373.184 591.766 373.805 592.715 375.433 593.677 377.098 594.686 377.77 596.176 377.77 596.506 377.77 596.862 377.736 597.245 377.674 597.599 377.618 597.933 377.592 598.245 377.592 601.042 377.592 602.155 379.746 601.532 382.847 600.978 385.674 599.111 388.881 600.702 391.4 602.535 394.365 604.644 397.227 606.026 400.366 608.447 405.849 610.212 411.676 607.169 417.643 605.232 421.402 604.852 425.368 606.685 429.093 608.621 432.989 610.072 436.886 610.592 441.266 611.04 445.231 611.006 449.507 614.36 452.646 616.262 454.474 616.781 457.164 617.645 459.577 618.405 461.716 616.711 464.406 619.306 466.268 620.032 466.811 620.718 467.006 621.383 467.006 623.091 467.006 624.652 465.715 626.367 465.715 626.399 465.715 626.431 465.715 626.463 465.715 626.675 465.721 626.883 465.723 627.091 465.723 637.501 465.723 642.901 458.994 647.139 450.507 648.004 448.783 647.071 446.231 649.284 445.335 653.156 443.749 654.02 440.679 653.018 437.335 651.531 432.404 654.228 430.576 657.998 428.92 663.184 426.575 666.537 415.126 663.564 410.539 661.177 406.883 661.835 402.848 662.526 399.054 663.46 393.677 667.506 390.089 671.343 386.778 678.846 380.294 683.756 372.466 685.865 362.845 686.027 362.135 686.106 361.379 685.92 360.801L684.575 359.941 705.735 359.449C710.82 359.288 715.778 359.109 720.595 358.913L731.23 358.428 735.934 368.156C736.618 369.463 737.419 370.309 738.249 370.309 738.973 370.309 739.72 369.664 740.43 368.122 740.914 367.088 741.742 366.19 742.435 365.26L742.469 365.226 742.469 373.019C742.777 374.212 743.301 375.134 744.55 375.134 744.71 375.134 744.88 375.118 745.062 375.088 746.652 374.846 748.279 373.709 747.933 372.364 747.57 370.846 747.068 369.355 746.26 368.057L742.753 364.92 743.715 360.103 743.535 357.775 747.699 357.541C756.095 357.022 763.815 356.444 770.744 355.815L777.295 355.158 778.258 358.052C780.228 362.57 777.565 367.846 781.403 372.225 784.17 375.397 784.412 380.294 787.489 383.537 788.492 384.054 789.46 384.571 790.463 385.054 790.767 385.189 791.089 385.259 791.383 385.259 792.059 385.259 792.581 384.892 792.365 384.124 791.327 380.294 791.673 376.054 787.627 373.19 784.516 370.983 782.165 367.535 782.613 363.259 782.743 362.147 781.511 359.385 783.077 359.385 783.598 359.385 784.43 359.691 785.727 360.467 788.078 361.914 790.463 363.811 791.189 365.707 791.883 367.599 792.559 368.227 793.244 368.227 794.194 368.227 795.156 367.016 796.203 366.294 796.755 365.915 797.135 365.224 797.724 364.915 801.181 363.087 802.115 360.431 801.181 356.603L799.24 352.049 801.92 351.5C805.232 350.703 807.525 349.871 808.686 349.015Z" fill="#5E7CE2" fill-rule="evenodd"/><path d="M640.5 217.5C676.865 217.5 711.863 231.354 738.376 256.244" stroke="#FFFFFF" stroke-width="7.33333" stroke-linecap="round" stroke-miterlimit="8" fill="none" fill-rule="evenodd"/><path d="M749.502 268.99C753.341 273.617 756.886 278.482 760.114 283.558" stroke="#FFFFFF" stroke-width="7.33333" stroke-linecap="round" stroke-miterlimit="8" fill="none" fill-rule="evenodd"/></g></svg>