<svg width="342" height="342" xmlns="http://www.w3.org/2000/svg" xmlns:xlink="http://www.w3.org/1999/xlink" overflow="hidden"><defs><clipPath id="clip0"><rect x="469" y="189" width="342" height="342"/></clipPath></defs><g clip-path="url(#clip0)" transform="translate(-469 -189)"><path d="M470 360C470 266.112 546.112 190 640 190 733.888 190 810 266.112 810 360 810 453.888 733.888 530 640 530 546.112 530 470 453.888 470 360Z" fill="#FF718F" fill-rule="evenodd"/><path d="M559.279 422 720.573 422 756 484.688 748.598 491.364C723.336 512.053 691.967 525.661 657.577 529.127L640.147 530 640.143 530 622.713 529.127C588.323 525.661 556.954 512.053 531.693 491.364L524 484.426Z" fill="#F2F2F2" fill-rule="evenodd"/><path d="M569 439 710.713 439" stroke="#D9D9D9" stroke-width="2" stroke-linecap="round" stroke-linejoin="round" stroke-miterlimit="10" fill="none" fill-rule="evenodd"/><path d="M559 453 721.44 453" stroke="#D9D9D9" stroke-width="2" stroke-linecap="round" stroke-linejoin="round" stroke-miterlimit="10" fill="none" fill-rule="evenodd"/><path d="M549 468 616.333 468" stroke="#D9D9D9" stroke-width="2" stroke-linecap="round" stroke-linejoin="round" stroke-miterlimit="10" fill="none" fill-rule="evenodd"/><path d="M693.688 245.479 711.312 252.3 639.618 437.552 617.164 469.39 621.994 430.732ZM706.506 228.842 713.033 231.368C716.097 232.554 717.62 236 716.434 239.064L713.044 247.823 695.42 241.003 698.81 232.243C699.996 229.179 703.441 227.656 706.506 228.842Z" fill="#FF335F" fill-rule="evenodd"/></g></svg>