<svg width="342" height="342" xmlns="http://www.w3.org/2000/svg" xmlns:xlink="http://www.w3.org/1999/xlink" overflow="hidden"><defs><clipPath id="clip0"><rect x="469" y="189" width="342" height="342"/></clipPath></defs><g clip-path="url(#clip0)" transform="translate(-469 -189)"><path d="M470 360C470 266.112 546.112 190 640 190 733.888 190 810 266.112 810 360 810 453.888 733.888 530 640 530 546.112 530 470 453.888 470 360Z" fill="#FF718F" fill-rule="evenodd"/><path d="M602.416 285.396C599.431 285.396 597.011 287.828 597.011 290.829L597.011 318.436 681.389 318.436 681.389 290.829C681.389 287.828 678.969 285.396 675.984 285.396ZM588.193 267 691.807 267C698.09 267 703.184 272.12 703.184 278.436L703.184 318.436 725.948 318.436C732.604 318.436 738 323.86 738 330.551L738 440.885C738 447.576 732.604 453 725.948 453L554.052 453C547.396 453 542 447.576 542 440.885L542 330.551C542 323.86 547.396 318.436 554.052 318.436L576.816 318.436 576.816 278.436C576.816 272.12 581.91 267 588.193 267Z" fill="#FF335F" fill-rule="evenodd"/><path d="M601.785 372.77 627.77 372.77 627.77 346.785 652.23 346.785 652.23 372.77 678.215 372.77 678.215 397.23 652.23 397.23 652.23 423.215 627.77 423.215 627.77 397.23 601.785 397.23Z" fill="#FFFFFF" fill-rule="evenodd"/></g></svg>