<svg width="342" height="342" xmlns="http://www.w3.org/2000/svg" xmlns:xlink="http://www.w3.org/1999/xlink" overflow="hidden"><defs><clipPath id="clip0"><rect x="469" y="189" width="342" height="342"/></clipPath></defs><g clip-path="url(#clip0)" transform="translate(-469 -189)"><path d="M470 360C470 266.112 546.112 190 640 190 733.888 190 810 266.112 810 360 810 453.888 733.888 530 640 530 546.112 530 470 453.888 470 360Z" fill="#5E7CE2" fill-rule="evenodd"/><path d="M702 334 735 334 735 456.5C735 465.613 727.613 473 718.5 473L718.5 473C709.387 473 702 465.613 702 456.5L702 334Z" fill="#325ADA" fill-rule="evenodd"/><path d="M564.742 247 685.516 247C696.419 247 705.258 256.384 705.258 267.959L705.258 387.19 705.258 452.041C705.258 463.616 714.097 473 725 473L685.516 473 636.877 473 564.742 473C553.839 473 545 463.616 545 452.041L545 267.959C545 256.384 553.839 247 564.742 247Z" fill="#466ADE" fill-rule="evenodd"/><text fill="#FFFFFF" font-family="Calibri,Calibri_MSFontService,sans-serif" font-weight="400" font-size="24" transform="translate(627.24 368)">G</text><path d="M616.557 248 648.141 248 651.689 248.236C669.173 250.661 684.486 256.723 697.629 266.421L705 272.698 705 317.31 677.134 328.836C672.636 318.872 667.403 311.398 661.439 306.414 652.859 299.358 642.659 295.83 630.835 295.83 606.667 295.83 589.822 308.262 580.301 333.127 576.743 342.282 574.964 351.749 574.964 361.529 574.964 381.816 581.4 398.722 594.267 412.248 603.789 422.34 616.501 427.385 632.405 427.385 646.53 427.385 657.727 423.284 665.993 415.08 671.433 409.681 674.99 401.686 676.664 391.094L630.977 391.094 630.977 348.858 705 348.858 705 388.251 705 448.212 694.031 456.793C676.403 468.264 655.542 474 631.446 474 597.13 474 569.8 463.78 549.459 443.34L545 438.292 545 283.454 545.237 283.158C561.04 265.091 581.536 253.799 606.726 249.282Z" fill="#4065DC" fill-rule="evenodd"/><path d="M646.093 315.542C632.459 326.116 619.425 333.015 606.039 336.745 604.815 337.087 603.761 337.399 603.699 337.44 603.636 337.48 603.666 338.224 603.765 339.098 603.865 339.97 603.972 340.95 604.004 341.276 604.036 341.602 604.09 342.083 604.124 342.345 604.159 342.607 604.275 343.623 604.383 344.603 604.491 345.582 604.609 346.599 604.647 346.862 604.684 347.124 604.801 348.141 604.908 349.12 605.014 350.099 605.156 351.382 605.222 351.97 605.289 352.558 605.443 353.921 605.564 354.999 605.685 356.077 605.87 357.681 605.976 358.565 606.081 359.448 606.254 360.972 606.361 361.951 606.467 362.93 606.574 363.866 606.598 364.031 606.623 364.195 606.742 365.212 606.862 366.289 606.982 367.367 607.146 368.811 607.226 369.497 607.306 370.184 607.441 371.387 607.526 372.17 607.724 373.996 607.486 373.822 609.932 373.934 622.066 374.489 635.822 377.737 648.016 382.928 650.379 383.934 650.368 383.93 653.32 385.238 653.673 385.394 654.32 385.695 654.759 385.906 655.197 386.117 655.594 386.262 655.64 386.229 655.686 386.196 655.569 384.832 655.38 383.197 655.192 381.563 654.952 379.451 654.847 378.504 654.742 377.557 654.637 376.648 654.612 376.483 654.587 376.319 654.471 375.303 654.352 374.225 654.234 373.148 654.12 372.132 654.097 371.968 654.075 371.804 653.988 371.029 653.904 370.246 653.819 369.463 653.703 368.446 653.646 367.988 653.59 367.53 653.472 366.513 653.387 365.73 653.301 364.946 653.195 364.011 653.152 363.651 653.109 363.291 653.023 362.516 652.962 361.929 652.9 361.342 652.829 360.753 652.803 360.62 652.777 360.488 652.713 359.926 652.661 359.373 652.61 358.819 652.474 357.591 652.36 356.642 652.246 355.693 651.954 353.153 651.712 350.997 651.469 348.841 651.119 345.793 650.934 344.223 650.749 342.653 650.575 341.129 650.547 340.836 650.494 340.268 650.328 338.779 650.106 336.887 650.031 336.249 649.912 335.22 649.84 334.599 649.769 333.978 649.65 332.948 649.576 332.311 649.502 331.673 649.426 330.965 649.406 330.738 649.387 330.511 649.323 329.949 649.265 329.491 649.207 329.032 649.133 328.39 649.099 328.064 648.986 326.967 648.601 323.555 648.556 323.253 648.531 323.088 648.415 322.072 648.297 320.995 648.178 319.917 648.062 318.901 648.038 318.737 648.014 318.572 647.907 317.637 647.801 316.658 647.694 315.678 647.6 314.81 647.59 314.728 647.558 314.448 647.379 314.545 646.093 315.542M671.265 319.554C671.19 319.62 670.643 320.284 670.05 321.032 669.456 321.78 668.408 323.101 667.72 323.967 666.201 325.882 666.235 325.602 667.402 326.599 679.872 337.249 682.196 356.255 672.657 369.585 671.478 371.233 671.507 371.111 672.165 371.651 673.391 372.655 677.66 376.019 677.785 376.079 677.866 376.117 678.239 375.704 678.722 375.041 681.208 371.624 682.784 368.661 684.371 364.421 685.496 361.417 686.544 355.994 686.611 352.829 686.873 340.385 682.621 329.853 674.041 321.701 672.022 319.782 671.482 319.366 671.265 319.554M662.134 330.979C661.841 331.349 660.955 332.468 660.167 333.465 659.379 334.462 658.534 335.527 658.289 335.831 657.867 336.357 657.854 336.393 658.02 336.569 658.116 336.67 658.657 337.2 659.223 337.746 665.761 344.07 666.705 354.965 661.315 361.901 660.775 362.595 660.787 362.617 662.349 363.851 663.125 364.464 664.424 365.496 665.235 366.146 667.079 367.623 666.93 367.605 667.77 366.451 675.717 355.523 673.819 339.535 663.558 330.971 662.671 330.231 662.728 330.23 662.134 330.979M595.966 338.281C595.377 338.355 594.2 338.491 593.351 338.582 592.503 338.673 591.059 338.838 590.143 338.948 587.178 339.304 586.013 339.439 584.199 339.64 579.178 340.194 577.855 340.4 576.498 340.84 561.633 345.657 559.05 365.324 572.17 373.79 575.844 376.159 579.805 376.996 584.784 376.453 587.07 376.203 588.366 376.056 589.24 375.945 590.184 375.825 593.013 375.504 595.656 375.216 596.635 375.109 597.571 375.003 597.735 374.981 597.899 374.958 598.755 374.859 599.637 374.761 600.519 374.663 601.29 374.551 601.352 374.514 601.453 374.452 601.399 373.819 600.982 370.203 600.914 369.615 600.741 368.091 600.597 366.817 600.454 365.543 600.306 364.285 600.269 364.023 600.232 363.76 600.187 363.359 600.169 363.132 600.151 362.904 600.075 362.197 600.001 361.559 599.807 359.892 599.661 358.614 599.247 354.994 599.045 353.229 598.76 350.742 598.613 349.467 598.466 348.193 598.33 346.964 598.312 346.736 598.293 346.509 598.229 345.948 598.169 345.489 598.071 344.74 597.72 341.686 597.554 340.141 597.317 337.93 597.455 338.092 595.966 338.281M600.631 380.416C599.877 380.514 598.459 380.683 597.479 380.791 596.5 380.898 595.563 381.006 595.399 381.031 595.235 381.055 594.219 381.17 593.142 381.288 592.064 381.405 590.968 381.532 590.705 381.569 590.442 381.606 589.426 381.725 588.446 381.832 587.467 381.94 586.29 382.074 585.832 382.13 585.374 382.187 584.582 382.273 584.072 382.321 582.919 382.432 582.881 382.141 584.518 385.716 585.257 387.329 586.404 389.853 587.067 391.323 587.73 392.794 588.5 394.486 588.778 395.083 589.698 397.059 591.71 401.504 592.033 402.274 592.885 404.304 594.055 405.568 595.716 406.252 597.053 406.802 597.558 406.802 602.009 406.251 602.566 406.182 603.288 406.098 603.614 406.063 604.971 405.92 608.149 405.56 608.426 405.518 608.591 405.493 609.434 405.394 610.301 405.298 612.891 405.009 613.768 404.441 614.166 402.792 614.401 401.821 614.32 401.188 613.861 400.408 613.586 399.943 613.477 399.846 612.115 398.854 609.967 397.29 608.927 395.802 607.282 391.934 606.359 389.764 605.714 388.266 604.882 386.356 604.654 385.832 603.973 384.249 603.37 382.838 602.765 381.426 602.211 380.264 602.137 380.254 602.063 380.244 601.385 380.317 600.631 380.416" fill="#FFFFFF" fill-rule="evenodd"/></g></svg>