<svg width="342" height="342" xmlns="http://www.w3.org/2000/svg" xmlns:xlink="http://www.w3.org/1999/xlink" overflow="hidden"><defs><clipPath id="clip0"><rect x="469" y="189" width="342" height="342"/></clipPath></defs><g clip-path="url(#clip0)" transform="translate(-469 -189)"><path d="M470 360C470 266.112 546.112 190 640 190 733.888 190 810 266.112 810 360 810 453.888 733.888 530 640 530 546.112 530 470 453.888 470 360Z" fill="#06D6A0" fill-rule="evenodd"/><path d="M640 320C684.583 201 858.458 320 640 473 421.542 320 595.417 201 640 320Z" fill="#13BF9E" fill-rule="evenodd"/><path d="M513 364.71 596.68 364.641 607.324 334 627.585 418 638.796 364.375 767 364.843" stroke="#FFFFFF" stroke-width="9.66667" stroke-linecap="round" stroke-linejoin="round" stroke-miterlimit="10" fill="none" fill-rule="evenodd"/><path d="M583.121 271.792C528.282 270.889 482.469 362.977 640 472.569 859.173 320.093 684.729 201.5 640 320.093 627.42 286.739 604.579 272.146 583.121 271.792ZM640 190C733.888 190 810 266.112 810 360 810 453.888 733.888 530 640 530 546.112 530 470 453.888 470 360 470 266.112 546.112 190 640 190Z" fill="#06D6A0" fill-rule="evenodd"/></g></svg>