<svg width="342" height="342" xmlns="http://www.w3.org/2000/svg" xmlns:xlink="http://www.w3.org/1999/xlink" overflow="hidden"><defs><clipPath id="clip0"><rect x="469" y="189" width="342" height="342"/></clipPath></defs><g clip-path="url(#clip0)" transform="translate(-469 -189)"><path d="M470 360C470 266.112 546.112 190 640 190 733.888 190 810 266.112 810 360 810 453.888 733.888 530 640 530 546.112 530 470 453.888 470 360Z" fill="#FFBC42" fill-rule="evenodd"/><path d="M640 320.78C667.062 320.78 689 342.63 689 369.583L689 423 591 423 591 369.583C591 342.63 612.938 320.78 640 320.78ZM640 243C660.851 243 677.754 259.835 677.754 280.602 677.754 301.369 660.851 318.204 640 318.204 619.149 318.204 602.246 301.369 602.246 280.602 602.246 259.835 619.149 243 640 243Z" fill="#FFFFFF" fill-rule="evenodd"/><path d="M562.779 333 634.016 349.826 634.016 349.859 646.984 349.859 646.984 349.826 718.221 333C726.136 339.023 725.937 336.165 726 339.314L718.556 440.174 647.318 457 647.01 358.317 633.99 358.317 633.682 457 562.444 440.174 555 339.314C555.063 336.165 554.864 339.023 562.779 333Z" fill="#F2F2F2" fill-rule="evenodd"/><path d="M645.289 477.118 644.909 355.395 725.664 336.285 726.044 458.008Z" fill="#FEA300" fill-rule="evenodd"/><path d="M0 118.539 27.6618 0 110.647 0 82.9853 118.539Z" fill="#FEA300" fill-rule="evenodd" transform="matrix(-0.973124 -0.230282 -0.230282 0.973124 662.009 361.765)"/><rect x="635" y="355" width="10" height="122" fill="#FF8A15"/><path d="M713.481 358.875 713.745 443.696 695.468 448.021 695.454 416.581 675.46 421.312 675.474 452.752 657.472 457.012 657.208 372.192 675.482 367.867 675.499 403.678 695.493 398.947 695.477 363.136Z" fill="#FFBC42" fill-rule="evenodd"/></g></svg>