<svg width="342" height="342" xmlns="http://www.w3.org/2000/svg" xmlns:xlink="http://www.w3.org/1999/xlink" overflow="hidden"><defs><clipPath id="clip0"><rect x="469" y="189" width="342" height="342"/></clipPath></defs><g clip-path="url(#clip0)" transform="translate(-469 -189)"><path d="M470 360C470 266.112 546.112 190 640 190 733.888 190 810 266.112 810 360 810 453.888 733.888 530 640 530 546.112 530 470 453.888 470 360Z" fill="#5E7CE2" fill-rule="evenodd"/><rect x="626" y="237" width="28" height="244" fill="#4065DC"/><rect x="581" y="237" width="118" height="29" fill="#4065DC"/><rect x="581" y="453" width="118" height="28" fill="#4065DC"/><path d="M643.841 326.959C643.147 331.894 649.751 335.833 652.71 339.216 658.92 346.32 660.67 356.167 655.236 364.373 653.144 367.53 649.78 370.644 645.767 369.199 641.47 367.651 638.08 363.091 634.961 359.908 628.756 353.573 622.526 347.237 616.182 341.042 612.211 337.163 607.723 332.93 607.506 326.959 607.369 323.19 609.976 319.862 612.414 317.283 616.366 313.101 620.527 309.103 624.585 305.025 626.375 303.226 632.04 299.264 630.432 296.27 629.199 293.975 626.059 292.12 623.943 290.746 616.618 285.991 608.207 283.737 599.551 283.737 571.694 283.735 549.842 309.638 554.672 337.281 555.804 343.76 558.113 350.001 561.993 355.344 563.269 357.102 564.831 359.638 566.839 360.616 569.539 361.93 573.954 358.529 577.084 358.605 585.843 358.817 591.826 368.051 591.848 375.988 601.392 376.015 609.381 383.737 609.821 393.406 619.141 393.484 626.73 401.528 627.152 410.824 635.384 410.898 645.105 418.494 644.029 427.597 643.644 430.852 640.08 433.681 640.12 436.627 640.184 441.35 647.552 442.996 650.902 441.419 652.302 440.761 653.513 439.765 654.642 438.72 665.283 428.863 648.598 418.264 641.925 411.471 639.907 409.417 637.321 407.359 635.678 404.992 634.945 403.937 634.418 402.48 635.687 401.557 638.311 399.649 642.919 406.026 644.483 407.598 649.159 412.298 653.673 417.293 658.605 421.721 661.285 424.126 664.732 425.818 668.233 424.076 669.683 423.354 670.926 422.247 672.072 421.118 682.221 411.123 665.973 400.955 659.305 394.076 657.656 392.376 650.655 387.258 652.594 384.565 654.86 381.419 660.371 388.73 661.814 390.18 665.665 394.05 669.494 397.944 673.368 401.79 675.552 403.957 677.941 406.532 681.071 407.213 686.995 408.502 693.966 401.133 693.127 395.344 692.682 392.267 690.333 390.318 688.26 388.243L679.787 379.81C676.199 376.229 672.673 371.358 668.233 368.891 672.3 363.466 676.616 370.053 680.035 373.407 683.847 377.146 687.571 380.98 691.341 384.761 693.515 386.942 695.785 389.586 699.047 389.907 702.774 390.275 705.718 387.628 707.986 385.01 712.72 379.543 709.642 374.705 705.403 370.172 703.915 368.58 700.598 366.274 701.561 363.731 702.228 361.97 704.177 360.51 705.463 359.215 708.162 356.496 711.027 353.873 713.371 350.828 720.924 341.022 724.196 328.273 722.609 315.992 719.032 288.317 689.955 270.642 663.74 279.148 651.341 283.171 643.158 292.809 634.213 301.8L618.166 317.928C615.428 320.684 612.175 323.347 612.466 327.604 612.766 332.008 616.565 335.026 619.449 337.926L638.706 357.279C640.84 359.424 644.796 365.136 648.309 364.394 654.519 363.083 654.506 352.685 652.981 348.248 651.076 342.702 645.917 338.724 641.916 334.7 640.443 333.219 637.477 331.127 637.186 328.895 636.867 326.454 641.247 322.541 643.199 321.563 646.13 320.095 649.117 324.521 650.902 326.314 656.332 331.77 661.861 336.731 669.517 338.636 676.633 340.408 683.979 339.852 690.7 336.77 692.929 335.748 698.337 330.8 700.728 332.208 703.599 333.899 698.316 337.525 697.119 338.339 691.5 342.161 684.645 344.346 677.862 344.377 669.666 344.413 661.882 341.71 655.395 336.626 651.497 333.57 648.331 329.064 643.841 326.959M573.875 364.1C569.39 365.385 562.431 372.329 562.5 377.278 562.579 382.916 569.464 389.486 575.159 387.875 579.636 386.608 586.71 379.543 587.031 374.697 587.436 368.597 579.611 362.456 573.875 364.1M591.206 381.57C586.651 382.997 579.845 389.639 579.78 394.696 579.707 400.338 586.898 406.908 592.49 405.383 596.824 404.2 604.204 396.805 604.481 392.115 604.837 386.113 596.828 379.807 591.206 381.57M607.895 399.12C603.459 400.923 596.912 407.588 597.164 412.749 597.453 418.653 605.377 424.904 611.047 422.43 614.919 420.74 621.628 414.058 621.761 409.533 621.943 403.342 613.783 396.727 607.895 399.12M625.868 416.406C621.314 417.833 614.505 424.476 614.442 429.532 614.369 435.347 622.044 442.099 627.794 440.119 632.002 438.67 638.987 431.639 639.159 426.951 639.381 420.929 631.605 414.608 625.868 416.406Z" fill="#FFFFFF" fill-rule="evenodd"/></g></svg>