<svg width="342" height="342" xmlns="http://www.w3.org/2000/svg" xmlns:xlink="http://www.w3.org/1999/xlink" overflow="hidden"><defs><clipPath id="clip0"><rect x="469" y="189" width="342" height="342"/></clipPath></defs><g clip-path="url(#clip0)" transform="translate(-469 -189)"><path d="M470 360C470 266.112 546.112 190 640 190 733.888 190 810 266.112 810 360 810 453.888 733.888 530 640 530 546.112 530 470 453.888 470 360Z" fill="#FF718F" fill-rule="evenodd"/><path d="M537 448.24C542.321 461.315 548.436 474.152 554.273 487.003 555.787 490.336 557.219 493.708 558.736 497.04 559.918 499.634 561.406 502.209 562.063 505 564.094 503.686 565.401 500.472 566.672 498.424 569.235 494.299 572.012 490.272 574.815 486.311 582.178 475.906 590.026 465.797 598.787 456.546 602.23 452.909 605.456 448.879 609.443 445.817 607.946 445.183 606.23 445.604 604.637 445.367 603.039 445.129 601.644 444.357 600.173 443.74 603.678 442.667 607.563 442.642 611.16 441.783 617.538 440.26 623.928 436.896 628.572 432.22 633.629 427.129 638.173 419.498 639.21 412.245 640.036 406.467 639.313 400.086 639.313 394.248L639.313 375.558C639.313 372.483 639.575 369.274 639.277 366.214 639.106 364.456 637.799 363.094 637.635 361.368 637.466 359.578 638.131 357.624 638.252 355.831 638.449 352.939 638.226 350.041 637.843 347.178 637.348 343.476 635.503 340.142 634.929 336.548 634.652 334.815 635.745 332.615 636.086 330.911 636.744 327.622 636.91 324.57 636.91 321.221 636.91 318.358 636.139 315.376 636.295 312.568 636.502 308.855 637.844 305.249 637.935 301.493 637.979 299.672 638.062 297.765 637.842 295.955 637.695 294.75 637.17 293.362 637.341 292.148 637.521 290.869 638.614 289.96 638.874 288.687 639.468 285.783 638.97 282.305 638.97 279.342 638.97 277.168 639.507 274.134 638.763 272.074 637.867 269.59 634.804 266.985 632.105 267.969 629.864 268.785 629.809 271.002 629.713 273.113 629.509 277.654 628.776 282.197 627.684 286.611 625.91 293.773 622.912 300.383 620.686 307.377 618.331 314.776 616.582 322.103 613.258 329.181 611.78 332.329 609.54 335.06 608.07 338.18 608.31 336.072 609.526 334.194 610.416 332.296 611.85 329.24 613.229 326.138 614.356 322.951 615.473 319.789 616.341 316.568 616.911 313.26 617.263 311.217 617.223 309.013 617.841 307.03 618.649 304.439 620.229 301.895 621.354 299.416 623.029 295.727 624.357 291.901 625.434 287.995 626.6 283.766 627.619 279.251 627.64 274.843 627.65 272.805 626.87 268.774 627.993 267.019 628.499 266.228 629.547 265.9 630.387 265.623 634.685 264.206 637.654 266.909 638.627 271.036 639.693 268.475 638.97 264.463 638.97 261.691L638.97 247.155C638.97 244.497 639.189 241.084 638.518 238.516 637.728 235.5 631.681 233.836 629.55 236.225 628.03 237.929 627.957 241.856 627.425 244.04 625.825 250.609 624.333 257.204 622.705 263.768 619.354 277.279 615.543 290.828 610.798 303.916 609.077 308.664 607.351 313.422 605.46 318.106 604.353 320.845 602.912 323.525 602.233 326.412 602.081 324.017 603.545 321.406 604.293 319.144 606.013 313.944 607.742 308.739 609.549 303.569 614.525 289.332 618.432 274.608 622.018 259.961 623.392 254.351 624.562 248.675 625.648 243.002 626.085 240.714 626.014 237.086 627.293 235.119 627.953 234.103 629.279 233.781 630.387 233.543 634.27 232.706 636.63 234.2 638.627 237.464 638.933 236.178 638.627 234.655 638.627 233.311L638.627 224.312C638.627 222.58 638.974 220.388 638.235 218.776 635.91 213.698 628.524 214.17 625.003 217.655 623.85 218.795 624.207 220.752 624.207 222.236 624.207 225.583 624.151 228.952 623.718 232.273 621.968 245.666 619.253 258.808 615.271 271.728 610.67 286.657 605.5 301.404 600.028 316.029 598.09 321.209 596.204 326.405 594.318 331.604 593.422 334.073 592.133 336.61 591.702 339.218 591.296 341.669 591.602 344.352 591.59 346.832 591.569 351.054 591.417 355.406 591.233 359.638 590.776 370.162 589.742 380.695 588.25 391.133 587.688 395.062 587.085 399.026 586.217 402.9 585.827 404.638 585.593 406.504 584.753 408.092 582.258 412.802 578.124 416.821 574.423 420.551 563.337 431.727 549.894 439.478 537 448.24M641.03 237.464C642.036 236.482 642.654 235.138 643.809 234.299 645.906 232.775 651.118 232.756 652.725 235.119 653.317 235.991 653.33 237.149 653.484 238.156 653.786 240.122 654.171 242.089 654.557 244.04 655.911 250.876 657.349 257.702 659.046 264.46 662.411 277.856 666.337 291.154 670.671 304.262 673.084 311.558 676.392 318.93 678.11 326.412 674.74 320.032 672.385 312.791 669.976 305.992 664.747 291.233 660.378 276.201 656.608 260.999 655.095 254.899 653.635 248.784 652.24 242.656 651.789 240.672 651.73 236.985 649.907 235.765 647.381 234.074 641.92 235.795 641.139 238.854 640.349 241.947 641.03 246.039 641.03 249.232L641.03 271.036C641.942 269.582 642.339 267.913 643.594 266.654 645.534 264.709 649.88 264.609 651.81 266.761 653.076 268.174 652.36 272.012 652.36 273.805 652.36 278.751 653.418 283.571 654.636 288.341 656.301 294.86 659.744 300.457 662.042 306.684 662.614 308.235 662.575 309.915 662.807 311.53 663.211 314.341 663.812 317.117 664.624 319.836 666.539 326.245 669.765 332.024 672.273 338.18 665.195 328.922 662.772 318.24 659.314 307.377 657.27 300.956 654.385 294.916 652.747 288.341 651.607 283.768 650.38 278.888 650.301 274.151 650.269 272.234 650.467 269.315 648.563 268.267 645.426 266.541 641.333 269.823 641.05 273.113 640.815 275.841 641.03 278.68 641.03 281.419 641.03 283.678 640.785 286.1 641.076 288.341 641.267 289.809 642.623 290.815 642.706 292.247 642.896 295.499 641.864 298.842 642.091 302.185 642.333 305.753 643.711 309.368 643.715 312.914 643.717 314.309 643.281 315.684 643.148 317.067 642.862 320.05 642.865 323.429 643.148 326.412 643.335 328.382 643.673 330.382 644.173 332.296 644.501 333.551 645.184 334.984 645.107 336.302 645.011 337.945 643.925 339.723 643.442 341.294 642.557 344.174 641.952 347.282 641.748 350.293 641.61 352.314 641.579 354.511 641.815 356.523 641.995 358.062 642.511 359.823 642.365 361.368 642.201 363.094 640.894 364.456 640.723 366.214 640.436 369.161 640.687 372.251 640.687 375.212L640.687 393.21 640.687 406.015C640.687 408.405 640.44 410.944 640.995 413.283 645.286 431.36 661.573 443.392 679.827 443.394 676.895 445.496 674.016 445.471 670.557 445.471 672.76 448.225 675.676 450.485 678.079 453.085 684.482 460.013 690.726 467.067 696.504 474.543 701.449 480.941 706.149 487.522 710.612 494.271 712.914 497.752 714.88 501.852 717.593 505 721.534 497.549 724.512 489.49 727.999 481.811 733.059 470.672 738.387 459.575 743 448.24 730.1 439.474 716.668 431.733 705.577 420.551 701.88 416.825 697.712 412.811 695.246 408.092 694.223 406.134 693.912 403.672 693.493 401.516 692.689 397.385 692.036 393.225 691.455 389.056 690.096 379.309 689.193 369.46 688.767 359.638 688.598 355.746 688.411 351.755 688.41 347.87 688.409 345.147 688.672 342.269 688.347 339.564 688.034 336.965 686.712 334.384 685.809 331.95 684.186 327.574 682.638 323.17 681.002 318.798 676.029 305.503 671.351 292.129 666.894 278.65 661.999 263.844 658.529 248.749 656.335 233.311 655.819 229.676 655.793 225.907 655.793 222.236 655.793 220.34 656.149 218.406 654.4 217.206 653.285 216.442 651.929 215.794 650.643 215.39 647.211 214.313 642.546 215.523 641.521 219.467 641.103 221.073 641.373 223.01 641.373 224.659 641.373 228.864 641.793 233.319 641.03 237.464Z" fill="#FF335F" fill-rule="evenodd"/><path d="M587.756 403.966C584.888 419.486 592.007 436.639 606.495 443.492 614.373 447.219 622.489 447.678 630.999 446.847 636.785 446.282 642.335 444.6 647.816 442.745 649.634 442.13 652.907 439.939 654.819 440.478 656.872 441.057 658.688 443.921 660.308 445.257 663.918 448.23 668.033 450.673 672.32 452.516 692.162 461.041 718.391 457.413 733.803 441.612 739.557 435.712 743.501 428.35 745.531 420.379 746.315 417.301 745.906 413.156 747.084 410.33 747.838 408.522 750.162 407.435 751.556 406.167 753.758 404.166 755.679 401.658 757.255 399.138 765.093 386.599 765.994 369.291 760.511 355.692 758.233 350.042 754.857 344.553 750.151 340.633 748.34 339.125 746.451 337.683 744.392 336.533 743.328 335.94 741.71 335.434 741.125 334.264 740.528 333.065 741.271 331.348 741.433 330.107 741.852 326.898 742.244 323.683 741.784 320.453 739.842 306.83 732.515 294.263 720.849 286.704 714.537 282.616 707.654 280.214 700.188 279.502 697.411 279.238 693.229 280.966 690.716 279.807 689.334 279.17 688.286 277.583 687.213 276.543 685.301 274.689 683.192 273.011 680.969 271.55 672.248 265.815 661.125 262.762 650.699 263.015 644.844 263.156 638.812 264.457 633.402 266.678 631.059 267.64 628.022 270.555 625.51 270.588 624.022 270.608 622.302 269.593 620.909 269.122 617.894 268.103 614.917 267.241 611.78 266.683 600.04 264.595 587.724 266.109 577.186 271.846 572.61 274.336 568.75 277.52 565.217 281.351 563.608 283.095 562.33 285.91 560.281 287.138 558.662 288.107 556.407 287.984 554.603 288.332 552.286 288.779 550.048 289.62 547.877 290.529 538.418 294.484 530.962 302.228 526.307 311.281 523.289 317.152 521.464 323.961 521.464 330.59 521.464 333.435 522.649 336.458 522.21 339.279 521.698 342.573 519.709 345.729 518.771 348.934 516.53 356.601 515.486 364.586 516.247 372.588 516.713 377.49 518.055 382.091 520.011 386.587 527.41 403.594 546.62 411.36 564.213 409.676 572.497 408.884 579.786 405.863 587.756 403.966Z" fill="#1C1D29" fill-rule="evenodd"/><path d="M678.344 393.634C677.194 396.429 675.897 399.206 673.046 400.634 670.653 401.832 667.452 401.335 664.858 401.336 660.731 401.337 656.406 401.746 652.335 402.453 648.191 403.172 643.69 404.185 639.813 405.828 636.976 407.03 634.445 408.83 631.625 410 633.817 407.161 637.239 405.357 640.294 403.551 652.261 396.479 665.153 396.118 678.344 393.634ZM705.908 368.579C709.5 368.285 713.09 368.603 716.393 369.583 719.992 370.651 723.465 372.243 726.507 374.456 728.092 375.609 730.131 378.112 732.284 377.912 734.002 377.752 734.829 376.141 735.658 374.861 738.611 381.855 732.88 385.602 726.507 385.443 720.384 385.292 715.727 380.835 710.131 378.963 702.8 376.511 694.605 377.5 687.976 381.324 685.489 382.76 683.558 384.778 681.233 386.413 684.343 375.851 695.134 369.46 705.908 368.579ZM668.229 362.827C668.752 365.968 665.439 369.548 662.45 370.014 659.224 370.516 656.042 370.303 652.817 370.61 644.593 371.393 636.267 372.788 628.254 374.8 624.686 375.695 621.114 376.824 617.658 378.083 615.937 378.71 614.193 379.98 612.36 379.674 622.712 373.342 634.697 369.261 646.556 366.815 651.188 365.86 655.853 365.199 660.523 364.475 663.141 364.069 665.824 363.985 668.229 362.827ZM727.47 335.871C730.383 338.884 733.769 339.148 737.585 340.537 740.958 341.765 744.069 343.657 746.734 346.063 757.493 355.776 760.01 372.403 756.547 385.932 755.284 390.865 753.021 396.45 749.144 399.891 749.983 395.837 751.387 391.995 751.896 387.857 752.879 379.852 751.742 370.743 747.431 363.789 744.474 359.019 740.221 354.682 735.177 352.145 732.161 350.629 726.846 350.219 725.217 346.933 723.655 343.78 726.119 338.757 727.47 335.871ZM663.284 298.237C672.265 297.864 681.366 300.434 687.957 306.183 691.861 309.588 694.397 314.888 695.062 319.986 695.549 323.728 694.311 327.526 697.18 330.533 698.935 332.373 700.918 333.82 702.473 335.871 706.603 341.314 707.226 347.601 706.055 354.162 705.503 357.253 704.964 361.599 701.462 362.345 703.172 355.74 703.306 349.834 699.089 344.054 697.385 341.719 694.58 339.898 693.288 337.315 691.897 334.535 693.366 331.081 693.224 328.169 693.007 323.744 691 319.057 688.232 315.653 677.885 302.927 655.714 301.295 642.703 310.459 636.868 314.569 634.126 319.622 631.143 325.762 631.162 318.976 634.564 312.664 639.333 307.959 645.444 301.93 654.304 298.611 663.284 298.237ZM699.771 286.518C704.189 286.691 708.608 287.887 712.54 289.784 725.512 296.045 735.166 308.766 736.096 323.355 736.29 326.386 735.556 329.504 735.177 332.501 732.786 332.481 730.758 332.306 728.434 332.982 729.919 329.007 731.441 324.783 730.683 320.467 729.971 316.403 727.122 312.464 724.516 309.396 718.462 302.268 710.394 296.647 700.98 295.166 697.833 294.671 694.853 295.249 691.829 296.124 690.441 296.526 688.953 297.396 687.495 297.429 685.294 297.48 682.824 295.66 680.752 294.955 682.001 292.392 684.562 290.76 687.013 289.391 690.938 287.196 695.354 286.346 699.771 286.518ZM653.574 270.023C660.136 270.23 666.687 271.852 672.564 274.633 676.817 276.644 682.064 279.472 684.123 283.884 682.714 284.637 680.947 286.214 679.307 286.257 677.924 286.292 676.608 285.145 675.454 284.515 673.141 283.252 670.711 282.211 668.229 281.329 661.901 279.078 654.734 277.679 648.001 278.15 642.837 278.512 636.671 279.609 632.107 282.109 629.328 283.631 626.563 287.695 623.437 288.085 619.95 288.521 616.712 284.759 613.805 283.311 609.329 281.081 602.871 280.218 597.911 280.557 587.246 281.287 576.292 285.174 568.458 292.705 565.933 295.132 566.019 299.443 563.205 301.337 561.776 302.298 560.045 302.11 558.416 302.313 555.338 302.696 552.186 303.3 549.265 304.363 541.15 307.316 535.604 313.297 530 319.504 530.584 316.233 532.49 313.082 534.349 310.359 539.587 302.684 548.355 295.737 557.935 294.955 557.602 297.5 559.485 301.716 562.641 299.409 564.424 298.106 564.378 295.408 565.124 293.511 566.389 290.294 568.524 287.301 570.958 284.865 584.294 271.52 603.547 270.655 620.547 276.182 619.71 278.176 615.957 284.25 621.036 284.39 623.283 284.453 624.877 281.515 626.142 280.052 628.441 277.39 631.37 275.428 634.515 273.9 640.437 271.022 647.011 269.815 653.574 270.023Z" fill="#FFFFFF" fill-rule="evenodd"/><path d="M709.943 407.352C711.567 407.365 712.988 408.733 714.281 409.555 716.528 410.982 718.971 412.163 721.511 412.985 728.226 415.158 734.175 413.782 740.791 412.278 740.638 419.636 737.126 427.024 732.775 432.831 730.63 435.693 728.206 438.492 724.885 440 727.186 434.575 730.808 430.295 731.633 424.227 725.167 425.754 717.397 424.873 711.389 422.166 708.714 420.96 705.12 416.972 702.231 417.021 698.572 417.083 693.453 420.173 690.181 421.715 684.691 424.304 679.148 426.76 673.793 429.632 669.493 431.939 665.374 434.973 660.779 436.654 662.597 433.36 667.376 431.416 670.419 429.282 679.125 423.177 688.435 417.736 697.893 412.862 700.605 411.464 703.338 410.133 706.087 408.809 707.257 408.245 708.595 407.341 709.943 407.352ZM641.04 394.431C641.702 394.352 642.345 394.387 642.945 394.593 637.321 397.516 631.887 400.456 627.047 404.592 624.224 407.005 623.04 410.538 627.521 411.8 626.128 413.601 624.086 415.532 621.737 415.966 618.575 416.551 615.596 413.507 616.243 410.366 616.748 407.915 618.865 405.758 620.792 404.291 625.112 401.003 630.264 398.76 635.233 396.639 636.899 395.929 639.054 394.669 641.04 394.431ZM704.159 392.681C702.692 396.295 705.095 398.824 706.087 402.241L700.785 404.153C699.224 400.02 698.862 393.941 704.159 392.681ZM757.821 377.705C758.036 377.493 758.009 377.997 757.982 378.024 757.768 378.236 757.795 377.732 757.821 377.705ZM523.088 377.705C523.303 377.493 523.276 377.997 523.249 378.024 523.035 378.236 523.062 377.732 523.088 377.705ZM677.649 377.386C677.791 379.016 676.639 380.265 675.877 381.688 673.962 385.262 674.058 387.885 669.455 387.902 671.076 383.662 674.482 380.528 677.649 377.386ZM637.322 361.454C637.536 361.242 637.509 361.746 637.483 361.773 637.268 361.985 637.295 361.481 637.322 361.454ZM600.69 361.454C600.905 361.242 600.878 361.746 600.851 361.773 600.637 361.985 600.664 361.481 600.69 361.454ZM594.264 361.136C595.869 368.081 599.409 372.211 603.422 377.864 599.793 381.179 596.365 384.341 593.512 388.38 591.915 390.64 591.028 394.257 588.774 395.925 585.502 398.346 580.769 399.442 576.912 400.533 566.449 403.494 554.53 404.887 544.136 400.897 541.082 399.725 537.765 398.384 535.46 396.027 538.761 396.805 541.774 398.516 545.1 399.235 553.94 401.145 562.873 400.532 571.61 398.472 574.866 397.705 579.32 396.997 582.082 395.03 583.856 393.766 584.773 391.079 586.026 389.336 588.951 385.269 592.613 381.12 597.156 378.82 593.181 374.528 590.186 368.969 589.926 363.047 586.952 363.047 583.04 363.716 580.286 362.569 584.954 362.204 589.577 361.335 594.264 361.136ZM525.338 348.23C527.629 350.313 529.153 352.926 531.604 354.922 526.972 354.827 522.763 353.455 525.338 348.23ZM735.649 328.953C735.864 328.74 735.837 329.245 735.81 329.271 735.596 329.484 735.623 328.979 735.649 328.953ZM593.942 328.953C594.157 328.74 594.13 329.245 594.103 329.271 593.889 329.484 593.916 328.979 593.942 328.953ZM586.552 328.156C589.682 332.776 590.973 337.591 596.192 340.583 595.141 345.642 593.782 350.161 593.782 355.4 582.85 355.4 570.988 357.053 561.488 362.791 558.498 364.597 555.091 366.948 552.965 369.739 551.853 371.2 551.966 374.307 549.431 373.701 546.784 373.068 545.556 370.198 546.768 367.846 548.284 364.903 552.419 362.722 555.222 361.153 565.66 355.306 577.713 354.444 589.444 354.444 589.707 352.378 589.883 350.247 590.415 348.23 590.831 346.651 591.844 344.618 591.696 342.973 591.534 341.176 589.627 339.625 588.653 338.193 586.802 335.473 585.86 332.356 584.142 329.59ZM741.755 327.678C742.09 328.421 742.09 328.369 741.755 329.112ZM527.266 327.2C527.601 327.943 527.601 327.891 527.266 328.634ZM521 327.2C521.336 327.943 521.336 327.891 521 328.634ZM625.112 317.163C625.94 319.84 624.389 323.43 624.248 326.244 623.963 331.917 627.382 339.089 631.859 342.495 631.131 346.222 630.032 350.159 629.957 353.966 629.893 357.273 630.762 360.765 631.377 364.003 629.615 364.572 627.913 365.168 626.076 365.437 625.677 362.309 625.236 359.028 625.75 355.878 626.202 353.105 627.78 349.597 627.417 346.797 627.052 343.981 624.29 341.415 623.355 338.671 620.705 330.894 622.022 324.53 625.112 317.163ZM589.926 303.302 590.89 303.302C589.193 306.698 587.053 309.581 586.133 313.339 585.253 316.933 586.375 320.526 583.169 323.128 578.095 327.247 569.736 328.77 563.416 327.248 561 326.666 557.656 323.954 555.224 324.329 552.754 324.71 552.513 327.178 552.812 329.112 549.746 327.377 548.838 322.855 552.821 321.343 555.191 320.443 557.141 322.134 559.078 323.215 561.588 324.617 564.374 325.621 567.272 325.747 572.062 325.955 579.909 324.751 582.82 320.464 584.267 318.332 583.925 314.847 584.728 312.383 585.836 308.983 587.976 306.238 589.926 303.302ZM601.976 299C604.293 300.206 604.838 302.507 603.107 304.634 601.124 307.07 597.727 308.003 595.661 310.514 593.979 312.56 593.402 315.11 591.854 317.163 592.028 313.392 593.585 309.869 596.236 307.145 598.935 304.373 603.002 303.498 601.976 299Z" fill="#FF335F" fill-rule="evenodd"/><path d="M702.102 416.846C705.176 416.696 708.918 420.924 711.733 422.198 717.842 424.961 724.903 425.48 731.476 424.265 729.421 449.306 696.549 454.143 677.461 446.989 671.933 444.918 663.887 441.93 661.17 436.25 665.407 434.706 669.241 431.823 673.209 429.686 678.558 426.806 684.096 424.342 689.581 421.745 693.071 420.093 698.209 417.037 702.102 416.846ZM697.609 295.05C707.542 294.93 717.125 300.548 723.771 308.246 726.82 311.778 730.256 316.351 730.494 321.191 730.755 326.513 728.994 331.69 726.911 336.532 725.805 339.1 723.642 343.318 724.906 346.118 726.16 348.895 729.376 349.437 731.958 350.368 735.115 351.507 738.092 353.101 740.625 355.317 752.5 365.71 754.672 384.139 749.024 398.376 747.655 401.827 743.92 404.194 740.625 405.627 732.494 409.162 722.566 408.832 715.585 403.014 713.689 401.434 712.119 399.57 710.92 397.417 709.971 395.713 709.262 393.294 707.348 392.408 706.109 391.834 704.734 392.179 703.548 392.716 698.44 395.028 699.75 400.233 700.657 404.609 696.514 406.326 692.646 409.373 688.137 409.882L688.618 410.841C683.302 413.488 678.182 416.809 673.209 420.11 666.961 424.257 660.668 429.469 653.947 432.814 638.064 440.721 614.023 445.895 600.495 430.976 598.536 428.816 597.281 426.392 596.081 423.785 593.709 418.634 592.715 412.706 593.272 407.006 593.972 399.838 596.861 392.626 601.94 387.35 604.174 385.029 606.511 382.871 609.163 381.037 610.253 380.284 611.571 380.502 611.571 379.2 613.85 379.379 616.099 377.857 618.313 377.122 623.093 375.536 627.826 374.151 632.759 373.127 639.096 371.812 645.603 370.712 652.021 370.091 654.899 369.812 657.82 369.889 660.689 369.611 661.913 369.493 662.96 369.697 664.059 368.972 666.762 367.191 667.822 363.766 668.795 360.982 670.569 355.904 672.302 350.187 671.764 344.682 671.24 339.311 670.087 333.077 667.27 328.382 666.521 327.133 665.482 325.497 664.059 324.946 662.67 324.408 660.689 325.575 660.689 326.944 658.626 327.576 656.869 329.986 657.143 332.217 657.473 334.897 659.447 337.254 660.092 339.888 661.475 345.536 661.415 351.424 660.689 357.147 661.388 357.267 661.532 357.298 662.133 357.626 653.978 357.631 645.396 359.748 637.574 361.941 636.58 357.921 636.225 353.592 636.817 349.476 637.185 346.925 638.774 343.398 638.025 340.865 637.506 339.111 635.64 337.905 634.526 336.525 631.999 333.396 629.571 328.151 630.833 324.067 630.833 324.929 630.839 324.797 631.314 325.505 631.545 320.552 635.079 316.351 638.537 313.059 649.532 302.594 666.864 302.325 679.951 308.855 687.086 312.416 692.021 318.945 692.868 326.944 693.191 329.98 691.535 333.683 692.966 336.532 693.997 338.585 696.144 340.079 697.623 341.805 700.096 344.694 702.031 348.541 702.495 352.353 702.789 354.776 702.71 359.807 700.855 361.658 699.516 362.995 696.62 363.226 694.878 363.89 691.556 365.156 688.473 367.114 685.729 369.355 681.26 373.003 677.111 377.756 673.297 382.076 671.846 383.722 670.743 386.561 668.718 387.559 667.204 388.305 665.219 388.224 663.578 388.444 660.639 388.838 657.776 389.496 654.91 390.238 645.136 392.771 635.377 396.068 626.499 400.923 622.83 402.929 618.543 405.456 616.723 409.403 615.436 412.195 617.902 416.341 621.202 415.953 625.139 415.489 628.709 410.6 631.796 408.444L631.314 409.403C638.904 404.838 647.02 402.215 655.873 401.334 659.257 400.997 662.582 400.773 665.986 400.773 668.27 400.773 670.683 401.024 672.727 399.81 677.065 397.235 679.585 390.18 680.432 385.432 683.187 384.611 685.521 381.719 688.137 380.307 693.351 377.493 699.123 376.78 704.991 377.364 713.692 378.23 721.5 387.244 730.513 384.647 736.735 382.853 737.302 376.301 733.34 372.027 727.126 365.326 718.718 363.465 710.288 361.461 713.21 352.518 714.131 343.004 709.107 334.614 707.238 331.495 703.266 329.075 701.91 325.848 701.17 324.083 701.635 321.647 701.336 319.752 700.653 315.435 699.14 310.98 696.761 307.288 695.418 305.202 693.809 303.268 691.987 301.579 690.412 300.119 688.648 299.154 687.655 297.22 690.948 295.769 694.298 295.091 697.609 295.05ZM651.978 278.001C655.132 278.017 658.299 278.367 661.17 279.002 661.719 279.124 662.548 279.825 663.096 279.961 668.789 281.378 673.587 282.929 678.506 286.193 677.979 287.318 677.408 288.144 676.558 289.072 675.586 290.134 674.505 291.584 673.127 292.136 669.857 293.446 665.128 291.257 661.652 291.55 654.051 292.192 646.266 294.477 639.982 298.869 633.923 303.104 630.078 308.68 626.499 314.958 623.525 320.174 620.946 326.07 621.828 332.217 622.243 335.108 623.128 338.274 624.525 340.847 625.504 342.65 627.406 344.482 627.585 346.6 627.836 349.57 626.172 353.234 625.692 356.188 625.17 359.402 625.879 362.578 626.017 365.776 621.993 366.725 617.848 368.43 613.979 369.905 612.252 370.563 610.066 371.986 608.2 372.032 605.674 372.094 603.736 368.653 602.726 366.735 599.485 360.578 599.423 352.748 601.04 346.12 601.581 343.905 603.808 340.721 603.073 338.458 602.249 335.924 598.479 335.03 596.732 333.155 593.405 329.583 591.6 323.621 591.849 318.794 592.059 314.706 594.449 310.352 597.649 307.843 599.387 306.482 601.719 305.683 603.068 303.881 604.918 301.411 603.197 298.721 600.495 297.859 598.123 297.103 595.551 299.236 593.754 300.538 589.703 303.47 586.564 307.352 584.868 312.082 583.66 315.449 584.406 319.867 581.212 322.098 576.374 325.476 568.544 326.479 562.935 324.815 559.886 323.911 555.459 319.538 552.367 321.548 545.903 325.752 555.488 330.832 559.082 332.186 565.061 334.438 571.296 334.387 577.381 332.596 580.011 331.823 582.429 330.481 585.086 329.82 585.791 332.776 587.204 335.49 588.959 337.97 589.891 339.288 591.573 340.651 591.893 342.285 592.159 343.639 591.277 345.309 590.922 346.6 590.22 349.15 589.903 351.679 589.42 354.27 577.68 354.272 565.597 355.257 555.23 361.277 552.02 363.14 541.594 369.669 548.979 373.21 550.289 373.838 553.827 374.826 555.23 374.534 557.057 374.154 558.636 372.294 560.045 371.187 562.425 369.318 565.025 367.699 567.75 366.38 574.981 362.88 582.056 362.9 589.901 362.9 590.412 369.126 593.793 373.701 597.124 378.72 593.193 381.622 589.643 384.867 586.712 388.788 584.867 391.257 583.747 394.631 580.743 395.824 570.102 400.048 557.839 401.582 546.562 399.539 541.569 398.634 536.02 396.797 532.134 393.426 528.147 389.966 525.308 384.673 523.795 379.679 522.708 376.088 522.009 372.406 522.003 368.653 521.996 364.132 521.927 359.661 523.113 355.251 524.351 350.646 533.271 358.179 534.513 351.387 534.807 349.782 533.29 348.298 532.476 347.079 530.91 344.735 529.59 342.105 528.763 339.408 526.522 332.098 528.155 326.049 529.226 318.794L529.708 319.273C530.733 317.997 531.276 316.753 532.597 315.438 535.31 312.737 537.896 309.724 541.265 307.767 545.401 305.365 549.612 303.652 554.267 302.494 556.591 301.915 560.473 302.848 562.453 301.535 565.57 299.466 564.348 296.862 565.824 294.344 566.465 293.249 567.913 292.584 568.713 291.946 571.024 290.106 573.621 287.818 576.418 286.193 586.141 280.546 599.607 279.021 611.089 281.879 613.426 282.46 616.373 284.266 618.312 285.714 619.781 286.81 621.464 288.823 623.609 288.111 625.256 287.565 625.851 285.767 626.98 284.755 628.775 283.147 631.951 281.188 634.203 280.44 636.023 279.836 638.185 279.45 639.982 279.002 640.888 278.776 641.965 279.228 642.871 279.002 645.685 278.302 648.825 277.984 651.978 278.001Z" fill="#FF718F" fill-rule="evenodd"/><path d="M565.666 269 565 271.595C565.867 270.513 566.034 270.303 565.666 269M714.119 269 714.785 272.243C715.219 270.794 714.997 270.249 714.119 269M576.983 291.054C576.326 292.013 576.317 291.834 576.317 293 577.175 292.064 577.25 292.2 576.983 291.054M702.802 291.054C703.258 292.079 703.338 292.207 704.134 293 703.678 291.975 703.598 291.847 702.802 291.054Z" fill="#FFFFFF" fill-rule="evenodd"/></g></svg>