<svg width="342" height="342" xmlns="http://www.w3.org/2000/svg" xmlns:xlink="http://www.w3.org/1999/xlink" overflow="hidden"><defs><clipPath id="clip0"><rect x="469" y="189" width="342" height="342"/></clipPath></defs><g clip-path="url(#clip0)" transform="translate(-469 -189)"><path d="M470 360C470 266.112 546.112 190 640 190 733.888 190 810 266.112 810 360 810 453.888 733.888 530 640 530 546.112 530 470 453.888 470 360Z" fill="#5E7CE2" fill-rule="evenodd"/><path d="M629.379 223.19C659.757 224.775 691.078 236.367 708.06 261.207 724.138 284.724 725.654 314.897 720.033 342.041 716.182 360.636 709.351 378.831 699.293 394.982 693.144 404.855 683.465 412.891 679.649 424.015 673.667 441.456 678.187 460.96 683.101 478.094 684.377 482.543 686.087 486.822 687.6 491.187 688.22 492.975 688.827 495.081 686.875 496.295 685.106 497.394 682.163 496.88 680.174 496.88L663.66 496.88 602.73 496.88 584.508 496.88C582.643 496.88 579.452 497.425 578.268 495.56 577.465 494.294 577.978 492.548 578.199 491.187 578.633 488.501 578.814 485.938 578.814 483.218 578.814 473.271 579.815 463.547 578.399 453.616 577.81 449.49 577.238 445.042 574.525 441.686 570.858 437.151 564.334 436.327 558.883 435.955 549.67 435.326 535.839 435.6 529.722 427.408 527.414 424.316 526.347 419.884 526.545 416.045 526.705 412.925 528.014 409.47 527.338 406.368 526.816 403.971 524.788 402.67 523.92 400.513 522.757 397.623 524.256 394.242 525.287 391.567 517.101 387.315 525.983 380.482 524.197 374.514 523.524 372.265 520.921 371.322 519.023 370.363 515.349 368.507 510.476 366.262 509.239 361.965 508.076 357.925 511.421 353.725 513.518 350.58 518.571 343.003 525.323 335.702 527.624 326.671 528.515 323.172 529.407 318.901 529 315.286 528.612 311.827 526.717 308.487 526.627 305.04 526.563 302.586 527.236 300.076 527.468 297.639 527.977 292.298 528.088 287.016 529.053 281.7 535.299 247.3 568.082 230.178 599.883 224.82 609.233 223.245 619.254 222.662 629.379 223.19Z" fill="#355DDB" fill-rule="evenodd"/><path d="M651.441 238.169C678.554 239.581 706.509 249.904 721.665 272.023 736.015 292.966 737.369 319.836 732.352 344.008 728.914 360.567 722.818 376.769 713.841 391.152 708.353 399.944 699.714 407.1 696.308 417.006 690.969 432.537 695.003 449.906 699.389 465.164 700.528 469.126 702.054 472.936 703.405 476.824 703.958 478.416 704.5 480.292 702.757 481.372 701.178 482.351 698.552 481.893 696.776 481.893L682.038 481.893 627.656 481.893 611.393 481.893C609.728 481.893 606.88 482.378 605.824 480.718 605.106 479.59 605.565 478.036 605.762 476.824 606.149 474.432 606.31 472.149 606.31 469.727 606.311 460.869 607.204 452.21 605.94 443.366 605.414 439.691 604.904 435.731 602.482 432.742 599.21 428.704 593.387 427.97 588.522 427.639 580.299 427.078 567.955 427.322 562.495 420.028 560.434 417.274 559.483 413.327 559.659 409.909 559.802 407.131 560.97 404.054 560.367 401.291 559.901 399.157 558.091 397.998 557.316 396.077 556.279 393.503 557.616 390.493 558.536 388.111 551.23 384.324 559.158 378.24 557.564 372.925 556.963 370.922 554.64 370.083 552.946 369.229 549.667 367.576 545.318 365.576 544.214 361.75 543.175 358.152 546.161 354.412 548.032 351.612 552.542 344.864 558.568 338.362 560.622 330.321 561.418 327.204 562.213 323.401 561.851 320.182 561.504 317.101 559.813 314.127 559.733 311.057 559.676 308.872 560.276 306.637 560.483 304.467 560.937 299.711 561.036 295.007 561.898 290.273 567.473 259.64 596.732 244.392 625.115 239.621 633.46 238.218 642.404 237.699 651.441 238.169Z" fill="#FFFFFF" fill-rule="evenodd"/><path d="M640 237 640 482.669" stroke="#355DDB" stroke-width="8" stroke-miterlimit="8" fill="none" fill-rule="evenodd"/><path d="M618 318C618 313.582 621.411 310 625.618 310 628.248 310 630.566 311.399 631.935 313.527L632.046 313.742 638 313.742 638 322.258 632.046 322.258 631.935 322.473C630.566 324.601 628.248 326 625.618 326 621.411 326 618 322.418 618 318Z" stroke="#355DDB" stroke-width="8" stroke-miterlimit="8" fill="none" fill-rule="evenodd"/><rect x="627" y="316" width="22" height="4" fill="#FFFFFF"/><path d="M7.5 0C11.6421 0 15 3.41075 15 7.61812 15 10.2477 13.6883 12.5662 11.6933 13.9352L11.4919 14.0462 11.4919 20 3.50806 20 3.50806 14.0462 3.30667 13.9352C1.31166 12.5662 0 10.2477 0 7.61812 0 3.41075 3.35786 0 7.5 0Z" stroke="#355DDB" stroke-width="8" stroke-miterlimit="8" fill="none" fill-rule="evenodd" transform="matrix(-6.12323e-17 -1 -1 6.12323e-17 661 422)"/><rect x="0" y="0" width="22" height="3" fill="#FFFFFF" transform="matrix(-1 0 0 1 652 413)"/><path d="M539 361 727.976 361" stroke="#355DDB" stroke-width="8" stroke-miterlimit="8" fill="none" fill-rule="evenodd"/><path d="M8 0C12.4183 0 16 3.58128 16 7.99903 16 10.7601 14.6009 13.1945 12.4729 14.632L12.2581 14.7485 12.2581 21 3.74193 21 3.74193 14.7485 3.52711 14.632C1.3991 13.1945 0 10.7601 0 7.99903 0 3.58128 3.58172 0 8 0Z" stroke="#355DDB" stroke-width="8" stroke-miterlimit="8" fill="#FFFFFF" fill-rule="evenodd" transform="matrix(1 -1.22465e-16 -1.22465e-16 -1 597 383)"/><rect x="0" y="0" width="22" height="4" fill="#FFFFFF" transform="matrix(-6.12323e-17 -1 -1 6.12323e-17 607 373)"/><path d="M8 0C12.4183 0 16 3.58128 16 7.99903 16 10.7601 14.6009 13.1945 12.4729 14.632L12.2581 14.7485 12.2581 21 3.74193 21 3.74193 14.7485 3.52711 14.632C1.3991 13.1945 0 10.7601 0 7.99903 0 3.58128 3.58172 0 8 0Z" stroke="#355DDB" stroke-width="8" stroke-miterlimit="8" fill="none" fill-rule="evenodd" transform="matrix(-1 0 0 1 689 340)"/><rect x="0" y="0" width="22" height="3" fill="#FFFFFF" transform="matrix(1.83697e-16 1 1 -1.83697e-16 679 349)"/></g></svg>