<svg width="342" height="342" xmlns="http://www.w3.org/2000/svg" xmlns:xlink="http://www.w3.org/1999/xlink" overflow="hidden"><defs><clipPath id="clip0"><rect x="469" y="189" width="342" height="342"/></clipPath></defs><g clip-path="url(#clip0)" transform="translate(-469 -189)"><path d="M470 360C470 266.112 546.112 190 640 190 733.888 190 810 266.112 810 360 810 453.888 733.888 530 640 530 546.112 530 470 453.888 470 360Z" fill="#5E7CE2" fill-rule="evenodd"/><path d="M570.133 233.34C542.36 249.376 534.411 287.603 552.378 318.724 570.346 349.845 607.426 362.074 635.2 346.039 662.974 330.004 670.923 291.777 652.955 260.656 634.988 229.535 597.907 217.305 570.133 233.34ZM564.756 224.027C596.817 205.517 639.78 219.91 660.717 256.174 681.655 292.439 672.638 336.843 640.577 355.353 608.517 373.863 565.554 359.47 544.616 323.205 523.679 286.941 532.696 242.537 564.756 224.027Z" fill="#355DDB" fill-rule="evenodd"/><path d="M546.833 243.344 614.673 360.847" stroke="#355DDB" stroke-width="2" stroke-miterlimit="8" fill="none" fill-rule="evenodd"/><path d="M564.05 233.404 631.89 350.906" stroke="#355DDB" stroke-width="2" stroke-miterlimit="8" fill="none" fill-rule="evenodd"/><path d="M555.441 238.374 623.281 355.876" stroke="#355DDB" stroke-width="2" stroke-miterlimit="8" fill="none" fill-rule="evenodd"/><path d="M581.267 223.464 649.107 340.966" stroke="#355DDB" stroke-width="2" stroke-miterlimit="8" fill="none" fill-rule="evenodd"/><path d="M572.658 228.434 640.498 345.936" stroke="#355DDB" stroke-width="2" stroke-miterlimit="8" fill="none" fill-rule="evenodd"/><path d="M540.939 253.018 603.349 361.114" stroke="#355DDB" stroke-width="2" stroke-miterlimit="8" fill="none" fill-rule="evenodd"/><path d="M601.2 218.227 663.609 326.323" stroke="#355DDB" stroke-width="2" stroke-miterlimit="8" fill="none" fill-rule="evenodd"/><path d="M589.876 218.494 657.716 335.996" stroke="#355DDB" stroke-width="2" stroke-miterlimit="8" fill="none" fill-rule="evenodd"/><path d="M535.407 283.197 574.447 350.816" stroke="#355DDB" stroke-width="2" stroke-miterlimit="8" fill="none" fill-rule="evenodd"/><path d="M630.101 228.525 669.141 296.144" stroke="#355DDB" stroke-width="2" stroke-miterlimit="8" fill="none" fill-rule="evenodd"/><path d="M535.68 263.789 591.391 360.283" stroke="#355DDB" stroke-width="2" stroke-miterlimit="8" fill="none" fill-rule="evenodd"/><path d="M613.157 219.057 668.869 315.552" stroke="#355DDB" stroke-width="2" stroke-miterlimit="8" fill="none" fill-rule="evenodd"/><path d="M560.253 342.626 665.528 281.846" stroke="#355DDB" stroke-width="2" stroke-miterlimit="8" fill="none" fill-rule="evenodd"/><path d="M550.312 325.409 655.587 264.629" stroke="#355DDB" stroke-width="2" stroke-miterlimit="8" fill="none" fill-rule="evenodd"/><path d="M555.283 334.018 660.558 273.237" stroke="#355DDB" stroke-width="2" stroke-miterlimit="8" fill="none" fill-rule="evenodd"/><path d="M540.372 308.192 645.647 247.411" stroke="#355DDB" stroke-width="2" stroke-miterlimit="8" fill="none" fill-rule="evenodd"/><path d="M545.342 316.801 650.617 256.02" stroke="#355DDB" stroke-width="2" stroke-miterlimit="8" fill="none" fill-rule="evenodd"/><path d="M569.437 348.802 666.284 292.887" stroke="#355DDB" stroke-width="2" stroke-miterlimit="8" fill="none" fill-rule="evenodd"/><path d="M534.645 288.542 631.493 232.627" stroke="#355DDB" stroke-width="2" stroke-miterlimit="8" fill="none" fill-rule="evenodd"/><path d="M535.402 299.583 640.677 238.803" stroke="#355DDB" stroke-width="2" stroke-miterlimit="8" fill="none" fill-rule="evenodd"/><path d="M597.509 355.551 658.092 320.573" stroke="#355DDB" stroke-width="2" stroke-miterlimit="8" fill="none" fill-rule="evenodd"/><path d="M542.838 260.856 603.42 225.879" stroke="#355DDB" stroke-width="2" stroke-miterlimit="8" fill="none" fill-rule="evenodd"/><path d="M579.604 354.41 666.057 304.496" stroke="#355DDB" stroke-width="2" stroke-miterlimit="8" fill="none" fill-rule="evenodd"/><path d="M534.872 276.933 621.326 227.019" stroke="#355DDB" stroke-width="2" stroke-miterlimit="8" fill="none" fill-rule="evenodd"/><path d="M631.692 351.021 641.163 345.552 720.52 483.001 711.048 488.47Z" fill="#355DDB" fill-rule="evenodd"/><path d="M681.659 446.738 699.074 436.684 729.461 489.316 712.046 499.371Z" fill="#355DDB" fill-rule="evenodd"/><path d="M681.659 446.738 676.866 418.328 699.074 436.684Z" fill="#355DDB" fill-rule="evenodd"/><path d="M691 322C691 304.327 704.655 290 721.5 290 738.345 290 752 304.327 752 322 752 339.673 738.345 354 721.5 354 704.655 354 691 339.673 691 322Z" stroke="#355DDB" stroke-width="4" stroke-miterlimit="8" fill="none" fill-rule="evenodd"/><path d="M713.298 351.778C708.865 350.319 702.1 326.218 703.099 317.765 704.099 309.311 710.532 300.195 719.298 301.057 728.063 301.919 731.796 308.781 732.896 314.582 733.996 320.384 725.997 329.898 725.897 335.865 725.797 341.832 733.096 348.098 732.296 350.385 731.496 352.673 722.064 353.734 718.898 353.966 715.732 354.198 717.731 353.236 713.298 351.778Z" fill="#355DDB" fill-rule="evenodd"/><path d="M627.523 397.971C613.597 397.247 595.051 401.676 580.558 414.342 557.368 434.609 554.472 469.597 561.75 477.564 569.028 485.531 603.731 487.659 626.921 467.392 650.111 447.125 654.147 413.443 645.728 404.171 642.571 400.694 635.878 398.405 627.523 397.971ZM628.28 395.459C637.149 396.083 644.291 398.65 647.705 402.417 656.811 412.459 653.18 448.274 628.979 469.424 604.778 490.574 567.938 487.638 560.067 479.008 552.196 470.378 554.593 433.151 578.793 412 593.919 398.782 613.499 394.42 628.28 395.459Z" fill="#355DDB" fill-rule="evenodd"/><path d="M560.5 478.5C572.667 460.519 579.381 444.282 595.948 430.662 612.515 417.041 627.533 413.76 648.5 404.5" stroke="#355DDB" stroke-width="3" stroke-miterlimit="8" fill="none" fill-rule="evenodd"/><path d="M579 448C582.367 443.167 585.733 438.333 590.4 434 595.067 429.667 607 422 607 422L607 422" stroke="#355DDB" stroke-width="6" stroke-linecap="round" stroke-linejoin="round" stroke-miterlimit="10" fill="none" fill-rule="evenodd"/><path d="M577.252 440.216 588.298 448.031" stroke="#355DDB" stroke-width="3" stroke-linecap="round" stroke-linejoin="round" stroke-miterlimit="10" fill="none" fill-rule="evenodd"/><path d="M581.851 432.425 592.897 440.239" stroke="#355DDB" stroke-width="3" stroke-linecap="round" stroke-linejoin="round" stroke-miterlimit="10" fill="none" fill-rule="evenodd"/><path d="M588.034 426.386 599.08 434.201" stroke="#355DDB" stroke-width="3" stroke-linecap="round" stroke-linejoin="round" stroke-miterlimit="10" fill="none" fill-rule="evenodd"/><path d="M596.123 420.826 607.169 428.64" stroke="#355DDB" stroke-width="3" stroke-linecap="round" stroke-linejoin="round" stroke-miterlimit="10" fill="none" fill-rule="evenodd"/><path d="M570 360C570 321.34 601.34 290 640 290 678.66 290 710 321.34 710 360 710 398.66 678.66 430 640 430 601.34 430 570 398.66 570 360Z" fill="#FFFFFF" fill-rule="evenodd"/><path d="M698.785 388.143 700.588 394.514 698.045 398.682C690.497 409.808 679.809 418.647 667.247 423.938L662.125 425.805 656.151 422.719 668.007 393.862ZM582.126 388.143 612.904 393.862 624.761 422.719 618.41 426 612.753 423.938C600.191 418.647 589.503 409.808 581.955 398.682L580.035 395.535ZM640.242 333.634 665.391 351.81 655.785 381.218 624.699 381.218 615.093 351.81ZM690.265 316.502 694.873 316.905 698.045 320.734C705.593 331.859 710 345.271 710 359.708L709.648 366.649 707.617 368.458 684.724 347.189ZM589.736 316.502 595.276 347.189 572.383 368.458 570.352 366.648 570 359.708C570 345.271 574.407 331.859 581.955 320.734L585.127 316.906ZM640 290C647.249 290 654.24 291.097 660.816 293.134L663.785 294.216 667.492 302.739 640 317.658 612.508 302.739 616.215 294.216 619.184 293.134C625.76 291.097 632.751 290 640 290Z" fill="#262626" fill-rule="evenodd"/></g></svg>