<svg width="342" height="342" xmlns="http://www.w3.org/2000/svg" xmlns:xlink="http://www.w3.org/1999/xlink" overflow="hidden"><defs><clipPath id="clip0"><rect x="469" y="189" width="342" height="342"/></clipPath></defs><g clip-path="url(#clip0)" transform="translate(-469 -189)"><path d="M470 360C470 266.112 546.112 190 640 190 733.888 190 810 266.112 810 360 810 453.888 733.888 530 640 530 546.112 530 470 453.888 470 360Z" fill="#06D6A0" fill-rule="evenodd"/><path d="M671.882 238.575C710.645 238.575 742.069 269.999 742.069 308.762 742.069 347.525 710.645 378.949 671.882 378.949 657.346 378.949 643.842 374.53 632.64 366.962L627.331 362.582 597.454 374.41 613.438 347.554 607.211 336.082C603.659 327.685 601.695 318.453 601.695 308.762 601.695 269.999 633.119 238.575 671.882 238.575Z" fill="#13BF9E" fill-rule="evenodd"/><path d="M631 314.5C631 313.119 632.119 312 633.5 312L710.5 312C711.881 312 713 313.119 713 314.5L713 314.5C713 315.881 711.881 317 710.5 317L633.5 317C632.119 317 631 315.881 631 314.5Z" fill="#04AC80" fill-rule="evenodd"/><path d="M631 327.5C631 326.119 632.119 325 633.5 325L710.5 325C711.881 325 713 326.119 713 327.5L713 327.5C713 328.881 711.881 330 710.5 330L633.5 330C632.119 330 631 328.881 631 327.5Z" fill="#04AC80" fill-rule="evenodd"/><path d="M631 339.5C631 338.119 632.119 337 633.5 337L710.5 337C711.881 337 713 338.119 713 339.5L713 339.5C713 340.881 711.881 342 710.5 342L633.5 342C632.119 342 631 340.881 631 339.5Z" fill="#04AC80" fill-rule="evenodd"/><path d="M631 277C631 275.895 631.895 275 633 275L711 275C712.105 275 713 275.895 713 277L713 277C713 278.105 712.105 279 711 279L633 279C631.895 279 631 278.105 631 277Z" fill="#04AC80" fill-rule="evenodd"/><path d="M631 290C631 288.895 631.895 288 633 288L711 288C712.105 288 713 288.895 713 290L713 290C713 291.105 712.105 292 711 292L633 292C631.895 292 631 291.105 631 290Z" fill="#04AC80" fill-rule="evenodd"/><path d="M631 302.5C631 301.119 632.119 300 633.5 300L710.5 300C711.881 300 713 301.119 713 302.5L713 302.5C713 303.881 711.881 305 710.5 305L633.5 305C632.119 305 631 303.881 631 302.5Z" fill="#04AC80" fill-rule="evenodd"/><path d="M10.9424 88.9473 8.48854 91.9326C4.81716 97.3877 2.6734 103.964 2.6734 111.043L2.6734 167.223 11.1769 176.615C26.5625 192.059 44.8828 204.558 65.226 213.195L67.4169 214 68.0966 212.743C69.8196 208.654 70.7723 204.158 70.7723 199.439L70.7723 111.043C70.7723 106.323 69.8196 101.828 68.0966 97.7386L67.7549 97.1066 67.4124 97.2932C60.778 100.11 53.4838 101.668 45.8272 101.668 34.3424 101.668 23.673 98.163 14.8225 92.1609ZM257.058 88.9473 253.177 92.1609C244.327 98.163 233.658 101.668 222.173 101.668 214.516 101.668 207.222 100.11 200.588 97.2932L200.245 97.1066 199.903 97.7386C198.18 101.828 197.228 106.323 197.228 111.043L197.228 199.439C197.228 201.798 197.466 204.102 197.919 206.327L199.725 212.167 212.464 206.007C231.739 195.497 248.763 181.354 262.624 164.494L265.327 160.866 265.327 111.043C265.327 103.964 263.183 97.3877 259.511 91.9326ZM45.8272 0C20.5176 0 0 20.5959 0 46.0021 0 71.4083 20.5176 92.0042 45.8272 92.0042 71.1369 92.0042 91.6544 71.4083 91.6544 46.0021 91.6544 20.5959 71.1369 0 45.8272 0ZM222.173 0C196.863 0 176.346 20.5959 176.346 46.0021 176.346 71.4083 196.863 92.0042 222.173 92.0042 247.482 92.0042 268 71.4083 268 46.0021 268 20.5959 247.482 0 222.173 0Z" fill="#FFFFFF" fill-rule="evenodd" transform="matrix(-1 0 0 1 771 304)"/><path d="M744.725 420C750.4 420 755 424.613 755 430.304L755 485.249 748.558 491.12 736.717 500 735.257 497.829C734.737 496.596 734.449 495.241 734.449 493.818L734.449 430.304C734.449 424.613 739.05 420 744.725 420ZM533.275 420C538.95 420 543.551 424.613 543.551 430.304 543.551 451.476 543.551 472.647 543.551 493.818 543.551 495.241 543.263 496.596 542.743 497.829L542.113 498.766 531.918 491.12 523 482.993 523 430.304C523 424.613 527.6 420 533.275 420Z" fill="#F2F2F2" fill-rule="evenodd"/></g></svg>