<svg width="344" height="344" xmlns="http://www.w3.org/2000/svg" xmlns:xlink="http://www.w3.org/1999/xlink" overflow="hidden"><defs><clipPath id="clip0"><rect x="468" y="188" width="344" height="344"/></clipPath><clipPath id="clip1"><rect x="469" y="189" width="342" height="342"/></clipPath><clipPath id="clip2"><rect x="469" y="189" width="342" height="342"/></clipPath><clipPath id="clip3"><rect x="442" y="189" width="396" height="342"/></clipPath><clipPath id="clip4"><rect x="442" y="189" width="396" height="342"/></clipPath></defs><g clip-path="url(#clip0)" transform="translate(-468 -188)"><g clip-path="url(#clip1)"><g clip-path="url(#clip2)"><g clip-path="url(#clip3)"><g clip-path="url(#clip4)"><path d="M469 360C469 266.112 545.112 190 639 190 732.888 190 809 266.112 809 360 809 453.888 732.888 530 639 530 545.112 530 469 453.888 469 360Z" fill="#FF718F" fill-rule="evenodd"/><text fill="#FF335F" font-family="Arial,Arial_MSFontService,sans-serif" font-weight="700" font-size="96" transform="matrix(1 0 0 1 501.715 320)">SEWA</text><path d="M10.9424 88.9473 8.48854 91.9326C4.81716 97.3877 2.6734 103.964 2.6734 111.043L2.6734 167.223 11.1769 176.615C26.5625 192.059 44.8828 204.558 65.226 213.195L67.4169 214 68.0966 212.743C69.8196 208.654 70.7723 204.158 70.7723 199.439L70.7723 111.043C70.7723 106.323 69.8196 101.828 68.0966 97.7386L67.7549 97.1066 67.4124 97.2932C60.778 100.11 53.4838 101.668 45.8272 101.668 34.3424 101.668 23.673 98.163 14.8225 92.1609ZM257.058 88.9473 253.177 92.1609C244.327 98.163 233.658 101.668 222.173 101.668 214.516 101.668 207.222 100.11 200.588 97.2932L200.245 97.1066 199.903 97.7386C198.18 101.828 197.228 106.323 197.228 111.043L197.228 199.439C197.228 201.798 197.466 204.102 197.919 206.327L199.725 212.167 212.464 206.007C231.739 195.497 248.763 181.354 262.624 164.494L265.327 160.866 265.327 111.043C265.327 103.964 263.183 97.3877 259.511 91.9326ZM45.8272 0C20.5176 0 0 20.5959 0 46.0021 0 71.4083 20.5176 92.0042 45.8272 92.0042 71.1369 92.0042 91.6544 71.4083 91.6544 46.0021 91.6544 20.5959 71.1369 0 45.8272 0ZM222.173 0C196.863 0 176.346 20.5959 176.346 46.0021 176.346 71.4083 196.863 92.0042 222.173 92.0042 247.482 92.0042 268 71.4083 268 46.0021 268 20.5959 247.482 0 222.173 0Z" fill="#FFFFFF" fill-rule="evenodd" transform="matrix(-1 0 0 1 770 304)"/><path d="M623.911 457.071C622.859 450.901 627.008 445.046 633.178 443.994L730.363 427.421C736.533 426.369 742.388 430.518 743.44 436.688L743.44 436.688C744.492 442.859 740.343 448.713 734.173 449.766L636.988 466.338C630.818 467.39 624.963 463.241 623.911 457.071Z" fill="#D9D9D9" fill-rule="evenodd"/><path d="M528.311 442.452C527.259 436.282 531.408 430.427 537.578 429.375L634.763 412.802C640.933 411.75 646.788 415.899 647.84 422.069L647.84 422.069C648.892 428.24 644.743 434.095 638.573 435.147L541.388 451.719C535.218 452.771 529.363 448.622 528.311 442.452Z" fill="#F2F2F2" fill-rule="evenodd"/></g></g></g></g></g></svg>