<svg width="342" height="342" xmlns="http://www.w3.org/2000/svg" xmlns:xlink="http://www.w3.org/1999/xlink" overflow="hidden"><defs><clipPath id="clip0"><rect x="469" y="189" width="342" height="342"/></clipPath></defs><g clip-path="url(#clip0)" transform="translate(-469 -189)"><path d="M470 360C470 266.112 546.112 190 640 190 733.888 190 810 266.112 810 360 810 453.888 733.888 530 640 530 546.112 530 470 453.888 470 360Z" fill="#06D6A0" fill-rule="evenodd"/><path d="M716.165 208.211 721.07 210.574C725.889 213.192 730.568 216.036 735.093 219.093L735.125 219.117 651.782 363.472 732.266 502.874 721.07 509.676 713.141 513.496 639.153 385.346 565.535 512.857 558.93 509.676 546.481 502.113 626.525 363.472 543.692 220.002 544.907 219.093C549.432 216.036 554.111 213.192 558.93 210.574L562.51 208.849 639.153 341.599Z" fill="#05C391" fill-rule="evenodd"/><path d="M639.916 241 639.944 241.179 639.972 241C673.325 279.265 718.126 277.491 738.39 278.651 740.748 299.863 760.432 407.7 640.382 479.386L640.317 479.085 640.121 480C520.071 408.314 539.139 299.863 541.497 278.651 561.762 277.491 606.563 279.265 639.916 241Z" fill="#FFFFFF" fill-rule="evenodd"/><path d="M639.783 267 639.805 267.14 639.828 267C665.965 296.939 701.074 295.552 716.955 296.459 718.803 313.056 734.228 397.43 640.149 453.52L640.097 453.284 639.944 454 639 453.407 639 267.823 639.783 267Z" fill="#04AC80" fill-rule="evenodd"/><path d="M639 267 639 453 631.469 448.242C547.141 392.13 561.166 311.815 562.95 295.7 577.78 294.847 609.446 296.016 634.8 271.441L639 267Z" fill="#05C391" fill-rule="evenodd"/></g></svg>