<svg width="342" height="342" xmlns="http://www.w3.org/2000/svg" xmlns:xlink="http://www.w3.org/1999/xlink" overflow="hidden"><defs><clipPath id="clip0"><rect x="469" y="189" width="342" height="342"/></clipPath></defs><g clip-path="url(#clip0)" transform="translate(-469 -189)"><path d="M470 360C470 266.112 546.112 190 640 190 733.888 190 810 266.112 810 360 810 453.888 733.888 530 640 530 546.112 530 470 453.888 470 360Z" fill="#F3712B" fill-rule="evenodd"/><path d="M766.277 340.125C768.107 340.125 769.591 341.608 769.591 343.437L769.591 376.563C769.591 378.392 768.107 379.875 766.277 379.875 764.447 379.875 762.963 378.392 762.963 376.563L762.963 343.437C762.963 341.608 764.447 340.125 766.277 340.125ZM705.664 340.125C707.495 340.125 708.978 341.608 708.978 343.437L708.978 376.563C708.978 378.392 707.495 379.875 705.664 379.875 703.833 379.875 702.35 378.392 702.35 376.563L702.35 343.437C702.35 341.608 703.833 340.125 705.664 340.125ZM645.051 340.125C646.881 340.125 648.365 341.608 648.365 343.437L648.365 376.563C648.365 378.392 646.881 379.875 645.051 379.875 643.22 379.875 641.737 378.392 641.737 376.563L641.737 343.437C641.737 341.608 643.22 340.125 645.051 340.125ZM584.438 340.125C586.269 340.125 587.753 341.608 587.753 343.437L587.753 376.563C587.753 378.392 586.269 379.875 584.438 379.875 582.608 379.875 581.124 378.392 581.124 376.563L581.124 343.437C581.124 341.608 582.608 340.125 584.438 340.125ZM523.825 340.125C525.656 340.125 527.14 341.608 527.14 343.437L527.14 376.563C527.14 378.392 525.656 379.875 523.825 379.875 521.995 379.875 520.511 378.392 520.511 376.563L520.511 343.437C520.511 341.608 521.995 340.125 523.825 340.125ZM786.481 333.5C788.312 333.5 789.796 334.983 789.796 336.813L789.796 383.188C789.796 385.017 788.312 386.5 786.481 386.5 784.651 386.5 783.167 385.017 783.167 383.188L783.167 336.813C783.167 334.983 784.651 333.5 786.481 333.5ZM725.868 333.5C727.699 333.5 729.183 334.983 729.183 336.813L729.183 383.188C729.183 385.017 727.699 386.5 725.868 386.5 724.038 386.5 722.554 385.017 722.554 383.188L722.554 336.813C722.554 334.983 724.038 333.5 725.868 333.5ZM665.255 333.5C667.086 333.5 668.57 334.983 668.57 336.813L668.57 383.188C668.57 385.017 667.086 386.5 665.255 386.5 663.425 386.5 661.941 385.017 661.941 383.188L661.941 336.813C661.941 334.983 663.425 333.5 665.255 333.5ZM604.643 333.5C606.473 333.5 607.957 334.983 607.957 336.813L607.957 383.188C607.957 385.017 606.473 386.5 604.643 386.5 602.812 386.5 601.328 385.017 601.328 383.188L601.328 336.813C601.328 334.983 602.812 333.5 604.643 333.5ZM544.029 333.5C545.86 333.5 547.344 334.983 547.344 336.813L547.344 383.188C547.344 385.017 545.86 386.5 544.029 386.5 542.199 386.5 540.715 385.017 540.715 383.188L540.715 336.813C540.715 334.983 542.199 333.5 544.029 333.5ZM483.417 333.5C485.247 333.5 486.731 334.983 486.731 336.813L486.731 383.188C486.731 385.017 485.247 386.5 483.417 386.5 481.586 386.5 480.102 385.017 480.102 383.188L480.102 336.813C480.102 334.983 481.586 333.5 483.417 333.5ZM756.175 326.875C758.005 326.875 759.489 328.358 759.489 330.188L759.489 389.813C759.489 391.642 758.005 393.125 756.175 393.125 754.344 393.125 752.86 391.642 752.86 389.813L752.86 330.188C752.86 328.358 754.344 326.875 756.175 326.875ZM695.562 326.875C697.392 326.875 698.876 328.358 698.876 330.188L698.876 389.813C698.876 391.642 697.392 393.125 695.562 393.125 693.731 393.125 692.247 391.642 692.247 389.813L692.247 330.188C692.247 328.358 693.731 326.875 695.562 326.875ZM634.949 326.875C636.779 326.875 638.263 328.358 638.263 330.188L638.263 389.813C638.263 391.642 636.779 393.125 634.949 393.125 633.118 393.125 631.634 391.642 631.634 389.813L631.634 330.188C631.634 328.358 633.118 326.875 634.949 326.875ZM574.336 326.875C576.167 326.875 577.65 328.358 577.65 330.188L577.65 389.813C577.65 391.642 576.167 393.125 574.336 393.125 572.505 393.125 571.022 391.642 571.022 389.813L571.022 330.188C571.022 328.358 572.505 326.875 574.336 326.875ZM513.723 326.875C515.554 326.875 517.037 328.358 517.037 330.188L517.037 389.813C517.037 391.642 515.554 393.125 513.723 393.125 511.893 393.125 510.409 391.642 510.409 389.813L510.409 330.188C510.409 328.358 511.893 326.875 513.723 326.875ZM474.549 320.761 475.658 321.22C476.258 321.82 476.629 322.648 476.629 323.563L476.629 396.437C476.629 397.352 476.258 398.18 475.658 398.78L474.549 399.239 473.273 394.279C472.139 388.743 471.275 383.109 470.694 377.391L470 363.66 470 356.341 470.694 342.609C471.275 336.891 472.139 331.257 473.273 325.721ZM776.379 320.25C778.21 320.25 779.693 321.733 779.693 323.563L779.693 396.437C779.693 398.267 778.21 399.75 776.379 399.75 774.549 399.75 773.065 398.267 773.065 396.437L773.065 323.563C773.065 321.733 774.549 320.25 776.379 320.25ZM715.766 320.25C717.597 320.25 719.081 321.733 719.081 323.563L719.081 396.437C719.081 398.267 717.597 399.75 715.766 399.75 713.936 399.75 712.452 398.267 712.452 396.437L712.452 323.563C712.452 321.733 713.936 320.25 715.766 320.25ZM655.153 320.25C656.984 320.25 658.468 321.733 658.468 323.563L658.468 396.437C658.468 398.267 656.984 399.75 655.153 399.75 653.323 399.75 651.839 398.267 651.839 396.437L651.839 323.563C651.839 321.733 653.323 320.25 655.153 320.25ZM594.54 320.25C596.371 320.25 597.855 321.733 597.855 323.563L597.855 396.437C597.855 398.267 596.371 399.75 594.54 399.75 592.71 399.75 591.226 398.267 591.226 396.437L591.226 323.563C591.226 321.733 592.71 320.25 594.54 320.25ZM533.927 320.25C535.758 320.25 537.242 321.733 537.242 323.563L537.242 396.437C537.242 398.267 535.758 399.75 533.927 399.75 532.097 399.75 530.613 398.267 530.613 396.437L530.613 323.563C530.613 321.733 532.097 320.25 533.927 320.25ZM804.048 315.305 806.727 325.721C807.861 331.257 808.725 336.891 809.306 342.609L810 356.341 810 363.66 809.306 377.391C808.725 383.109 807.861 388.743 806.727 394.279L804.048 404.695 803.371 403.062 803.371 316.938ZM746.073 313.625C747.903 313.625 749.387 315.108 749.387 316.938L749.387 403.062C749.387 404.892 747.903 406.375 746.073 406.375 744.242 406.375 742.758 404.892 742.758 403.062L742.758 316.938C742.758 315.108 744.242 313.625 746.073 313.625ZM685.46 313.625C687.29 313.625 688.774 315.108 688.774 316.938L688.774 403.062C688.774 404.892 687.29 406.375 685.46 406.375 683.629 406.375 682.145 404.892 682.145 403.062L682.145 316.938C682.145 315.108 683.629 313.625 685.46 313.625ZM624.847 313.625C626.677 313.625 628.161 315.108 628.161 316.938L628.161 403.062C628.161 404.892 626.677 406.375 624.847 406.375 623.016 406.375 621.532 404.892 621.532 403.062L621.532 316.938C621.532 315.108 623.016 313.625 624.847 313.625ZM564.234 313.625C566.064 313.625 567.548 315.108 567.548 316.938L567.548 403.062C567.548 404.892 566.064 406.375 564.234 406.375 562.403 406.375 560.919 404.892 560.919 403.062L560.919 316.938C560.919 315.108 562.403 313.625 564.234 313.625ZM503.621 313.625C505.451 313.625 506.935 315.108 506.935 316.938L506.935 403.062C506.935 404.892 505.451 406.375 503.621 406.375 501.79 406.375 500.306 404.892 500.306 403.062L500.306 316.938C500.306 315.108 501.79 313.625 503.621 313.625ZM796.583 307C798.414 307 799.898 308.483 799.898 310.313L799.898 409.688C799.898 411.517 798.414 413 796.583 413 794.753 413 793.269 411.517 793.269 409.688L793.269 310.313C793.269 308.483 794.753 307 796.583 307ZM735.971 307C737.801 307 739.285 308.483 739.285 310.313L739.285 409.688C739.285 411.517 737.801 413 735.971 413 734.14 413 732.656 411.517 732.656 409.688L732.656 310.313C732.656 308.483 734.14 307 735.971 307ZM675.357 307C677.188 307 678.672 308.483 678.672 310.313L678.672 409.688C678.672 411.517 677.188 413 675.357 413 673.527 413 672.043 411.517 672.043 409.688L672.043 310.313C672.043 308.483 673.527 307 675.357 307ZM614.745 307C616.575 307 618.059 308.483 618.059 310.313L618.059 409.688C618.059 411.517 616.575 413 614.745 413 612.914 413 611.43 411.517 611.43 409.688L611.43 310.313C611.43 308.483 612.914 307 614.745 307ZM554.132 307C555.962 307 557.446 308.483 557.446 310.313L557.446 409.688C557.446 411.517 555.962 413 554.132 413 552.301 413 550.817 411.517 550.817 409.688L550.817 310.313C550.817 308.483 552.301 307 554.132 307ZM493.519 307C495.349 307 496.833 308.483 496.833 310.313L496.833 409.688C496.833 411.517 495.349 413 493.519 413 491.688 413 490.204 411.517 490.204 409.688L490.204 310.313C490.204 308.483 491.688 307 493.519 307Z" fill="#F25516" fill-rule="evenodd"/><path d="M580 312.824 593.525 312.824 593.525 359.779C593.525 382.342 609.474 401.167 630.676 405.521L640 406.464 649.324 405.521C670.526 401.167 686.475 382.342 686.475 359.779L686.475 312.824 700 312.824 700 359.51C700 386.812 681.908 409.874 657.098 417.28L646.702 419.34 646.702 459.4 683.182 459.4 683.182 473 596.669 473 596.669 459.4 633.149 459.4 633.149 419.311 622.902 417.28C598.092 409.874 580 386.812 580 359.51ZM639.926 247C659.082 247 674.612 262.584 674.612 281.807L674.612 358.662C674.612 377.885 659.082 393.469 639.926 393.469 620.769 393.469 605.24 377.885 605.24 358.662L605.24 281.807C605.24 262.584 620.769 247 639.926 247Z" fill="#FFFFFF" fill-rule="evenodd"/></g></svg>