<svg width="342" height="342" xmlns="http://www.w3.org/2000/svg" xmlns:xlink="http://www.w3.org/1999/xlink" overflow="hidden"><defs><clipPath id="clip0"><rect x="469" y="189" width="342" height="342"/></clipPath></defs><g clip-path="url(#clip0)" transform="translate(-469 -189)"><path d="M469.951 359.98C469.951 266.092 546.063 189.98 639.951 189.98 733.839 189.98 809.951 266.092 809.951 359.98 809.951 453.868 733.839 529.98 639.951 529.98 546.063 529.98 469.951 453.868 469.951 359.98Z" fill="#0D1321" fill-rule="evenodd"/><path d="M495 359C495 341.327 509.327 327 527 327L753 327C770.673 327 785 341.327 785 359L785 359C785 376.673 770.673 391 753 391L527 391C509.327 391 495 376.673 495 359Z" fill="#FFBC42" fill-rule="evenodd"/><path d="M721 359C721 341.327 735.327 327 753 327 770.673 327 785 341.327 785 359 785 376.673 770.673 391 753 391 735.327 391 721 376.673 721 359Z" fill="#FFA143" fill-rule="evenodd"/><path d="M630 327 650 327 650 405 640 393.63 630 405Z" fill="#F3712B" fill-rule="evenodd"/><path d="M614 359C614 344.641 625.641 333 640 333 654.359 333 666 344.641 666 359 666 373.359 654.359 385 640 385 625.641 385 614 373.359 614 359Z" fill="#F3712B" fill-rule="evenodd"/><path d="M626 355.313 636.695 355.313 640 345 643.305 355.313 654 355.313 645.347 361.687 648.652 372 640 365.626 631.348 372 634.653 361.687Z" fill="#FFFFFF" fill-rule="evenodd"/><path d="M726.5 359C726.5 344.365 738.365 332.5 753 332.5 767.636 332.5 779.5 344.365 779.5 359 779.5 373.636 767.636 385.5 753 385.5 738.365 385.5 726.5 373.636 726.5 359Z" stroke="#FFBC42" stroke-width="1.33333" stroke-miterlimit="8" fill="none" fill-rule="evenodd"/><path d="M733.5 359.5C733.5 348.454 742.454 339.5 753.5 339.5 764.546 339.5 773.5 348.454 773.5 359.5 773.5 370.546 764.546 379.5 753.5 379.5 742.454 379.5 733.5 370.546 733.5 359.5Z" stroke="#FFBC42" stroke-width="1.33333" stroke-miterlimit="8" fill="none" fill-rule="evenodd"/><path d="M740.5 359.5C740.5 352.32 746.096 346.5 753 346.5 759.904 346.5 765.5 352.32 765.5 359.5 765.5 366.68 759.904 372.5 753 372.5 746.096 372.5 740.5 366.68 740.5 359.5Z" stroke="#FFBC42" stroke-width="1.33333" stroke-miterlimit="8" fill="none" fill-rule="evenodd"/><path d="M748.5 359.5C748.5 356.739 750.515 354.5 753 354.5 755.485 354.5 757.5 356.739 757.5 359.5 757.5 362.261 755.485 364.5 753 364.5 750.515 364.5 748.5 362.261 748.5 359.5Z" stroke="#FFBC42" stroke-width="1.33333" stroke-miterlimit="8" fill="none" fill-rule="evenodd"/></g></svg>