<svg width="298" height="299" xmlns="http://www.w3.org/2000/svg" xmlns:xlink="http://www.w3.org/1999/xlink" overflow="hidden"><defs><clipPath id="clip0"><rect x="491" y="210" width="298" height="299"/></clipPath></defs><g clip-path="url(#clip0)" transform="translate(-491 -210)"><path d="M491 359.5C491 277.486 557.71 211 640 211 722.29 211 789 277.486 789 359.5 789 441.514 722.29 508 640 508 557.71 508 491 441.514 491 359.5Z" fill="#0D1321" fill-rule="evenodd"/><path d="M55.1999 135.623C74.135 134.684 90.8034 123.158 99.2042 105.332L103.338 96.6196 103.738 44.0794 104 9.57106 96.2041 6.7031C82.2698 2.34683 67.4546 0 52.0941 0 36.7336 0 21.9185 2.34683 7.98418 6.7031L0 9.64031 0.261221 43.9453 0.661285 96.6196 4.92828 105.6C11.7289 120.075 24.7969 131.066 39.5983 134.819 42.3986 135.489 49.3326 135.891 55.1999 135.623ZM51.8163 211C56.7668 211.016 61.734 210.447 64.5342 209.241 70.8014 206.694 78.4022 199.456 81.7358 193.157 83.8694 189.002 84.5361 185.249 84.5361 178.279 84.5361 171.31 83.8694 167.557 81.7358 163.402 78.2688 156.834 71.0681 150.267 64.4008 147.452 58.5336 144.906 45.3323 144.906 39.4651 147.318 33.1978 149.865 25.5971 157.102 22.2634 163.402 18.263 171.042 18.263 185.517 22.2634 193.157 25.5971 199.322 33.0645 206.56 39.1984 209.241 41.932 210.38 46.8659 210.983 51.8163 211Z" fill="#FFFFFF" fill-rule="evenodd" transform="matrix(1 0 0 -1 588 509)"/><path d="M38.3331 99.583C41.4188 99.4492 44.0261 99.0137 44.7521 98.3439 45.0162 98.0759 43.96 93.9232 42.3759 89.1007 39.7356 80.9291 39.6037 77.7141 39.6037 39.5357L39.6037 0 29.0511 5.15849C20.7281 9.74651 12.891 15.1274 5.63839 21.201L0 26.4011 0 31.498C0 49.9845 0.660067 67.1313 1.45219 71.0162 4.35646 84.68 15.8415 96.3345 29.0427 99.0137 31.683 99.5495 35.2473 99.717 38.3331 99.583ZM34.9737 154C43.8184 154 53.5874 147.168 56.6236 138.863 60.584 128.414 55.6995 116.089 45.7986 111.267 38.802 107.784 33.9175 107.784 26.9209 110.999 17.284 115.42 12.1355 125.601 14.5118 135.781 16.0959 143.015 19.5282 147.436 26.3929 151.053 29.5612 152.66 33.3895 154 34.9737 154Z" fill="#06D6A0" fill-rule="evenodd" transform="matrix(1 0 0 -1 540 496)"/><path d="M17.0884 99.7348C27.3389 101.344 42.7146 95.8463 49.1886 88.2034 51.2117 85.7898 54.179 81.2309 55.6626 77.8787 58.2252 72.2472 58.4949 69.0292 58.8996 35.2395L59 26.1917 53.6 21.3125C46.1901 15.2332 38.1831 9.84722 29.6795 5.25488L18.7069 0 18.7069 40.0666C18.572 77.2083 18.3022 81.9014 16.0094 88.6056 12.6376 98.2599 12.6376 99.0643 17.0884 99.7348ZM23.8758 153.935C26.4721 153.7 29.0347 152.829 32.2043 151.287 39.0829 147.666 42.7245 143.242 44.343 136.403 46.6359 126.079 42.0501 116.693 32.2043 111.731 24.6513 107.843 19.2563 107.843 11.8382 111.731-5.56061 120.849-3.26774 147.13 15.345 152.762 18.6494 153.767 21.2795 154.17 23.8758 153.935Z" fill="#FFBC42" fill-rule="evenodd" transform="matrix(1 0 0 -1 681 496)"/><path d="M22.894 53.084C26.3922 53.3864 29.1643 53.0168 29.1643 51.8073 29.1643 51.0009 28.1082 48.1787 26.9202 45.3565 25.072 41.3246 24.544 35.0081 24.148 11.2205L23.9457 0 17.4153 7.31518C11.4302 14.6986 6.12775 22.677 1.6066 31.1502L0 34.5456 0.311957 36.3812C0.855001 38.6641 1.69028 39.9807 3.02687 41.9966 5.00699 45.0877 8.83518 48.5819 12.2673 50.3289 15.1715 51.8073 19.3957 52.7817 22.894 53.084ZM23.6133 92C31.9299 91.9811 39.0582 84.9506 37.87 75.2743 36.0219 59.6848 14.2408 57.6688 9.35663 72.5865 7.24446 79.0373 9.62063 86.0258 15.1648 89.52 17.9371 91.2335 20.8412 92.0062 23.6133 92Z" fill="#FF335F" fill-rule="evenodd" transform="matrix(1 0 0 -1 508 462)"/><path d="M13.5442 53.2745C18.1195 52.9849 24.8874 51.1816 28.4473 48.7491 33.2159 45.5955 35.9313 42.7772 37.4547 37.0402L38 34.174 36.59 31.2085C32.0532 22.7475 26.7326 14.7806 20.7269 7.40777L14.0815 0 13.8767 11.3074C13.4793 35.0607 12.9495 41.3682 11.095 45.3941 9.90285 48.2124 8.84313 51.1648 8.84313 51.9699 8.84313 53.0771 10.799 53.4482 13.5442 53.2745ZM12.5596 91.8997C14.0837 92.0699 15.5754 92.0201 17.0024 91.7778 25.5647 90.3247 31.7987 81.9457 28.7189 72.5852 23.8179 57.689 1.96192 59.702 0.107503 75.2692-0.687309 81.4424 3.02164 88.6892 7.92259 90.7021 9.47909 91.3395 11.0355 91.7296 12.5596 91.8997Z" fill="#5E7CE2" fill-rule="evenodd" transform="matrix(1 0 0 -1 734 462)"/></g></svg>