<svg width="342" height="376" xmlns="http://www.w3.org/2000/svg" xmlns:xlink="http://www.w3.org/1999/xlink" overflow="hidden"><defs><clipPath id="clip0"><rect x="469" y="178" width="342" height="376"/></clipPath></defs><g clip-path="url(#clip0)" transform="translate(-469 -178)"><path d="M470 360C470 266.112 546.112 190 640 190 733.888 190 810 266.112 810 360 810 453.888 733.888 530 640 530 546.112 530 470 453.888 470 360Z" fill="#FF718F" fill-rule="evenodd"/><path d="M534.833 231 549.167 231 549.167 252.664 566 298 518 298 534.833 252.665Z" fill="#FF335F" fill-rule="evenodd"/><path d="M518.351 378 532.649 378 532.649 399.761 532.819 401.173 535.426 401.702C544.578 405.597 551 414.715 551 425.343 551 439.513 539.583 451 525.5 451 511.417 451 500 439.513 500 425.343 500 414.715 506.422 405.597 515.574 401.702L518.099 401.189 518.351 399.762Z" fill="#FF335F" fill-rule="evenodd"/><path d="M636.765 324.304C639.382 325.624 640.433 328.816 639.113 331.434L634.44 340.694 633.841 341.457 638.356 343.735C639.937 344.533 640.572 346.461 639.774 348.043 638.977 349.624 637.048 350.259 635.467 349.461L631.278 347.347 611.878 380.427C610.558 383.045 609.587 385.217 606.97 383.896 604.352 382.576 605.227 380.355 606.547 377.737 610.982 368.948 614.333 359.613 618.227 350.55L621.896 342.614 617.301 340.295C615.72 339.498 615.085 337.569 615.883 335.988 616.68 334.407 618.609 333.771 620.19 334.569L624.706 336.848 624.963 335.912 629.635 326.651C630.956 324.034 634.148 322.983 636.765 324.304Z" fill="#FF335F" fill-rule="evenodd"/><path d="M529.785 350.785 529.785 353.007 531.057 352.057 532.106 350.785ZM517.041 350.785 517.041 358.502 519.576 358.246C520.685 358.019 521.764 357.712 522.808 357.33L525.703 356.021 525.703 350.785ZM504.297 350.785 504.297 356.021 507.192 357.33C508.236 357.712 509.315 358.019 510.424 358.246L512.959 358.502 512.959 350.785ZM497.894 350.785 498.943 352.057 500.215 353.007 500.215 350.785ZM529.785 338.041 529.785 346.703 534.911 346.703 535.923 344.839C536.498 343.48 536.944 342.055 537.246 340.576L537.502 338.041ZM517.041 338.041 517.041 346.703 525.703 346.703 525.703 338.041ZM504.297 338.041 504.297 346.703 512.959 346.703 512.959 338.041ZM492.498 338.041 492.754 340.576C493.056 342.055 493.502 343.48 494.077 344.839L495.089 346.703 500.215 346.703 500.215 338.041ZM529.785 325.297 529.785 333.959 537.483 333.959 537.157 331.009C536.887 329.805 536.521 328.637 536.068 327.513L534.962 325.297ZM517.041 325.297 517.041 333.959 525.703 333.959 525.703 325.297ZM504.297 325.297 504.297 333.959 512.959 333.959 512.959 325.297ZM495.038 325.297 493.932 327.513C493.479 328.637 493.113 329.805 492.843 331.009L492.517 333.959 500.215 333.959 500.215 325.297ZM529.785 318.775 529.785 321.215 532.214 321.215 529.86 318.83ZM500.215 318.775 500.14 318.83 497.786 321.215 500.215 321.215ZM517.041 313.498 517.041 321.215 525.703 321.215 525.703 316.048 523.326 314.867C522.123 314.393 520.87 314.018 519.576 313.754ZM512.959 313.498 510.424 313.754C509.13 314.018 507.877 314.393 506.674 314.867L504.297 316.048 504.297 321.215 512.959 321.215ZM515 309C529.912 309 542 321.088 542 336 542 350.912 529.912 363 515 363 500.088 363 488 350.912 488 336 488 321.088 500.088 309 515 309Z" fill="#FF335F" fill-rule="evenodd"/><path d="M577.368 328.64C575.274 330.718 575.261 334.101 577.339 336.195 579.418 338.289 582.8 338.302 584.895 336.223 586.989 334.145 587.001 330.762 584.923 328.668 582.845 326.574 579.462 326.561 577.368 328.64ZM554.429 332.893C562.775 325.203 581.189 316.552 587.891 320.93 595.551 325.935 589.34 335.831 592.064 338.452 594.787 341.073 599.484 333.413 604.233 336.655 608.981 339.898 596.186 361.103 587.719 366.63 579.253 372.157 563.499 379.714 553.432 369.818 543.365 359.921 545.789 344.236 551.532 336.089 552.25 335.07 553.237 333.991 554.429 332.893Z" fill="#FF335F" fill-rule="evenodd"/><path d="M591.216 216.905C571.578 228.243 565.958 255.272 578.662 277.276 591.366 299.281 617.584 307.928 637.222 296.59 656.86 285.252 662.48 258.223 649.776 236.219 637.072 214.214 610.854 205.567 591.216 216.905ZM587.414 210.32C610.083 197.232 640.46 207.409 655.264 233.05 670.068 258.691 663.693 290.088 641.024 303.175 618.356 316.263 587.978 306.086 573.174 280.445 558.37 254.803 564.745 223.407 587.414 210.32Z" stroke="#FF335F" stroke-width="1.33333" stroke-miterlimit="8" fill="#FF335F" fill-rule="evenodd"/><path d="M574.741 223.979 622.708 307.06" stroke="#FF335F" stroke-width="2" stroke-miterlimit="8" fill="#FF335F" fill-rule="evenodd"/><path d="M586.915 216.95 634.882 300.031" stroke="#FF335F" stroke-width="2" stroke-miterlimit="8" fill="#FF335F" fill-rule="evenodd"/><path d="M580.828 220.464 628.795 303.545" stroke="#FF335F" stroke-width="2" stroke-miterlimit="8" fill="#FF335F" fill-rule="evenodd"/><path d="M599.088 209.922 647.055 293.003" stroke="#FF335F" stroke-width="2" stroke-miterlimit="8" fill="#FF335F" fill-rule="evenodd"/><path d="M593.001 213.436 640.968 296.517" stroke="#FF335F" stroke-width="2" stroke-miterlimit="8" fill="#FF335F" fill-rule="evenodd"/><path d="M570.574 230.818 614.701 307.248" stroke="#FF335F" stroke-width="2" stroke-miterlimit="8" fill="#FF335F" fill-rule="evenodd"/><path d="M613.182 206.219 657.309 282.649" stroke="#FF335F" stroke-width="2" stroke-miterlimit="8" fill="#FF335F" fill-rule="evenodd"/><path d="M605.175 206.407 653.142 289.489" stroke="#FF335F" stroke-width="2" stroke-miterlimit="8" fill="#FF335F" fill-rule="evenodd"/><path d="M566.662 252.156 594.266 299.967" stroke="#FF335F" stroke-width="2" stroke-miterlimit="8" fill="#FF335F" fill-rule="evenodd"/><path d="M633.617 213.5 661.22 261.311" stroke="#FF335F" stroke-width="2" stroke-miterlimit="8" fill="#FF335F" fill-rule="evenodd"/><path d="M566.855 238.434 606.247 306.661" stroke="#FF335F" stroke-width="2" stroke-miterlimit="8" fill="#FF335F" fill-rule="evenodd"/><path d="M621.636 206.806 661.028 275.033" stroke="#FF335F" stroke-width="2" stroke-miterlimit="8" fill="#FF335F" fill-rule="evenodd"/><path d="M584.23 294.177 658.666 251.201" stroke="#FF335F" stroke-width="2" stroke-miterlimit="8" fill="#FF335F" fill-rule="evenodd"/><path d="M577.201 282.003 651.637 239.028" stroke="#FF335F" stroke-width="2" stroke-miterlimit="8" fill="#FF335F" fill-rule="evenodd"/><path d="M580.716 288.09 655.151 245.114" stroke="#FF335F" stroke-width="2" stroke-miterlimit="8" fill="#FF335F" fill-rule="evenodd"/><path d="M570.173 269.83 644.609 226.854" stroke="#FF335F" stroke-width="2" stroke-miterlimit="8" fill="#FF335F" fill-rule="evenodd"/><path d="M573.687 275.916 648.123 232.941" stroke="#FF335F" stroke-width="2" stroke-miterlimit="8" fill="#FF335F" fill-rule="evenodd"/><path d="M590.723 298.544 659.201 259.008" stroke="#FF335F" stroke-width="2" stroke-miterlimit="8" fill="#FF335F" fill-rule="evenodd"/><path d="M566.124 255.936 634.601 216.4" stroke="#FF335F" stroke-width="2" stroke-miterlimit="8" fill="#FF335F" fill-rule="evenodd"/><path d="M566.659 263.743 641.094 220.767" stroke="#FF335F" stroke-width="2" stroke-miterlimit="8" fill="#FF335F" fill-rule="evenodd"/><path d="M610.572 303.315 653.408 278.584" stroke="#FF335F" stroke-width="2" stroke-miterlimit="8" fill="#FF335F" fill-rule="evenodd"/><path d="M571.916 236.36 614.752 211.629" stroke="#FF335F" stroke-width="2" stroke-miterlimit="8" fill="#FF335F" fill-rule="evenodd"/><path d="M597.912 302.509 659.04 267.216" stroke="#FF335F" stroke-width="2" stroke-miterlimit="8" fill="#FF335F" fill-rule="evenodd"/><path d="M566.284 247.727 627.412 212.435" stroke="#FF335F" stroke-width="2" stroke-miterlimit="8" fill="#FF335F" fill-rule="evenodd"/><path d="M634.742 300.112 641.438 296.246 697.548 393.43 690.851 397.297Z" stroke="#FF335F" stroke-width="1.33333" stroke-miterlimit="8" fill="#FF335F" fill-rule="evenodd"/><path d="M670.071 367.79 682.385 360.681 703.87 397.895 691.557 405.005Z" stroke="#FF335F" stroke-width="1.33333" stroke-miterlimit="8" fill="#FF335F" fill-rule="evenodd"/><path d="M670.071 367.79 666.683 347.703 682.385 360.681Z" stroke="#FF335F" stroke-width="1.33333" stroke-miterlimit="8" fill="#FF335F" fill-rule="evenodd"/><path d="M587.269 458C585.779 427.918 583.264 396.774 584.177 384.82 585.09 372.865 595.938 378.765 592.746 386.273 589.555 393.781 564.07 412.399 565.026 429.868 565.983 447.337 581.588 446.555 587.083 446.822 592.579 447.089 598.043 437.767 598 431.47 597.956 425.173 590.275 420.541 585.481 420.441 580.687 420.342 575.918 424.192 575.943 430.874 575.968 437.556 582.494 440.699 586.971 440.413 591.449 440.127 592.796 437.146 592.746 433.855 592.697 430.564 587.735 430.129 586.673 429.384 585.611 428.639 586.375 429.384 586.375 429.384L586.375 429.384 586.375 429.384" stroke="#FF335F" stroke-width="4" stroke-linecap="round" stroke-miterlimit="8" fill="none" fill-rule="evenodd"/><text fill="#FF335F" font-family="Poppins,Poppins_MSFontService,sans-serif" font-weight="600" font-size="37" transform="matrix(0.867812 0.496893 -0.496893 0.867812 665.618 229)">ABC</text><text fill="#FF335F" font-family="Poppins,Poppins_MSFontService,sans-serif" font-weight="600" font-size="37" transform="matrix(0.862666 0.505774 -0.505774 0.862666 532.087 473)">ABC</text><path d="M706.658 458.142C704.564 460.22 704.551 463.603 706.629 465.697 708.708 467.791 712.09 467.804 714.184 465.726 716.279 463.647 716.291 460.265 714.213 458.17 712.134 456.076 708.752 456.064 706.658 458.142ZM683.719 462.395C692.065 454.705 710.479 446.054 717.181 450.433 724.84 455.437 718.63 465.334 721.353 467.955 724.077 470.575 728.774 462.915 733.522 466.158 738.271 469.4 725.476 490.605 717.009 496.132 708.542 501.659 692.789 509.217 682.722 499.32 672.655 489.424 675.079 473.739 680.822 465.591 681.54 464.572 682.527 463.493 683.719 462.395Z" fill="#FF335F" fill-rule="evenodd"/><path d="M731.205 279.562 744.101 285.762 734.723 305.268 734.268 306.607 736.391 308.212C742.967 315.672 744.829 326.63 740.249 336.157 734.143 348.859 718.895 354.205 706.193 348.098 693.491 341.992 688.145 326.744 694.252 314.042 698.832 304.516 708.553 299.127 718.486 299.604L720.984 300.239 721.827 299.069Z" fill="#FF335F" fill-rule="evenodd"/><path d="M717.789 388.523 730.044 381.138 741.216 399.675 778.989 429.794 737.947 454.528 728.961 407.062Z" fill="#FF335F" fill-rule="evenodd"/><path d="M656.785 423.785 656.785 426.007 658.057 425.057 659.106 423.785ZM644.041 423.785 644.041 431.502 646.576 431.246C647.685 431.019 648.764 430.712 649.808 430.33L652.703 429.021 652.703 423.785ZM631.297 423.785 631.297 429.021 634.192 430.33C635.236 430.712 636.315 431.019 637.424 431.246L639.959 431.502 639.959 423.785ZM624.894 423.785 625.943 425.057 627.215 426.007 627.215 423.785ZM656.785 411.041 656.785 419.703 661.911 419.703 662.923 417.839C663.498 416.48 663.944 415.055 664.246 413.576L664.502 411.041ZM644.041 411.041 644.041 419.703 652.703 419.703 652.703 411.041ZM631.297 411.041 631.297 419.703 639.959 419.703 639.959 411.041ZM619.498 411.041 619.754 413.576C620.056 415.055 620.502 416.48 621.077 417.839L622.089 419.703 627.215 419.703 627.215 411.041ZM656.785 398.297 656.785 406.959 664.483 406.959 664.157 404.009C663.887 402.805 663.521 401.637 663.068 400.513L661.962 398.297ZM644.041 398.297 644.041 406.959 652.703 406.959 652.703 398.297ZM631.297 398.297 631.297 406.959 639.959 406.959 639.959 398.297ZM622.038 398.297 620.932 400.513C620.479 401.637 620.113 402.805 619.843 404.009L619.517 406.959 627.215 406.959 627.215 398.297ZM656.785 391.775 656.785 394.215 659.214 394.215 656.86 391.83ZM627.215 391.775 627.14 391.83 624.786 394.215 627.215 394.215ZM644.041 386.498 644.041 394.215 652.703 394.215 652.703 389.048 650.326 387.867C649.123 387.393 647.87 387.018 646.576 386.754ZM639.959 386.498 637.424 386.754C636.13 387.018 634.877 387.393 633.674 387.867L631.297 389.048 631.297 394.215 639.959 394.215ZM642 382C656.912 382 669 394.088 669 409 669 423.912 656.912 436 642 436 627.088 436 615 423.912 615 409 615 394.088 627.088 382 642 382Z" fill="#FF335F" fill-rule="evenodd"/><path d="M614.673 455.127C616.866 453.181 620.221 453.382 622.167 455.575L629.051 463.333 629.539 464.172 633.322 460.815C634.646 459.64 636.673 459.761 637.849 461.086 639.024 462.41 638.903 464.437 637.578 465.613L634.069 468.727 657.661 498.959C659.607 501.152 661.268 502.856 659.075 504.801 656.882 506.747 655.14 505.115 653.195 502.923 646.661 495.559 639.22 489 632.232 482.039L626.209 475.701 622.359 479.117C621.034 480.293 619.007 480.172 617.832 478.847 616.656 477.522 616.777 475.495 618.102 474.32L621.885 470.963 621.11 470.379 614.226 462.62C612.28 460.428 612.481 457.073 614.673 455.127Z" fill="#FF335F" fill-rule="evenodd"/><path d="M779.269 397C777.779 367.294 775.264 336.54 776.177 324.735 777.09 312.93 787.938 318.756 784.746 326.17 781.555 333.584 756.07 351.969 757.026 369.22 757.983 386.47 773.588 385.698 779.083 385.962 784.579 386.225 790.043 377.02 790 370.802 789.956 364.584 782.275 360.009 777.481 359.911 772.687 359.813 767.918 363.615 767.943 370.213 767.968 376.812 774.494 379.915 778.971 379.633 783.449 379.351 784.796 376.407 784.746 373.157 784.697 369.907 779.735 369.477 778.673 368.741 777.611 368.006 778.375 368.741 778.375 368.741L778.375 368.741 778.375 368.741" stroke="#FF335F" stroke-width="4" stroke-linecap="round" stroke-miterlimit="8" fill="none" fill-rule="evenodd"/><path d="M565 336C565 294.579 598.579 261 640 261 681.421 261 715 294.579 715 336 715 377.421 681.421 411 640 411 598.579 411 565 377.421 565 336Z" fill="#FFFFFF" fill-rule="evenodd"/><path d="M640 420C687.3 420 727.743 449.604 744.103 491.44L745 494.06 734.692 501.833C707.661 520.248 675.076 531 640 531 604.924 531 572.339 520.248 545.309 501.833L535 494.06 535.897 491.44C552.256 449.604 592.7 420 640 420Z" fill="#FFFFFF" fill-rule="evenodd"/></g></svg>