<svg width="342" height="343" xmlns="http://www.w3.org/2000/svg" xmlns:xlink="http://www.w3.org/1999/xlink" overflow="hidden"><defs><clipPath id="clip0"><rect x="469" y="189" width="342" height="343"/></clipPath></defs><g clip-path="url(#clip0)" transform="translate(-469 -189)"><path d="M470 360C470 266.112 546.112 190 640 190 733.888 190 810 266.112 810 360 810 453.888 733.888 530 640 530 546.112 530 470 453.888 470 360Z" fill="#06D6A0" fill-rule="evenodd"/><path d="M539 272 741 272 741 497.418 734.98 501.929C707.867 520.283 675.183 531 640 531 604.817 531 572.133 520.283 545.02 501.929L539 497.418Z" fill="#13BF9E" fill-rule="evenodd"/><rect x="552" y="287" width="82" height="81" fill="#06D6A0"/><rect x="646" y="287" width="82" height="81" fill="#06D6A0"/><path d="M657.904 327.739C666.446 329.633 660.326 344.282 666.177 346.275 672.028 348.268 689.246 337.074 693.013 339.698 696.779 342.322 679.292 351.656 682.722 354.845 686.152 358.034 712.921 354.879 713.593 358.832 713.846 360.314 711.379 362.927 707.73 365.814L704.772 368 646 368 646 342.029 647.753 336.932C650.262 331.202 653.634 326.792 657.904 327.739ZM662.994 287 728 287 728 330.953 722.049 332.261C719.531 332.616 717.2 332.797 715.409 332.921 708.246 333.419 704.48 323.255 697.25 324.152 690.02 325.048 676.266 340.728 672.028 338.303 667.791 335.878 672.734 314.551 671.827 309.602 670.321 301.051 655.213 292.893 662.994 287Z" fill="#13BF9E" fill-rule="evenodd"/><path d="M568.5 308.5 617.62 308.5" stroke="#13BF9E" stroke-width="3" stroke-linecap="round" stroke-linejoin="round" stroke-miterlimit="10" fill="none" fill-rule="evenodd"/><path d="M568.5 327.5 617.62 327.5" stroke="#13BF9E" stroke-width="3" stroke-linecap="round" stroke-linejoin="round" stroke-miterlimit="10" fill="none" fill-rule="evenodd"/><path d="M568.5 347.5 617.62 347.5" stroke="#13BF9E" stroke-width="3" stroke-linecap="round" stroke-linejoin="round" stroke-miterlimit="10" fill="none" fill-rule="evenodd"/><path d="M552 390 727.36 390" stroke="#109C81" stroke-width="2" stroke-miterlimit="8" fill="none" fill-rule="evenodd"/><path d="M552 406 727.36 406" stroke="#109C81" stroke-width="2" stroke-miterlimit="8" fill="none" fill-rule="evenodd"/><path d="M552 423 727.36 423" stroke="#109C81" stroke-width="2" stroke-miterlimit="8" fill="none" fill-rule="evenodd"/><path d="M552 439 727.36 439" stroke="#109C81" stroke-width="2" stroke-miterlimit="8" fill="none" fill-rule="evenodd"/><path d="M552 455 727.36 455" stroke="#109C81" stroke-width="2" stroke-miterlimit="8" fill="none" fill-rule="evenodd"/><path d="M552 471 727.36 471" stroke="#109C81" stroke-width="2" stroke-miterlimit="8" fill="none" fill-rule="evenodd"/><path d="M677.091 258.459 709.391 277.108 615.432 439.849 615.431 439.85 610.724 448.003 610.661 447.967 567.542 485.501 578.488 429.391 578.425 429.355 578.531 429.171 578.531 429.171 578.531 429.171 583.132 421.202 583.132 421.201 664.017 281.104 664.017 281.104 664.017 281.104ZM701.519 229.149C702.891 229.319 704.252 229.761 705.525 230.496L719.391 238.502C724.482 241.441 726.226 247.95 723.287 253.04L712.393 271.908 680.093 253.259 690.987 234.392C693.191 230.574 697.403 228.638 701.519 229.149Z" fill="#FFFFFF" fill-rule="evenodd"/></g></svg>