<svg width="226" height="199" xmlns="http://www.w3.org/2000/svg" xmlns:xlink="http://www.w3.org/1999/xlink" overflow="hidden"><defs><clipPath id="clip0"><rect x="332" y="98" width="226" height="199"/></clipPath></defs><g clip-path="url(#clip0)" transform="translate(-332 -98)"><path d="M445 98.7082C462.18 98.7082 476.108 112.636 476.108 129.816 476.108 146.996 462.18 160.924 445 160.924 427.82 160.924 413.892 146.996 413.892 129.816 413.892 112.636 427.82 98.7082 445 98.7082ZM445 296.292C427.82 296.292 413.892 282.364 413.892 265.184 413.892 248.004 427.82 234.076 445 234.076 462.18 234.076 476.108 248.004 476.108 265.184 476.108 282.364 462.18 296.292 445 296.292ZM332.56 175.517 557.44 175.517 557.44 219.483 332.56 219.483Z" fill="#F3712B" fill-rule="evenodd"/></g></svg>