<svg width="342" height="342" xmlns="http://www.w3.org/2000/svg" xmlns:xlink="http://www.w3.org/1999/xlink" overflow="hidden"><defs><clipPath id="clip0"><rect x="469" y="189" width="342" height="342"/></clipPath></defs><g clip-path="url(#clip0)" transform="translate(-469 -189)"><path d="M470 360C470 266.112 546.112 190 640 190 733.888 190 810 266.112 810 360 810 453.888 733.888 530 640 530 546.112 530 470 453.888 470 360Z" fill="#F3712B" fill-rule="evenodd"/><path d="M701.335 202 706.143 203.752C726.525 212.336 744.88 224.757 760.294 240.106L766 246.356 688.509 380 578.299 380 506 255.311 508.373 252.152C522.26 235.396 539.316 221.341 558.627 210.895L568.019 206.391 633.404 319.156Z" fill="#FEA300" fill-rule="evenodd"/><path d="M533 387.5C533 328.129 580.906 280 640 280 699.094 280 747 328.129 747 387.5 747 446.871 699.094 495 640 495 580.906 495 533 446.871 533 387.5Z" fill="#FFFFFF" fill-rule="evenodd"/><path d="M560 388C560 343.817 595.817 308 640 308 684.183 308 720 343.817 720 388 720 432.183 684.183 468 640 468 595.817 468 560 432.183 560 388Z" fill="#F3712B" fill-rule="evenodd"/><path d="M584 374.78 626.78 374.78 640 332 653.22 374.78 696 374.78 661.39 401.22 674.61 444 640 417.56 605.39 444 618.61 401.22Z" fill="#FFFFFF" fill-rule="evenodd"/></g></svg>